G04 #@! TF.GenerationSoftware,KiCad,Pcbnew,5.1.4-5.1.4*
G04 #@! TF.CreationDate,2019-09-04T11:08:56+01:00*
G04 #@! TF.ProjectId,music2xxx,6d757369-6332-4787-9878-2e6b69636164,rev?*
G04 #@! TF.SameCoordinates,Original*
G04 #@! TF.FileFunction,Legend,Top*
G04 #@! TF.FilePolarity,Positive*
%FSLAX46Y46*%
G04 Gerber Fmt 4.6, Leading zero omitted, Abs format (unit mm)*
G04 Created by KiCad (PCBNEW 5.1.4-5.1.4) date 2019-09-04 11:08:56*
%MOMM*%
%LPD*%
G04 APERTURE LIST*
%ADD10C,0.200000*%
%ADD11C,0.300000*%
%ADD12C,0.120000*%
%ADD13C,0.150000*%
%ADD14R,2.002000X2.002000*%
%ADD15C,2.002000*%
%ADD16O,3.102000X2.702000*%
%ADD17O,2.102000X2.702000*%
%ADD18O,2.702000X3.102000*%
%ADD19O,2.702000X2.102000*%
%ADD20O,1.902000X1.902000*%
%ADD21R,1.902000X1.902000*%
%ADD22O,2.302000X2.302000*%
%ADD23R,2.302000X2.302000*%
%ADD24R,2.702000X2.102000*%
%ADD25C,1.902000*%
%ADD26R,1.702000X1.702000*%
%ADD27O,1.702000X1.702000*%
%ADD28O,1.502000X2.502000*%
%ADD29R,1.502000X2.502000*%
%ADD30R,2.302000X1.602000*%
%ADD31O,2.302000X1.602000*%
%ADD32C,7.102000*%
G04 APERTURE END LIST*
D10*
X26971666Y-22038571D02*
X27590714Y-22038571D01*
X27257380Y-22610000D01*
X27400238Y-22610000D01*
X27495476Y-22681428D01*
X27543095Y-22752857D01*
X27590714Y-22895714D01*
X27590714Y-23252857D01*
X27543095Y-23395714D01*
X27495476Y-23467142D01*
X27400238Y-23538571D01*
X27114523Y-23538571D01*
X27019285Y-23467142D01*
X26971666Y-23395714D01*
X27019285Y-53931428D02*
X27066904Y-53860000D01*
X27162142Y-53788571D01*
X27400238Y-53788571D01*
X27495476Y-53860000D01*
X27543095Y-53931428D01*
X27590714Y-54074285D01*
X27590714Y-54217142D01*
X27543095Y-54431428D01*
X26971666Y-55288571D01*
X27590714Y-55288571D01*
X27590714Y-87038571D02*
X27019285Y-87038571D01*
X27305000Y-87038571D02*
X27305000Y-85538571D01*
X27209761Y-85752857D01*
X27114523Y-85895714D01*
X27019285Y-85967142D01*
X40378333Y-14013571D02*
X39902142Y-14013571D01*
X39902142Y-12513571D01*
X40711666Y-14013571D02*
X40711666Y-12513571D01*
X41045000Y-13585000D01*
X41378333Y-12513571D01*
X41378333Y-14013571D01*
X41759285Y-12513571D02*
X42425952Y-12513571D01*
X41997380Y-14013571D01*
X42949761Y-13156428D02*
X42854523Y-13085000D01*
X42806904Y-13013571D01*
X42759285Y-12870714D01*
X42759285Y-12799285D01*
X42806904Y-12656428D01*
X42854523Y-12585000D01*
X42949761Y-12513571D01*
X43140238Y-12513571D01*
X43235476Y-12585000D01*
X43283095Y-12656428D01*
X43330714Y-12799285D01*
X43330714Y-12870714D01*
X43283095Y-13013571D01*
X43235476Y-13085000D01*
X43140238Y-13156428D01*
X42949761Y-13156428D01*
X42854523Y-13227857D01*
X42806904Y-13299285D01*
X42759285Y-13442142D01*
X42759285Y-13727857D01*
X42806904Y-13870714D01*
X42854523Y-13942142D01*
X42949761Y-14013571D01*
X43140238Y-14013571D01*
X43235476Y-13942142D01*
X43283095Y-13870714D01*
X43330714Y-13727857D01*
X43330714Y-13442142D01*
X43283095Y-13299285D01*
X43235476Y-13227857D01*
X43140238Y-13156428D01*
X43949761Y-12513571D02*
X44045000Y-12513571D01*
X44140238Y-12585000D01*
X44187857Y-12656428D01*
X44235476Y-12799285D01*
X44283095Y-13085000D01*
X44283095Y-13442142D01*
X44235476Y-13727857D01*
X44187857Y-13870714D01*
X44140238Y-13942142D01*
X44045000Y-14013571D01*
X43949761Y-14013571D01*
X43854523Y-13942142D01*
X43806904Y-13870714D01*
X43759285Y-13727857D01*
X43711666Y-13442142D01*
X43711666Y-13085000D01*
X43759285Y-12799285D01*
X43806904Y-12656428D01*
X43854523Y-12585000D01*
X43949761Y-12513571D01*
X45187857Y-12513571D02*
X44711666Y-12513571D01*
X44664047Y-13227857D01*
X44711666Y-13156428D01*
X44806904Y-13085000D01*
X45045000Y-13085000D01*
X45140238Y-13156428D01*
X45187857Y-13227857D01*
X45235476Y-13370714D01*
X45235476Y-13727857D01*
X45187857Y-13870714D01*
X45140238Y-13942142D01*
X45045000Y-14013571D01*
X44806904Y-14013571D01*
X44711666Y-13942142D01*
X44664047Y-13870714D01*
X88487619Y-47668571D02*
X87916190Y-47668571D01*
X88201904Y-47668571D02*
X88201904Y-46168571D01*
X88106666Y-46382857D01*
X88011428Y-46525714D01*
X87916190Y-46597142D01*
X88916190Y-47668571D02*
X88916190Y-46168571D01*
X89249523Y-47240000D01*
X89582857Y-46168571D01*
X89582857Y-47668571D01*
X90059047Y-47668571D02*
X90059047Y-46168571D01*
X90059047Y-46882857D02*
X90630476Y-46882857D01*
X90630476Y-47668571D02*
X90630476Y-46168571D01*
X91011428Y-46668571D02*
X91535238Y-46668571D01*
X91011428Y-47668571D01*
X91535238Y-47668571D01*
X93011428Y-46882857D02*
X93154285Y-46954285D01*
X93201904Y-47025714D01*
X93249523Y-47168571D01*
X93249523Y-47382857D01*
X93201904Y-47525714D01*
X93154285Y-47597142D01*
X93059047Y-47668571D01*
X92678095Y-47668571D01*
X92678095Y-46168571D01*
X93011428Y-46168571D01*
X93106666Y-46240000D01*
X93154285Y-46311428D01*
X93201904Y-46454285D01*
X93201904Y-46597142D01*
X93154285Y-46740000D01*
X93106666Y-46811428D01*
X93011428Y-46882857D01*
X92678095Y-46882857D01*
X94106666Y-46668571D02*
X94106666Y-47668571D01*
X93678095Y-46668571D02*
X93678095Y-47454285D01*
X93725714Y-47597142D01*
X93820952Y-47668571D01*
X93963809Y-47668571D01*
X94059047Y-47597142D01*
X94106666Y-47525714D01*
X94535238Y-47597142D02*
X94630476Y-47668571D01*
X94820952Y-47668571D01*
X94916190Y-47597142D01*
X94963809Y-47454285D01*
X94963809Y-47382857D01*
X94916190Y-47240000D01*
X94820952Y-47168571D01*
X94678095Y-47168571D01*
X94582857Y-47097142D01*
X94535238Y-46954285D01*
X94535238Y-46882857D01*
X94582857Y-46740000D01*
X94678095Y-46668571D01*
X94820952Y-46668571D01*
X94916190Y-46740000D01*
X41030047Y-82696857D02*
X40696714Y-82696857D01*
X40696714Y-83482571D02*
X40696714Y-81982571D01*
X41172904Y-81982571D01*
X41696714Y-83482571D02*
X41601476Y-83411142D01*
X41553857Y-83339714D01*
X41506238Y-83196857D01*
X41506238Y-82768285D01*
X41553857Y-82625428D01*
X41601476Y-82554000D01*
X41696714Y-82482571D01*
X41839571Y-82482571D01*
X41934809Y-82554000D01*
X41982428Y-82625428D01*
X42030047Y-82768285D01*
X42030047Y-83196857D01*
X41982428Y-83339714D01*
X41934809Y-83411142D01*
X41839571Y-83482571D01*
X41696714Y-83482571D01*
X42458619Y-83482571D02*
X42458619Y-82482571D01*
X42458619Y-82768285D02*
X42506238Y-82625428D01*
X42553857Y-82554000D01*
X42649095Y-82482571D01*
X42744333Y-82482571D01*
X43696714Y-82482571D02*
X44077666Y-82482571D01*
X43839571Y-81982571D02*
X43839571Y-83268285D01*
X43887190Y-83411142D01*
X43982428Y-83482571D01*
X44077666Y-83482571D01*
X44411000Y-83482571D02*
X44411000Y-81982571D01*
X44839571Y-83482571D02*
X44839571Y-82696857D01*
X44791952Y-82554000D01*
X44696714Y-82482571D01*
X44553857Y-82482571D01*
X44458619Y-82554000D01*
X44411000Y-82625428D01*
X45696714Y-83411142D02*
X45601476Y-83482571D01*
X45411000Y-83482571D01*
X45315761Y-83411142D01*
X45268142Y-83268285D01*
X45268142Y-82696857D01*
X45315761Y-82554000D01*
X45411000Y-82482571D01*
X45601476Y-82482571D01*
X45696714Y-82554000D01*
X45744333Y-82696857D01*
X45744333Y-82839714D01*
X45268142Y-82982571D01*
X46887190Y-83054000D02*
X47363380Y-83054000D01*
X46791952Y-83482571D02*
X47125285Y-81982571D01*
X47458619Y-83482571D01*
X48220523Y-83411142D02*
X48125285Y-83482571D01*
X47934809Y-83482571D01*
X47839571Y-83411142D01*
X47791952Y-83339714D01*
X47744333Y-83196857D01*
X47744333Y-82768285D01*
X47791952Y-82625428D01*
X47839571Y-82554000D01*
X47934809Y-82482571D01*
X48125285Y-82482571D01*
X48220523Y-82554000D01*
X48791952Y-83482571D02*
X48696714Y-83411142D01*
X48649095Y-83339714D01*
X48601476Y-83196857D01*
X48601476Y-82768285D01*
X48649095Y-82625428D01*
X48696714Y-82554000D01*
X48791952Y-82482571D01*
X48934809Y-82482571D01*
X49030047Y-82554000D01*
X49077666Y-82625428D01*
X49125285Y-82768285D01*
X49125285Y-83196857D01*
X49077666Y-83339714D01*
X49030047Y-83411142D01*
X48934809Y-83482571D01*
X48791952Y-83482571D01*
X49553857Y-83482571D02*
X49553857Y-82482571D01*
X49553857Y-82768285D02*
X49601476Y-82625428D01*
X49649095Y-82554000D01*
X49744333Y-82482571D01*
X49839571Y-82482571D01*
X50172904Y-82482571D02*
X50172904Y-83482571D01*
X50172904Y-82625428D02*
X50220523Y-82554000D01*
X50315761Y-82482571D01*
X50458619Y-82482571D01*
X50553857Y-82554000D01*
X50601476Y-82696857D01*
X50601476Y-83482571D01*
X52172904Y-82696857D02*
X52315761Y-82768285D01*
X52363380Y-82839714D01*
X52411000Y-82982571D01*
X52411000Y-83196857D01*
X52363380Y-83339714D01*
X52315761Y-83411142D01*
X52220523Y-83482571D01*
X51839571Y-83482571D01*
X51839571Y-81982571D01*
X52172904Y-81982571D01*
X52268142Y-82054000D01*
X52315761Y-82125428D01*
X52363380Y-82268285D01*
X52363380Y-82411142D01*
X52315761Y-82554000D01*
X52268142Y-82625428D01*
X52172904Y-82696857D01*
X51839571Y-82696857D01*
X53172904Y-82696857D02*
X53315761Y-82768285D01*
X53363380Y-82839714D01*
X53411000Y-82982571D01*
X53411000Y-83196857D01*
X53363380Y-83339714D01*
X53315761Y-83411142D01*
X53220523Y-83482571D01*
X52839571Y-83482571D01*
X52839571Y-81982571D01*
X53172904Y-81982571D01*
X53268142Y-82054000D01*
X53315761Y-82125428D01*
X53363380Y-82268285D01*
X53363380Y-82411142D01*
X53315761Y-82554000D01*
X53268142Y-82625428D01*
X53172904Y-82696857D01*
X52839571Y-82696857D01*
X54411000Y-83339714D02*
X54363380Y-83411142D01*
X54220523Y-83482571D01*
X54125285Y-83482571D01*
X53982428Y-83411142D01*
X53887190Y-83268285D01*
X53839571Y-83125428D01*
X53791952Y-82839714D01*
X53791952Y-82625428D01*
X53839571Y-82339714D01*
X53887190Y-82196857D01*
X53982428Y-82054000D01*
X54125285Y-81982571D01*
X54220523Y-81982571D01*
X54363380Y-82054000D01*
X54411000Y-82125428D01*
X55601476Y-83482571D02*
X55601476Y-81982571D01*
X55934809Y-83054000D01*
X56268142Y-81982571D01*
X56268142Y-83482571D01*
X56744333Y-83482571D02*
X56744333Y-82482571D01*
X56744333Y-81982571D02*
X56696714Y-82054000D01*
X56744333Y-82125428D01*
X56791952Y-82054000D01*
X56744333Y-81982571D01*
X56744333Y-82125428D01*
X57649095Y-83411142D02*
X57553857Y-83482571D01*
X57363380Y-83482571D01*
X57268142Y-83411142D01*
X57220523Y-83339714D01*
X57172904Y-83196857D01*
X57172904Y-82768285D01*
X57220523Y-82625428D01*
X57268142Y-82554000D01*
X57363380Y-82482571D01*
X57553857Y-82482571D01*
X57649095Y-82554000D01*
X58077666Y-83482571D02*
X58077666Y-82482571D01*
X58077666Y-82768285D02*
X58125285Y-82625428D01*
X58172904Y-82554000D01*
X58268142Y-82482571D01*
X58363380Y-82482571D01*
X58839571Y-83482571D02*
X58744333Y-83411142D01*
X58696714Y-83339714D01*
X58649095Y-83196857D01*
X58649095Y-82768285D01*
X58696714Y-82625428D01*
X58744333Y-82554000D01*
X58839571Y-82482571D01*
X58982428Y-82482571D01*
X59077666Y-82554000D01*
X59125285Y-82625428D01*
X59172904Y-82768285D01*
X59172904Y-83196857D01*
X59125285Y-83339714D01*
X59077666Y-83411142D01*
X58982428Y-83482571D01*
X58839571Y-83482571D01*
D11*
X30999999Y-81140952D02*
X30999999Y-78640952D01*
X31666666Y-80426666D01*
X32333333Y-78640952D01*
X32333333Y-81140952D01*
X34142857Y-79474285D02*
X34142857Y-81140952D01*
X33285714Y-79474285D02*
X33285714Y-80783809D01*
X33380952Y-81021904D01*
X33571428Y-81140952D01*
X33857142Y-81140952D01*
X34047619Y-81021904D01*
X34142857Y-80902857D01*
X34999999Y-81021904D02*
X35190476Y-81140952D01*
X35571428Y-81140952D01*
X35761904Y-81021904D01*
X35857142Y-80783809D01*
X35857142Y-80664761D01*
X35761904Y-80426666D01*
X35571428Y-80307619D01*
X35285714Y-80307619D01*
X35095238Y-80188571D01*
X34999999Y-79950476D01*
X34999999Y-79831428D01*
X35095238Y-79593333D01*
X35285714Y-79474285D01*
X35571428Y-79474285D01*
X35761904Y-79593333D01*
X36714285Y-81140952D02*
X36714285Y-79474285D01*
X36714285Y-78640952D02*
X36619047Y-78760000D01*
X36714285Y-78879047D01*
X36809523Y-78760000D01*
X36714285Y-78640952D01*
X36714285Y-78879047D01*
X38523809Y-81021904D02*
X38333333Y-81140952D01*
X37952380Y-81140952D01*
X37761904Y-81021904D01*
X37666666Y-80902857D01*
X37571428Y-80664761D01*
X37571428Y-79950476D01*
X37666666Y-79712380D01*
X37761904Y-79593333D01*
X37952380Y-79474285D01*
X38333333Y-79474285D01*
X38523809Y-79593333D01*
X40809523Y-78879047D02*
X40904761Y-78760000D01*
X41095238Y-78640952D01*
X41571428Y-78640952D01*
X41761904Y-78760000D01*
X41857142Y-78879047D01*
X41952380Y-79117142D01*
X41952380Y-79355238D01*
X41857142Y-79712380D01*
X40714285Y-81140952D01*
X41952380Y-81140952D01*
X42619047Y-81140952D02*
X43666666Y-79474285D01*
X42619047Y-79474285D02*
X43666666Y-81140952D01*
X44238095Y-81140952D02*
X45285714Y-79474285D01*
X44238095Y-79474285D02*
X45285714Y-81140952D01*
X45857142Y-81140952D02*
X46904761Y-79474285D01*
X45857142Y-79474285D02*
X46904761Y-81140952D01*
X49190476Y-81140952D02*
X49190476Y-78640952D01*
X49857142Y-80426666D01*
X50523809Y-78640952D01*
X50523809Y-81140952D01*
X51476190Y-81140952D02*
X51476190Y-79474285D01*
X51476190Y-78640952D02*
X51380952Y-78760000D01*
X51476190Y-78879047D01*
X51571428Y-78760000D01*
X51476190Y-78640952D01*
X51476190Y-78879047D01*
X53285714Y-81140952D02*
X53285714Y-78640952D01*
X53285714Y-81021904D02*
X53095238Y-81140952D01*
X52714285Y-81140952D01*
X52523809Y-81021904D01*
X52428571Y-80902857D01*
X52333333Y-80664761D01*
X52333333Y-79950476D01*
X52428571Y-79712380D01*
X52523809Y-79593333D01*
X52714285Y-79474285D01*
X53095238Y-79474285D01*
X53285714Y-79593333D01*
X54238095Y-81140952D02*
X54238095Y-79474285D01*
X54238095Y-78640952D02*
X54142857Y-78760000D01*
X54238095Y-78879047D01*
X54333333Y-78760000D01*
X54238095Y-78640952D01*
X54238095Y-78879047D01*
X56714285Y-81140952D02*
X56714285Y-78640952D01*
X57666666Y-79474285D02*
X57666666Y-81140952D01*
X57666666Y-79712380D02*
X57761904Y-79593333D01*
X57952380Y-79474285D01*
X58238095Y-79474285D01*
X58428571Y-79593333D01*
X58523809Y-79831428D01*
X58523809Y-81140952D01*
X59190476Y-79474285D02*
X59952380Y-79474285D01*
X59476190Y-78640952D02*
X59476190Y-80783809D01*
X59571428Y-81021904D01*
X59761904Y-81140952D01*
X59952380Y-81140952D01*
X61380952Y-81021904D02*
X61190476Y-81140952D01*
X60809523Y-81140952D01*
X60619047Y-81021904D01*
X60523809Y-80783809D01*
X60523809Y-79831428D01*
X60619047Y-79593333D01*
X60809523Y-79474285D01*
X61190476Y-79474285D01*
X61380952Y-79593333D01*
X61476190Y-79831428D01*
X61476190Y-80069523D01*
X60523809Y-80307619D01*
X62333333Y-81140952D02*
X62333333Y-79474285D01*
X62333333Y-79950476D02*
X62428571Y-79712380D01*
X62523809Y-79593333D01*
X62714285Y-79474285D01*
X62904761Y-79474285D01*
X63285714Y-79474285D02*
X64047619Y-79474285D01*
X63571428Y-81140952D02*
X63571428Y-78998095D01*
X63666666Y-78760000D01*
X63857142Y-78640952D01*
X64047619Y-78640952D01*
X65571428Y-81140952D02*
X65571428Y-79831428D01*
X65476190Y-79593333D01*
X65285714Y-79474285D01*
X64904761Y-79474285D01*
X64714285Y-79593333D01*
X65571428Y-81021904D02*
X65380952Y-81140952D01*
X64904761Y-81140952D01*
X64714285Y-81021904D01*
X64619047Y-80783809D01*
X64619047Y-80545714D01*
X64714285Y-80307619D01*
X64904761Y-80188571D01*
X65380952Y-80188571D01*
X65571428Y-80069523D01*
X67380952Y-81021904D02*
X67190476Y-81140952D01*
X66809523Y-81140952D01*
X66619047Y-81021904D01*
X66523809Y-80902857D01*
X66428571Y-80664761D01*
X66428571Y-79950476D01*
X66523809Y-79712380D01*
X66619047Y-79593333D01*
X66809523Y-79474285D01*
X67190476Y-79474285D01*
X67380952Y-79593333D01*
X68999999Y-81021904D02*
X68809523Y-81140952D01*
X68428571Y-81140952D01*
X68238095Y-81021904D01*
X68142857Y-80783809D01*
X68142857Y-79831428D01*
X68238095Y-79593333D01*
X68428571Y-79474285D01*
X68809523Y-79474285D01*
X68999999Y-79593333D01*
X69095238Y-79831428D01*
X69095238Y-80069523D01*
X68142857Y-80307619D01*
D10*
X4178571Y-79437857D02*
X4178571Y-79914047D01*
X4892857Y-79961666D01*
X4821428Y-79914047D01*
X4750000Y-79818809D01*
X4750000Y-79580714D01*
X4821428Y-79485476D01*
X4892857Y-79437857D01*
X5035714Y-79390238D01*
X5392857Y-79390238D01*
X5535714Y-79437857D01*
X5607142Y-79485476D01*
X5678571Y-79580714D01*
X5678571Y-79818809D01*
X5607142Y-79914047D01*
X5535714Y-79961666D01*
X4178571Y-79104523D02*
X5678571Y-78771190D01*
X4178571Y-78437857D01*
X4250000Y-70723571D02*
X4178571Y-70818809D01*
X4178571Y-70961666D01*
X4250000Y-71104523D01*
X4392857Y-71199761D01*
X4535714Y-71247380D01*
X4821428Y-71295000D01*
X5035714Y-71295000D01*
X5321428Y-71247380D01*
X5464285Y-71199761D01*
X5607142Y-71104523D01*
X5678571Y-70961666D01*
X5678571Y-70866428D01*
X5607142Y-70723571D01*
X5535714Y-70675952D01*
X5035714Y-70675952D01*
X5035714Y-70866428D01*
X5678571Y-70247380D02*
X4178571Y-70247380D01*
X5678571Y-69675952D01*
X4178571Y-69675952D01*
X5678571Y-69199761D02*
X4178571Y-69199761D01*
X4178571Y-68961666D01*
X4250000Y-68818809D01*
X4392857Y-68723571D01*
X4535714Y-68675952D01*
X4821428Y-68628333D01*
X5035714Y-68628333D01*
X5321428Y-68675952D01*
X5464285Y-68723571D01*
X5607142Y-68818809D01*
X5678571Y-68961666D01*
X5678571Y-69199761D01*
D12*
X3987180Y-86269136D02*
G75*
G03X10022482Y-86270000I3017820J1179136D01*
G01*
X3987180Y-83910864D02*
G75*
G02X10022482Y-83910000I3017820J-1179136D01*
G01*
X3987180Y-83910864D02*
G75*
G03X3987518Y-86270000I3017820J-1179136D01*
G01*
X7005000Y-88290000D02*
X7005000Y-81890000D01*
X6965000Y-88290000D02*
X6965000Y-81890000D01*
X6925000Y-88290000D02*
X6925000Y-81890000D01*
X6885000Y-88288000D02*
X6885000Y-81892000D01*
X6845000Y-88287000D02*
X6845000Y-81893000D01*
X6805000Y-88284000D02*
X6805000Y-81896000D01*
X6765000Y-88282000D02*
X6765000Y-81898000D01*
X6725000Y-88278000D02*
X6725000Y-86070000D01*
X6725000Y-84110000D02*
X6725000Y-81902000D01*
X6685000Y-88275000D02*
X6685000Y-86070000D01*
X6685000Y-84110000D02*
X6685000Y-81905000D01*
X6645000Y-88270000D02*
X6645000Y-86070000D01*
X6645000Y-84110000D02*
X6645000Y-81910000D01*
X6605000Y-88266000D02*
X6605000Y-86070000D01*
X6605000Y-84110000D02*
X6605000Y-81914000D01*
X6565000Y-88260000D02*
X6565000Y-86070000D01*
X6565000Y-84110000D02*
X6565000Y-81920000D01*
X6525000Y-88255000D02*
X6525000Y-86070000D01*
X6525000Y-84110000D02*
X6525000Y-81925000D01*
X6485000Y-88248000D02*
X6485000Y-86070000D01*
X6485000Y-84110000D02*
X6485000Y-81932000D01*
X6445000Y-88242000D02*
X6445000Y-86070000D01*
X6445000Y-84110000D02*
X6445000Y-81938000D01*
X6405000Y-88234000D02*
X6405000Y-86070000D01*
X6405000Y-84110000D02*
X6405000Y-81946000D01*
X6365000Y-88227000D02*
X6365000Y-86070000D01*
X6365000Y-84110000D02*
X6365000Y-81953000D01*
X6325000Y-88218000D02*
X6325000Y-86070000D01*
X6325000Y-84110000D02*
X6325000Y-81962000D01*
X6284000Y-88209000D02*
X6284000Y-86070000D01*
X6284000Y-84110000D02*
X6284000Y-81971000D01*
X6244000Y-88200000D02*
X6244000Y-86070000D01*
X6244000Y-84110000D02*
X6244000Y-81980000D01*
X6204000Y-88190000D02*
X6204000Y-86070000D01*
X6204000Y-84110000D02*
X6204000Y-81990000D01*
X6164000Y-88180000D02*
X6164000Y-86070000D01*
X6164000Y-84110000D02*
X6164000Y-82000000D01*
X6124000Y-88169000D02*
X6124000Y-86070000D01*
X6124000Y-84110000D02*
X6124000Y-82011000D01*
X6084000Y-88157000D02*
X6084000Y-86070000D01*
X6084000Y-84110000D02*
X6084000Y-82023000D01*
X6044000Y-88145000D02*
X6044000Y-86070000D01*
X6044000Y-84110000D02*
X6044000Y-82035000D01*
X6004000Y-88132000D02*
X6004000Y-86070000D01*
X6004000Y-84110000D02*
X6004000Y-82048000D01*
X5964000Y-88119000D02*
X5964000Y-86070000D01*
X5964000Y-84110000D02*
X5964000Y-82061000D01*
X5924000Y-88105000D02*
X5924000Y-86070000D01*
X5924000Y-84110000D02*
X5924000Y-82075000D01*
X5884000Y-88091000D02*
X5884000Y-86070000D01*
X5884000Y-84110000D02*
X5884000Y-82089000D01*
X5844000Y-88076000D02*
X5844000Y-86070000D01*
X5844000Y-84110000D02*
X5844000Y-82104000D01*
X5804000Y-88060000D02*
X5804000Y-86070000D01*
X5804000Y-84110000D02*
X5804000Y-82120000D01*
X5764000Y-88044000D02*
X5764000Y-86070000D01*
X5764000Y-84110000D02*
X5764000Y-82136000D01*
X5724000Y-88027000D02*
X5724000Y-86070000D01*
X5724000Y-84110000D02*
X5724000Y-82153000D01*
X5684000Y-88009000D02*
X5684000Y-86070000D01*
X5684000Y-84110000D02*
X5684000Y-82171000D01*
X5644000Y-87991000D02*
X5644000Y-86070000D01*
X5644000Y-84110000D02*
X5644000Y-82189000D01*
X5604000Y-87972000D02*
X5604000Y-86070000D01*
X5604000Y-84110000D02*
X5604000Y-82208000D01*
X5564000Y-87953000D02*
X5564000Y-86070000D01*
X5564000Y-84110000D02*
X5564000Y-82227000D01*
X5524000Y-87933000D02*
X5524000Y-86070000D01*
X5524000Y-84110000D02*
X5524000Y-82247000D01*
X5484000Y-87912000D02*
X5484000Y-86070000D01*
X5484000Y-84110000D02*
X5484000Y-82268000D01*
X5444000Y-87890000D02*
X5444000Y-86070000D01*
X5444000Y-84110000D02*
X5444000Y-82290000D01*
X5404000Y-87868000D02*
X5404000Y-86070000D01*
X5404000Y-84110000D02*
X5404000Y-82312000D01*
X5364000Y-87845000D02*
X5364000Y-86070000D01*
X5364000Y-84110000D02*
X5364000Y-82335000D01*
X5324000Y-87821000D02*
X5324000Y-86070000D01*
X5324000Y-84110000D02*
X5324000Y-82359000D01*
X5284000Y-87796000D02*
X5284000Y-86070000D01*
X5284000Y-84110000D02*
X5284000Y-82384000D01*
X5244000Y-87771000D02*
X5244000Y-86070000D01*
X5244000Y-84110000D02*
X5244000Y-82409000D01*
X5204000Y-87744000D02*
X5204000Y-86070000D01*
X5204000Y-84110000D02*
X5204000Y-82436000D01*
X5164000Y-87717000D02*
X5164000Y-86070000D01*
X5164000Y-84110000D02*
X5164000Y-82463000D01*
X5124000Y-87689000D02*
X5124000Y-86070000D01*
X5124000Y-84110000D02*
X5124000Y-82491000D01*
X5084000Y-87660000D02*
X5084000Y-86070000D01*
X5084000Y-84110000D02*
X5084000Y-82520000D01*
X5044000Y-87630000D02*
X5044000Y-86070000D01*
X5044000Y-84110000D02*
X5044000Y-82550000D01*
X5004000Y-87600000D02*
X5004000Y-86070000D01*
X5004000Y-84110000D02*
X5004000Y-82580000D01*
X4964000Y-87568000D02*
X4964000Y-86070000D01*
X4964000Y-84110000D02*
X4964000Y-82612000D01*
X4924000Y-87535000D02*
X4924000Y-86070000D01*
X4924000Y-84110000D02*
X4924000Y-82645000D01*
X4884000Y-87501000D02*
X4884000Y-86070000D01*
X4884000Y-84110000D02*
X4884000Y-82679000D01*
X4844000Y-87465000D02*
X4844000Y-86070000D01*
X4844000Y-84110000D02*
X4844000Y-82715000D01*
X4804000Y-87429000D02*
X4804000Y-86070000D01*
X4804000Y-84110000D02*
X4804000Y-82751000D01*
X4764000Y-87391000D02*
X4764000Y-82789000D01*
X4724000Y-87352000D02*
X4724000Y-82828000D01*
X4684000Y-87312000D02*
X4684000Y-82868000D01*
X4644000Y-87270000D02*
X4644000Y-82910000D01*
X4604000Y-87227000D02*
X4604000Y-82953000D01*
X4564000Y-87182000D02*
X4564000Y-82998000D01*
X4524000Y-87135000D02*
X4524000Y-83045000D01*
X4484000Y-87087000D02*
X4484000Y-83093000D01*
X4444000Y-87036000D02*
X4444000Y-83144000D01*
X4404000Y-86984000D02*
X4404000Y-83196000D01*
X4364000Y-86929000D02*
X4364000Y-83251000D01*
X4324000Y-86871000D02*
X4324000Y-83309000D01*
X4284000Y-86811000D02*
X4284000Y-83369000D01*
X4244000Y-86748000D02*
X4244000Y-83432000D01*
X4204000Y-86681000D02*
X4204000Y-83499000D01*
X4164000Y-86610000D02*
X4164000Y-83570000D01*
X4124000Y-86535000D02*
X4124000Y-83645000D01*
X4084000Y-86454000D02*
X4084000Y-83726000D01*
X4044000Y-86368000D02*
X4044000Y-83812000D01*
X4004000Y-86274000D02*
X4004000Y-83906000D01*
X3964000Y-86171000D02*
X3964000Y-84009000D01*
X3924000Y-86056000D02*
X3924000Y-84124000D01*
X3884000Y-85924000D02*
X3884000Y-84256000D01*
X3844000Y-85766000D02*
X3844000Y-84414000D01*
X3804000Y-85558000D02*
X3804000Y-84622000D01*
X10455000Y-85090000D02*
X9255000Y-85090000D01*
X9855000Y-85740000D02*
X9855000Y-84440000D01*
D10*
X49850000Y-150250000D02*
X49850000Y-135750000D01*
X49850000Y-135750000D02*
X30150000Y-135750000D01*
X30150000Y-135750000D02*
X30150000Y-150250000D01*
X30150000Y-150250000D02*
X49850000Y-150250000D01*
X49850000Y-135750000D02*
X49850000Y-130750000D01*
X30150000Y-135750000D02*
X30150000Y-130750000D01*
X30150000Y-130750000D02*
X49850000Y-130750000D01*
X100250000Y-15150000D02*
X85750000Y-15150000D01*
X85750000Y-15150000D02*
X85750000Y-34850000D01*
X85750000Y-34850000D02*
X100250000Y-34850000D01*
X100250000Y-34850000D02*
X100250000Y-15150000D01*
X85750000Y-15150000D02*
X80750000Y-15150000D01*
X85750000Y-34850000D02*
X80750000Y-34850000D01*
X80750000Y-34850000D02*
X80750000Y-15150000D01*
X89850000Y-150250000D02*
X89850000Y-135750000D01*
X89850000Y-135750000D02*
X70150000Y-135750000D01*
X70150000Y-135750000D02*
X70150000Y-150250000D01*
X70150000Y-150250000D02*
X89850000Y-150250000D01*
X89850000Y-135750000D02*
X89850000Y-130750000D01*
X70150000Y-135750000D02*
X70150000Y-130750000D01*
X70150000Y-130750000D02*
X89850000Y-130750000D01*
X69850000Y-150250000D02*
X69850000Y-135750000D01*
X69850000Y-135750000D02*
X50150000Y-135750000D01*
X50150000Y-135750000D02*
X50150000Y-150250000D01*
X50150000Y-150250000D02*
X69850000Y-150250000D01*
X69850000Y-135750000D02*
X69850000Y-130750000D01*
X50150000Y-135750000D02*
X50150000Y-130750000D01*
X50150000Y-130750000D02*
X69850000Y-130750000D01*
D12*
X44396000Y-5635000D02*
X44396000Y-7145000D01*
X40695000Y-5635000D02*
X40695000Y-7145000D01*
X37425000Y-7145000D02*
X47665000Y-7145000D01*
X47665000Y-5635000D02*
X47665000Y-10276000D01*
X37425000Y-5635000D02*
X37425000Y-10276000D01*
X37425000Y-10276000D02*
X47665000Y-10276000D01*
X37425000Y-5635000D02*
X47665000Y-5635000D01*
X20235000Y-19190000D02*
X20235000Y-16370000D01*
X14615000Y-17780000D02*
X15755000Y-17780000D01*
X22215000Y-17780000D02*
X21075000Y-17780000D01*
X15755000Y-19190000D02*
X21075000Y-19190000D01*
X15755000Y-16370000D02*
X15755000Y-19190000D01*
X21075000Y-16370000D02*
X15755000Y-16370000D01*
X21075000Y-19190000D02*
X21075000Y-16370000D01*
X74255000Y-109255000D02*
X76875000Y-109255000D01*
X76875000Y-109255000D02*
X76875000Y-102835000D01*
X76875000Y-102835000D02*
X74255000Y-102835000D01*
X74255000Y-102835000D02*
X74255000Y-109255000D01*
X75565000Y-110145000D02*
X75565000Y-109255000D01*
X75565000Y-101945000D02*
X75565000Y-102835000D01*
X3315000Y-17615000D02*
X2695000Y-17615000D01*
X3315000Y-19215000D02*
X3315000Y-17615000D01*
X2695000Y-19215000D02*
X3315000Y-19215000D01*
X3315000Y-20155000D02*
X2695000Y-20155000D01*
X3315000Y-21755000D02*
X3315000Y-20155000D01*
X2695000Y-21755000D02*
X3315000Y-21755000D01*
X8695000Y-18665000D02*
X7695000Y-18665000D01*
X8695000Y-20705000D02*
X7695000Y-20705000D01*
X7265000Y-18665000D02*
X7695000Y-18415000D01*
X7265000Y-20705000D02*
X7265000Y-18665000D01*
X7695000Y-20955000D02*
X7265000Y-20705000D01*
X7695000Y-18415000D02*
X8695000Y-18415000D01*
X7695000Y-20955000D02*
X7695000Y-18415000D01*
X8695000Y-20955000D02*
X7695000Y-20955000D01*
X2695000Y-17045000D02*
X2695000Y-22325000D01*
X8695000Y-17045000D02*
X2695000Y-17045000D01*
X8695000Y-22325000D02*
X8695000Y-17045000D01*
X2695000Y-22325000D02*
X8695000Y-22325000D01*
X96075000Y-10505000D02*
X95919000Y-10505000D01*
X98391000Y-10505000D02*
X98235000Y-10505000D01*
X96075163Y-13106130D02*
G75*
G02X96075000Y-11024039I1079837J1041130D01*
G01*
X98234837Y-13106130D02*
G75*
G03X98235000Y-11024039I-1079837J1041130D01*
G01*
X96076392Y-13737335D02*
G75*
G02X95919484Y-10505000I1078608J1672335D01*
G01*
X98233608Y-13737335D02*
G75*
G03X98390516Y-10505000I-1078608J1672335D01*
G01*
X36104136Y-22047820D02*
G75*
G03X36105000Y-16012518I-1179136J3017820D01*
G01*
X33745864Y-22047820D02*
G75*
G02X33745000Y-16012518I1179136J3017820D01*
G01*
X33745864Y-22047820D02*
G75*
G03X36105000Y-22047482I1179136J3017820D01*
G01*
X38125000Y-19030000D02*
X31725000Y-19030000D01*
X38125000Y-19070000D02*
X31725000Y-19070000D01*
X38125000Y-19110000D02*
X31725000Y-19110000D01*
X38123000Y-19150000D02*
X31727000Y-19150000D01*
X38122000Y-19190000D02*
X31728000Y-19190000D01*
X38119000Y-19230000D02*
X31731000Y-19230000D01*
X38117000Y-19270000D02*
X31733000Y-19270000D01*
X38113000Y-19310000D02*
X35905000Y-19310000D01*
X33945000Y-19310000D02*
X31737000Y-19310000D01*
X38110000Y-19350000D02*
X35905000Y-19350000D01*
X33945000Y-19350000D02*
X31740000Y-19350000D01*
X38105000Y-19390000D02*
X35905000Y-19390000D01*
X33945000Y-19390000D02*
X31745000Y-19390000D01*
X38101000Y-19430000D02*
X35905000Y-19430000D01*
X33945000Y-19430000D02*
X31749000Y-19430000D01*
X38095000Y-19470000D02*
X35905000Y-19470000D01*
X33945000Y-19470000D02*
X31755000Y-19470000D01*
X38090000Y-19510000D02*
X35905000Y-19510000D01*
X33945000Y-19510000D02*
X31760000Y-19510000D01*
X38083000Y-19550000D02*
X35905000Y-19550000D01*
X33945000Y-19550000D02*
X31767000Y-19550000D01*
X38077000Y-19590000D02*
X35905000Y-19590000D01*
X33945000Y-19590000D02*
X31773000Y-19590000D01*
X38069000Y-19630000D02*
X35905000Y-19630000D01*
X33945000Y-19630000D02*
X31781000Y-19630000D01*
X38062000Y-19670000D02*
X35905000Y-19670000D01*
X33945000Y-19670000D02*
X31788000Y-19670000D01*
X38053000Y-19710000D02*
X35905000Y-19710000D01*
X33945000Y-19710000D02*
X31797000Y-19710000D01*
X38044000Y-19751000D02*
X35905000Y-19751000D01*
X33945000Y-19751000D02*
X31806000Y-19751000D01*
X38035000Y-19791000D02*
X35905000Y-19791000D01*
X33945000Y-19791000D02*
X31815000Y-19791000D01*
X38025000Y-19831000D02*
X35905000Y-19831000D01*
X33945000Y-19831000D02*
X31825000Y-19831000D01*
X38015000Y-19871000D02*
X35905000Y-19871000D01*
X33945000Y-19871000D02*
X31835000Y-19871000D01*
X38004000Y-19911000D02*
X35905000Y-19911000D01*
X33945000Y-19911000D02*
X31846000Y-19911000D01*
X37992000Y-19951000D02*
X35905000Y-19951000D01*
X33945000Y-19951000D02*
X31858000Y-19951000D01*
X37980000Y-19991000D02*
X35905000Y-19991000D01*
X33945000Y-19991000D02*
X31870000Y-19991000D01*
X37967000Y-20031000D02*
X35905000Y-20031000D01*
X33945000Y-20031000D02*
X31883000Y-20031000D01*
X37954000Y-20071000D02*
X35905000Y-20071000D01*
X33945000Y-20071000D02*
X31896000Y-20071000D01*
X37940000Y-20111000D02*
X35905000Y-20111000D01*
X33945000Y-20111000D02*
X31910000Y-20111000D01*
X37926000Y-20151000D02*
X35905000Y-20151000D01*
X33945000Y-20151000D02*
X31924000Y-20151000D01*
X37911000Y-20191000D02*
X35905000Y-20191000D01*
X33945000Y-20191000D02*
X31939000Y-20191000D01*
X37895000Y-20231000D02*
X35905000Y-20231000D01*
X33945000Y-20231000D02*
X31955000Y-20231000D01*
X37879000Y-20271000D02*
X35905000Y-20271000D01*
X33945000Y-20271000D02*
X31971000Y-20271000D01*
X37862000Y-20311000D02*
X35905000Y-20311000D01*
X33945000Y-20311000D02*
X31988000Y-20311000D01*
X37844000Y-20351000D02*
X35905000Y-20351000D01*
X33945000Y-20351000D02*
X32006000Y-20351000D01*
X37826000Y-20391000D02*
X35905000Y-20391000D01*
X33945000Y-20391000D02*
X32024000Y-20391000D01*
X37807000Y-20431000D02*
X35905000Y-20431000D01*
X33945000Y-20431000D02*
X32043000Y-20431000D01*
X37788000Y-20471000D02*
X35905000Y-20471000D01*
X33945000Y-20471000D02*
X32062000Y-20471000D01*
X37768000Y-20511000D02*
X35905000Y-20511000D01*
X33945000Y-20511000D02*
X32082000Y-20511000D01*
X37747000Y-20551000D02*
X35905000Y-20551000D01*
X33945000Y-20551000D02*
X32103000Y-20551000D01*
X37725000Y-20591000D02*
X35905000Y-20591000D01*
X33945000Y-20591000D02*
X32125000Y-20591000D01*
X37703000Y-20631000D02*
X35905000Y-20631000D01*
X33945000Y-20631000D02*
X32147000Y-20631000D01*
X37680000Y-20671000D02*
X35905000Y-20671000D01*
X33945000Y-20671000D02*
X32170000Y-20671000D01*
X37656000Y-20711000D02*
X35905000Y-20711000D01*
X33945000Y-20711000D02*
X32194000Y-20711000D01*
X37631000Y-20751000D02*
X35905000Y-20751000D01*
X33945000Y-20751000D02*
X32219000Y-20751000D01*
X37606000Y-20791000D02*
X35905000Y-20791000D01*
X33945000Y-20791000D02*
X32244000Y-20791000D01*
X37579000Y-20831000D02*
X35905000Y-20831000D01*
X33945000Y-20831000D02*
X32271000Y-20831000D01*
X37552000Y-20871000D02*
X35905000Y-20871000D01*
X33945000Y-20871000D02*
X32298000Y-20871000D01*
X37524000Y-20911000D02*
X35905000Y-20911000D01*
X33945000Y-20911000D02*
X32326000Y-20911000D01*
X37495000Y-20951000D02*
X35905000Y-20951000D01*
X33945000Y-20951000D02*
X32355000Y-20951000D01*
X37465000Y-20991000D02*
X35905000Y-20991000D01*
X33945000Y-20991000D02*
X32385000Y-20991000D01*
X37435000Y-21031000D02*
X35905000Y-21031000D01*
X33945000Y-21031000D02*
X32415000Y-21031000D01*
X37403000Y-21071000D02*
X35905000Y-21071000D01*
X33945000Y-21071000D02*
X32447000Y-21071000D01*
X37370000Y-21111000D02*
X35905000Y-21111000D01*
X33945000Y-21111000D02*
X32480000Y-21111000D01*
X37336000Y-21151000D02*
X35905000Y-21151000D01*
X33945000Y-21151000D02*
X32514000Y-21151000D01*
X37300000Y-21191000D02*
X35905000Y-21191000D01*
X33945000Y-21191000D02*
X32550000Y-21191000D01*
X37264000Y-21231000D02*
X35905000Y-21231000D01*
X33945000Y-21231000D02*
X32586000Y-21231000D01*
X37226000Y-21271000D02*
X32624000Y-21271000D01*
X37187000Y-21311000D02*
X32663000Y-21311000D01*
X37147000Y-21351000D02*
X32703000Y-21351000D01*
X37105000Y-21391000D02*
X32745000Y-21391000D01*
X37062000Y-21431000D02*
X32788000Y-21431000D01*
X37017000Y-21471000D02*
X32833000Y-21471000D01*
X36970000Y-21511000D02*
X32880000Y-21511000D01*
X36922000Y-21551000D02*
X32928000Y-21551000D01*
X36871000Y-21591000D02*
X32979000Y-21591000D01*
X36819000Y-21631000D02*
X33031000Y-21631000D01*
X36764000Y-21671000D02*
X33086000Y-21671000D01*
X36706000Y-21711000D02*
X33144000Y-21711000D01*
X36646000Y-21751000D02*
X33204000Y-21751000D01*
X36583000Y-21791000D02*
X33267000Y-21791000D01*
X36516000Y-21831000D02*
X33334000Y-21831000D01*
X36445000Y-21871000D02*
X33405000Y-21871000D01*
X36370000Y-21911000D02*
X33480000Y-21911000D01*
X36289000Y-21951000D02*
X33561000Y-21951000D01*
X36203000Y-21991000D02*
X33647000Y-21991000D01*
X36109000Y-22031000D02*
X33741000Y-22031000D01*
X36006000Y-22071000D02*
X33844000Y-22071000D01*
X35891000Y-22111000D02*
X33959000Y-22111000D01*
X35759000Y-22151000D02*
X34091000Y-22151000D01*
X35601000Y-22191000D02*
X34249000Y-22191000D01*
X35393000Y-22231000D02*
X34457000Y-22231000D01*
X34925000Y-15580000D02*
X34925000Y-16780000D01*
X35575000Y-16180000D02*
X34275000Y-16180000D01*
X6078408Y-136532335D02*
G75*
G03X6235316Y-133300000I-1078608J1672335D01*
G01*
X3921192Y-136532335D02*
G75*
G02X3764284Y-133300000I1078608J1672335D01*
G01*
X6079637Y-135901130D02*
G75*
G03X6079800Y-133819039I-1079837J1041130D01*
G01*
X3919963Y-135901130D02*
G75*
G02X3919800Y-133819039I1079837J1041130D01*
G01*
X6235800Y-133300000D02*
X6079800Y-133300000D01*
X3919800Y-133300000D02*
X3763800Y-133300000D01*
X16672335Y-143921392D02*
G75*
G03X13440000Y-143764484I-1672335J-1078608D01*
G01*
X16672335Y-146078608D02*
G75*
G02X13440000Y-146235516I-1672335J1078608D01*
G01*
X16041130Y-143920163D02*
G75*
G03X13959039Y-143920000I-1041130J-1079837D01*
G01*
X16041130Y-146079837D02*
G75*
G02X13959039Y-146080000I-1041130J1079837D01*
G01*
X13440000Y-143764000D02*
X13440000Y-143920000D01*
X13440000Y-146080000D02*
X13440000Y-146236000D01*
X26672335Y-143921392D02*
G75*
G03X23440000Y-143764484I-1672335J-1078608D01*
G01*
X26672335Y-146078608D02*
G75*
G02X23440000Y-146235516I-1672335J1078608D01*
G01*
X26041130Y-143920163D02*
G75*
G03X23959039Y-143920000I-1041130J-1079837D01*
G01*
X26041130Y-146079837D02*
G75*
G02X23959039Y-146080000I-1041130J1079837D01*
G01*
X23440000Y-143764000D02*
X23440000Y-143920000D01*
X23440000Y-146080000D02*
X23440000Y-146236000D01*
X21672335Y-143921392D02*
G75*
G03X18440000Y-143764484I-1672335J-1078608D01*
G01*
X21672335Y-146078608D02*
G75*
G02X18440000Y-146235516I-1672335J1078608D01*
G01*
X21041130Y-143920163D02*
G75*
G03X18959039Y-143920000I-1041130J-1079837D01*
G01*
X21041130Y-146079837D02*
G75*
G02X18959039Y-146080000I-1041130J1079837D01*
G01*
X18440000Y-143764000D02*
X18440000Y-143920000D01*
X18440000Y-146080000D02*
X18440000Y-146236000D01*
X53815000Y-89065000D02*
X53815000Y-92585000D01*
X51595000Y-89065000D02*
X51595000Y-92585000D01*
X53815000Y-89065000D02*
X53701000Y-89065000D01*
X51709000Y-89065000D02*
X51595000Y-89065000D01*
X53815000Y-92585000D02*
X53701000Y-92585000D01*
X51709000Y-92585000D02*
X51595000Y-92585000D01*
X51275000Y-18540000D02*
X51275000Y-22060000D01*
X49055000Y-18540000D02*
X49055000Y-22060000D01*
X51275000Y-18540000D02*
X51161000Y-18540000D01*
X49169000Y-18540000D02*
X49055000Y-18540000D01*
X51275000Y-22060000D02*
X51161000Y-22060000D01*
X49169000Y-22060000D02*
X49055000Y-22060000D01*
X77260000Y-20800000D02*
X75140000Y-20800000D01*
X75140000Y-20800000D02*
X75140000Y-24920000D01*
X75140000Y-24920000D02*
X77260000Y-24920000D01*
X77260000Y-24920000D02*
X77260000Y-20800000D01*
X76200000Y-18760000D02*
X76200000Y-20800000D01*
X76200000Y-26960000D02*
X76200000Y-24920000D01*
X77260000Y-21460000D02*
X75140000Y-21460000D01*
X12700000Y-126020000D02*
X12700000Y-125130000D01*
X12700000Y-117820000D02*
X12700000Y-118710000D01*
X14010000Y-125130000D02*
X14010000Y-118710000D01*
X11390000Y-125130000D02*
X14010000Y-125130000D01*
X11390000Y-118710000D02*
X11390000Y-125130000D01*
X14010000Y-118710000D02*
X11390000Y-118710000D01*
X76200000Y-34635000D02*
X76200000Y-35525000D01*
X76200000Y-42835000D02*
X76200000Y-41945000D01*
X74890000Y-35525000D02*
X74890000Y-41945000D01*
X77510000Y-35525000D02*
X74890000Y-35525000D01*
X77510000Y-41945000D02*
X77510000Y-35525000D01*
X74890000Y-41945000D02*
X77510000Y-41945000D01*
X1980000Y-77640000D02*
X7980000Y-77640000D01*
X7980000Y-77640000D02*
X7980000Y-72360000D01*
X7980000Y-72360000D02*
X1980000Y-72360000D01*
X1980000Y-72360000D02*
X1980000Y-77640000D01*
X7980000Y-76270000D02*
X6980000Y-76270000D01*
X6980000Y-76270000D02*
X6980000Y-73730000D01*
X6980000Y-73730000D02*
X7980000Y-73730000D01*
X6980000Y-76270000D02*
X6550000Y-76020000D01*
X6550000Y-76020000D02*
X6550000Y-73980000D01*
X6550000Y-73980000D02*
X6980000Y-73730000D01*
X7980000Y-76020000D02*
X6980000Y-76020000D01*
X7980000Y-73980000D02*
X6980000Y-73980000D01*
X1980000Y-77070000D02*
X2600000Y-77070000D01*
X2600000Y-77070000D02*
X2600000Y-75470000D01*
X2600000Y-75470000D02*
X1980000Y-75470000D01*
X1980000Y-74530000D02*
X2600000Y-74530000D01*
X2600000Y-74530000D02*
X2600000Y-72930000D01*
X2600000Y-72930000D02*
X1980000Y-72930000D01*
X52010000Y-66965000D02*
X52010000Y-68215000D01*
X72450000Y-66965000D02*
X52010000Y-66965000D01*
X72450000Y-71465000D02*
X72450000Y-66965000D01*
X52010000Y-71465000D02*
X72450000Y-71465000D01*
X52010000Y-70215000D02*
X52010000Y-71465000D01*
X52010000Y-68215000D02*
G75*
G02X52010000Y-70215000I0J-1000000D01*
G01*
X52010000Y-51725000D02*
X52010000Y-52975000D01*
X72450000Y-51725000D02*
X52010000Y-51725000D01*
X72450000Y-56225000D02*
X72450000Y-51725000D01*
X52010000Y-56225000D02*
X72450000Y-56225000D01*
X52010000Y-54975000D02*
X52010000Y-56225000D01*
X52010000Y-52975000D02*
G75*
G02X52010000Y-54975000I0J-1000000D01*
G01*
X54550000Y-105045000D02*
G75*
G02X54550000Y-107045000I0J-1000000D01*
G01*
X54550000Y-107045000D02*
X54550000Y-108295000D01*
X54550000Y-108295000D02*
X72450000Y-108295000D01*
X72450000Y-108295000D02*
X72450000Y-103795000D01*
X72450000Y-103795000D02*
X54550000Y-103795000D01*
X54550000Y-103795000D02*
X54550000Y-105045000D01*
X54550000Y-92345000D02*
G75*
G02X54550000Y-94345000I0J-1000000D01*
G01*
X54550000Y-94345000D02*
X54550000Y-95595000D01*
X54550000Y-95595000D02*
X72450000Y-95595000D01*
X72450000Y-95595000D02*
X72450000Y-91095000D01*
X72450000Y-91095000D02*
X54550000Y-91095000D01*
X54550000Y-91095000D02*
X54550000Y-92345000D01*
X52010000Y-36465000D02*
G75*
G02X52010000Y-38465000I0J-1000000D01*
G01*
X52010000Y-38465000D02*
X52010000Y-39715000D01*
X52010000Y-39715000D02*
X69910000Y-39715000D01*
X69910000Y-39715000D02*
X69910000Y-35215000D01*
X69910000Y-35215000D02*
X52010000Y-35215000D01*
X52010000Y-35215000D02*
X52010000Y-36465000D01*
X27880000Y-120920000D02*
G75*
G02X27880000Y-122920000I0J-1000000D01*
G01*
X27880000Y-122920000D02*
X27880000Y-124170000D01*
X27880000Y-124170000D02*
X45780000Y-124170000D01*
X45780000Y-124170000D02*
X45780000Y-119670000D01*
X45780000Y-119670000D02*
X27880000Y-119670000D01*
X27880000Y-119670000D02*
X27880000Y-120920000D01*
X12005000Y-32655000D02*
G75*
G02X12005000Y-34655000I0J-1000000D01*
G01*
X12005000Y-34655000D02*
X12005000Y-39715000D01*
X12005000Y-39715000D02*
X42605000Y-39715000D01*
X42605000Y-39715000D02*
X42605000Y-27595000D01*
X42605000Y-27595000D02*
X12005000Y-27595000D01*
X12005000Y-27595000D02*
X12005000Y-32655000D01*
X12005000Y-64405000D02*
G75*
G02X12005000Y-66405000I0J-1000000D01*
G01*
X12005000Y-66405000D02*
X12005000Y-71465000D01*
X12005000Y-71465000D02*
X42605000Y-71465000D01*
X42605000Y-71465000D02*
X42605000Y-59345000D01*
X42605000Y-59345000D02*
X12005000Y-59345000D01*
X12005000Y-59345000D02*
X12005000Y-64405000D01*
X12005000Y-96155000D02*
G75*
G02X12005000Y-98155000I0J-1000000D01*
G01*
X12005000Y-98155000D02*
X12005000Y-103215000D01*
X12005000Y-103215000D02*
X42605000Y-103215000D01*
X42605000Y-103215000D02*
X42605000Y-91095000D01*
X42605000Y-91095000D02*
X12005000Y-91095000D01*
X12005000Y-91095000D02*
X12005000Y-96155000D01*
X71120000Y-126020000D02*
X71120000Y-125130000D01*
X71120000Y-117820000D02*
X71120000Y-118710000D01*
X72430000Y-125130000D02*
X72430000Y-118710000D01*
X69810000Y-125130000D02*
X72430000Y-125130000D01*
X69810000Y-118710000D02*
X69810000Y-125130000D01*
X72430000Y-118710000D02*
X69810000Y-118710000D01*
X7620000Y-126020000D02*
X7620000Y-125130000D01*
X7620000Y-117820000D02*
X7620000Y-118710000D01*
X8930000Y-125130000D02*
X8930000Y-118710000D01*
X6310000Y-125130000D02*
X8930000Y-125130000D01*
X6310000Y-118710000D02*
X6310000Y-125130000D01*
X8930000Y-118710000D02*
X6310000Y-118710000D01*
X71120000Y-18760000D02*
X71120000Y-19650000D01*
X71120000Y-26960000D02*
X71120000Y-26070000D01*
X69810000Y-19650000D02*
X69810000Y-26070000D01*
X72430000Y-19650000D02*
X69810000Y-19650000D01*
X72430000Y-26070000D02*
X72430000Y-19650000D01*
X69810000Y-26070000D02*
X72430000Y-26070000D01*
X66675000Y-126020000D02*
X66675000Y-125130000D01*
X66675000Y-117820000D02*
X66675000Y-118710000D01*
X67985000Y-125130000D02*
X67985000Y-118710000D01*
X65365000Y-125130000D02*
X67985000Y-125130000D01*
X65365000Y-118710000D02*
X65365000Y-125130000D01*
X67985000Y-118710000D02*
X65365000Y-118710000D01*
X57785000Y-126020000D02*
X57785000Y-125130000D01*
X57785000Y-117820000D02*
X57785000Y-118710000D01*
X59095000Y-125130000D02*
X59095000Y-118710000D01*
X56475000Y-125130000D02*
X59095000Y-125130000D01*
X56475000Y-118710000D02*
X56475000Y-125130000D01*
X59095000Y-118710000D02*
X56475000Y-118710000D01*
X62230000Y-126020000D02*
X62230000Y-125130000D01*
X62230000Y-117820000D02*
X62230000Y-118710000D01*
X63540000Y-125130000D02*
X63540000Y-118710000D01*
X60920000Y-125130000D02*
X63540000Y-125130000D01*
X60920000Y-118710000D02*
X60920000Y-125130000D01*
X63540000Y-118710000D02*
X60920000Y-118710000D01*
X48895000Y-126020000D02*
X48895000Y-125130000D01*
X48895000Y-117820000D02*
X48895000Y-118710000D01*
X50205000Y-125130000D02*
X50205000Y-118710000D01*
X47585000Y-125130000D02*
X50205000Y-125130000D01*
X47585000Y-118710000D02*
X47585000Y-125130000D01*
X50205000Y-118710000D02*
X47585000Y-118710000D01*
X53340000Y-126020000D02*
X53340000Y-125130000D01*
X53340000Y-117820000D02*
X53340000Y-118710000D01*
X54650000Y-125130000D02*
X54650000Y-118710000D01*
X52030000Y-125130000D02*
X54650000Y-125130000D01*
X52030000Y-118710000D02*
X52030000Y-125130000D01*
X54650000Y-118710000D02*
X52030000Y-118710000D01*
X66040000Y-18760000D02*
X66040000Y-19650000D01*
X66040000Y-26960000D02*
X66040000Y-26070000D01*
X64730000Y-19650000D02*
X64730000Y-26070000D01*
X67350000Y-19650000D02*
X64730000Y-19650000D01*
X67350000Y-26070000D02*
X67350000Y-19650000D01*
X64730000Y-26070000D02*
X67350000Y-26070000D01*
X21590000Y-126020000D02*
X21590000Y-125130000D01*
X21590000Y-117820000D02*
X21590000Y-118710000D01*
X22900000Y-125130000D02*
X22900000Y-118710000D01*
X20280000Y-125130000D02*
X22900000Y-125130000D01*
X20280000Y-118710000D02*
X20280000Y-125130000D01*
X22900000Y-118710000D02*
X20280000Y-118710000D01*
X17145000Y-126020000D02*
X17145000Y-125130000D01*
X17145000Y-117820000D02*
X17145000Y-118710000D01*
X18455000Y-125130000D02*
X18455000Y-118710000D01*
X15835000Y-125130000D02*
X18455000Y-125130000D01*
X15835000Y-118710000D02*
X15835000Y-125130000D01*
X18455000Y-118710000D02*
X15835000Y-118710000D01*
X52010000Y-20610000D02*
X52010000Y-21860000D01*
X62290000Y-20610000D02*
X52010000Y-20610000D01*
X62290000Y-25110000D02*
X62290000Y-20610000D01*
X52010000Y-25110000D02*
X62290000Y-25110000D01*
X52010000Y-23860000D02*
X52010000Y-25110000D01*
X52010000Y-21860000D02*
G75*
G02X52010000Y-23860000I0J-1000000D01*
G01*
X71280000Y-36705000D02*
X71280000Y-33185000D01*
X73500000Y-36705000D02*
X73500000Y-33185000D01*
X71280000Y-36705000D02*
X71394000Y-36705000D01*
X73386000Y-36705000D02*
X73500000Y-36705000D01*
X71280000Y-33185000D02*
X71394000Y-33185000D01*
X73386000Y-33185000D02*
X73500000Y-33185000D01*
X8725000Y-93820000D02*
X5205000Y-93820000D01*
X8725000Y-91600000D02*
X5205000Y-91600000D01*
X8725000Y-93820000D02*
X8725000Y-93706000D01*
X8725000Y-91714000D02*
X8725000Y-91600000D01*
X5205000Y-93820000D02*
X5205000Y-93706000D01*
X5205000Y-91714000D02*
X5205000Y-91600000D01*
X44994136Y-22047820D02*
G75*
G03X44995000Y-16012518I-1179136J3017820D01*
G01*
X42635864Y-22047820D02*
G75*
G02X42635000Y-16012518I1179136J3017820D01*
G01*
X42635864Y-22047820D02*
G75*
G03X44995000Y-22047482I1179136J3017820D01*
G01*
X47015000Y-19030000D02*
X40615000Y-19030000D01*
X47015000Y-19070000D02*
X40615000Y-19070000D01*
X47015000Y-19110000D02*
X40615000Y-19110000D01*
X47013000Y-19150000D02*
X40617000Y-19150000D01*
X47012000Y-19190000D02*
X40618000Y-19190000D01*
X47009000Y-19230000D02*
X40621000Y-19230000D01*
X47007000Y-19270000D02*
X40623000Y-19270000D01*
X47003000Y-19310000D02*
X44795000Y-19310000D01*
X42835000Y-19310000D02*
X40627000Y-19310000D01*
X47000000Y-19350000D02*
X44795000Y-19350000D01*
X42835000Y-19350000D02*
X40630000Y-19350000D01*
X46995000Y-19390000D02*
X44795000Y-19390000D01*
X42835000Y-19390000D02*
X40635000Y-19390000D01*
X46991000Y-19430000D02*
X44795000Y-19430000D01*
X42835000Y-19430000D02*
X40639000Y-19430000D01*
X46985000Y-19470000D02*
X44795000Y-19470000D01*
X42835000Y-19470000D02*
X40645000Y-19470000D01*
X46980000Y-19510000D02*
X44795000Y-19510000D01*
X42835000Y-19510000D02*
X40650000Y-19510000D01*
X46973000Y-19550000D02*
X44795000Y-19550000D01*
X42835000Y-19550000D02*
X40657000Y-19550000D01*
X46967000Y-19590000D02*
X44795000Y-19590000D01*
X42835000Y-19590000D02*
X40663000Y-19590000D01*
X46959000Y-19630000D02*
X44795000Y-19630000D01*
X42835000Y-19630000D02*
X40671000Y-19630000D01*
X46952000Y-19670000D02*
X44795000Y-19670000D01*
X42835000Y-19670000D02*
X40678000Y-19670000D01*
X46943000Y-19710000D02*
X44795000Y-19710000D01*
X42835000Y-19710000D02*
X40687000Y-19710000D01*
X46934000Y-19751000D02*
X44795000Y-19751000D01*
X42835000Y-19751000D02*
X40696000Y-19751000D01*
X46925000Y-19791000D02*
X44795000Y-19791000D01*
X42835000Y-19791000D02*
X40705000Y-19791000D01*
X46915000Y-19831000D02*
X44795000Y-19831000D01*
X42835000Y-19831000D02*
X40715000Y-19831000D01*
X46905000Y-19871000D02*
X44795000Y-19871000D01*
X42835000Y-19871000D02*
X40725000Y-19871000D01*
X46894000Y-19911000D02*
X44795000Y-19911000D01*
X42835000Y-19911000D02*
X40736000Y-19911000D01*
X46882000Y-19951000D02*
X44795000Y-19951000D01*
X42835000Y-19951000D02*
X40748000Y-19951000D01*
X46870000Y-19991000D02*
X44795000Y-19991000D01*
X42835000Y-19991000D02*
X40760000Y-19991000D01*
X46857000Y-20031000D02*
X44795000Y-20031000D01*
X42835000Y-20031000D02*
X40773000Y-20031000D01*
X46844000Y-20071000D02*
X44795000Y-20071000D01*
X42835000Y-20071000D02*
X40786000Y-20071000D01*
X46830000Y-20111000D02*
X44795000Y-20111000D01*
X42835000Y-20111000D02*
X40800000Y-20111000D01*
X46816000Y-20151000D02*
X44795000Y-20151000D01*
X42835000Y-20151000D02*
X40814000Y-20151000D01*
X46801000Y-20191000D02*
X44795000Y-20191000D01*
X42835000Y-20191000D02*
X40829000Y-20191000D01*
X46785000Y-20231000D02*
X44795000Y-20231000D01*
X42835000Y-20231000D02*
X40845000Y-20231000D01*
X46769000Y-20271000D02*
X44795000Y-20271000D01*
X42835000Y-20271000D02*
X40861000Y-20271000D01*
X46752000Y-20311000D02*
X44795000Y-20311000D01*
X42835000Y-20311000D02*
X40878000Y-20311000D01*
X46734000Y-20351000D02*
X44795000Y-20351000D01*
X42835000Y-20351000D02*
X40896000Y-20351000D01*
X46716000Y-20391000D02*
X44795000Y-20391000D01*
X42835000Y-20391000D02*
X40914000Y-20391000D01*
X46697000Y-20431000D02*
X44795000Y-20431000D01*
X42835000Y-20431000D02*
X40933000Y-20431000D01*
X46678000Y-20471000D02*
X44795000Y-20471000D01*
X42835000Y-20471000D02*
X40952000Y-20471000D01*
X46658000Y-20511000D02*
X44795000Y-20511000D01*
X42835000Y-20511000D02*
X40972000Y-20511000D01*
X46637000Y-20551000D02*
X44795000Y-20551000D01*
X42835000Y-20551000D02*
X40993000Y-20551000D01*
X46615000Y-20591000D02*
X44795000Y-20591000D01*
X42835000Y-20591000D02*
X41015000Y-20591000D01*
X46593000Y-20631000D02*
X44795000Y-20631000D01*
X42835000Y-20631000D02*
X41037000Y-20631000D01*
X46570000Y-20671000D02*
X44795000Y-20671000D01*
X42835000Y-20671000D02*
X41060000Y-20671000D01*
X46546000Y-20711000D02*
X44795000Y-20711000D01*
X42835000Y-20711000D02*
X41084000Y-20711000D01*
X46521000Y-20751000D02*
X44795000Y-20751000D01*
X42835000Y-20751000D02*
X41109000Y-20751000D01*
X46496000Y-20791000D02*
X44795000Y-20791000D01*
X42835000Y-20791000D02*
X41134000Y-20791000D01*
X46469000Y-20831000D02*
X44795000Y-20831000D01*
X42835000Y-20831000D02*
X41161000Y-20831000D01*
X46442000Y-20871000D02*
X44795000Y-20871000D01*
X42835000Y-20871000D02*
X41188000Y-20871000D01*
X46414000Y-20911000D02*
X44795000Y-20911000D01*
X42835000Y-20911000D02*
X41216000Y-20911000D01*
X46385000Y-20951000D02*
X44795000Y-20951000D01*
X42835000Y-20951000D02*
X41245000Y-20951000D01*
X46355000Y-20991000D02*
X44795000Y-20991000D01*
X42835000Y-20991000D02*
X41275000Y-20991000D01*
X46325000Y-21031000D02*
X44795000Y-21031000D01*
X42835000Y-21031000D02*
X41305000Y-21031000D01*
X46293000Y-21071000D02*
X44795000Y-21071000D01*
X42835000Y-21071000D02*
X41337000Y-21071000D01*
X46260000Y-21111000D02*
X44795000Y-21111000D01*
X42835000Y-21111000D02*
X41370000Y-21111000D01*
X46226000Y-21151000D02*
X44795000Y-21151000D01*
X42835000Y-21151000D02*
X41404000Y-21151000D01*
X46190000Y-21191000D02*
X44795000Y-21191000D01*
X42835000Y-21191000D02*
X41440000Y-21191000D01*
X46154000Y-21231000D02*
X44795000Y-21231000D01*
X42835000Y-21231000D02*
X41476000Y-21231000D01*
X46116000Y-21271000D02*
X41514000Y-21271000D01*
X46077000Y-21311000D02*
X41553000Y-21311000D01*
X46037000Y-21351000D02*
X41593000Y-21351000D01*
X45995000Y-21391000D02*
X41635000Y-21391000D01*
X45952000Y-21431000D02*
X41678000Y-21431000D01*
X45907000Y-21471000D02*
X41723000Y-21471000D01*
X45860000Y-21511000D02*
X41770000Y-21511000D01*
X45812000Y-21551000D02*
X41818000Y-21551000D01*
X45761000Y-21591000D02*
X41869000Y-21591000D01*
X45709000Y-21631000D02*
X41921000Y-21631000D01*
X45654000Y-21671000D02*
X41976000Y-21671000D01*
X45596000Y-21711000D02*
X42034000Y-21711000D01*
X45536000Y-21751000D02*
X42094000Y-21751000D01*
X45473000Y-21791000D02*
X42157000Y-21791000D01*
X45406000Y-21831000D02*
X42224000Y-21831000D01*
X45335000Y-21871000D02*
X42295000Y-21871000D01*
X45260000Y-21911000D02*
X42370000Y-21911000D01*
X45179000Y-21951000D02*
X42451000Y-21951000D01*
X45093000Y-21991000D02*
X42537000Y-21991000D01*
X44999000Y-22031000D02*
X42631000Y-22031000D01*
X44896000Y-22071000D02*
X42734000Y-22071000D01*
X44781000Y-22111000D02*
X42849000Y-22111000D01*
X44649000Y-22151000D02*
X42981000Y-22151000D01*
X44491000Y-22191000D02*
X43139000Y-22191000D01*
X44283000Y-22231000D02*
X43347000Y-22231000D01*
X43815000Y-15580000D02*
X43815000Y-16780000D01*
X44465000Y-16180000D02*
X43165000Y-16180000D01*
X89675000Y-49330000D02*
X89675000Y-100670000D01*
X89675000Y-100670000D02*
X80325000Y-100670000D01*
X80325000Y-100670000D02*
X80325000Y-49330000D01*
X80325000Y-49330000D02*
X89675000Y-49330000D01*
X80075000Y-49080000D02*
X80075000Y-51620000D01*
X80075000Y-49080000D02*
X82615000Y-49080000D01*
X92460000Y-53410000D02*
X92460000Y-54680000D01*
X93730000Y-53410000D02*
X92460000Y-53410000D01*
X107210000Y-49330000D02*
X107210000Y-100670000D01*
X97860000Y-49330000D02*
X107210000Y-49330000D01*
X97860000Y-72750000D02*
X107210000Y-72750000D01*
X97860000Y-77250000D02*
X107210000Y-77250000D01*
X97860000Y-100670000D02*
X107210000Y-100670000D01*
X97860000Y-100670000D02*
X97860000Y-49330000D01*
X43975000Y-105285000D02*
X43975000Y-101765000D01*
X46195000Y-105285000D02*
X46195000Y-101765000D01*
X43975000Y-105285000D02*
X44089000Y-105285000D01*
X46081000Y-105285000D02*
X46195000Y-105285000D01*
X43975000Y-101765000D02*
X44089000Y-101765000D01*
X46081000Y-101765000D02*
X46195000Y-101765000D01*
X43975000Y-73535000D02*
X43975000Y-70015000D01*
X46195000Y-73535000D02*
X46195000Y-70015000D01*
X43975000Y-73535000D02*
X44089000Y-73535000D01*
X46081000Y-73535000D02*
X46195000Y-73535000D01*
X43975000Y-70015000D02*
X44089000Y-70015000D01*
X46081000Y-70015000D02*
X46195000Y-70015000D01*
X26510000Y-117640000D02*
X26510000Y-121160000D01*
X24290000Y-117640000D02*
X24290000Y-121160000D01*
X26510000Y-117640000D02*
X26396000Y-117640000D01*
X24404000Y-117640000D02*
X24290000Y-117640000D01*
X26510000Y-121160000D02*
X26396000Y-121160000D01*
X24404000Y-121160000D02*
X24290000Y-121160000D01*
X43975000Y-41785000D02*
X43975000Y-38265000D01*
X46195000Y-41785000D02*
X46195000Y-38265000D01*
X43975000Y-41785000D02*
X44089000Y-41785000D01*
X46081000Y-41785000D02*
X46195000Y-41785000D01*
X43975000Y-38265000D02*
X44089000Y-38265000D01*
X46081000Y-38265000D02*
X46195000Y-38265000D01*
X51275000Y-54775000D02*
X51275000Y-58295000D01*
X49055000Y-54775000D02*
X49055000Y-58295000D01*
X51275000Y-54775000D02*
X51161000Y-54775000D01*
X49169000Y-54775000D02*
X49055000Y-54775000D01*
X51275000Y-58295000D02*
X51161000Y-58295000D01*
X49169000Y-58295000D02*
X49055000Y-58295000D01*
D13*
X4311666Y-90598571D02*
X4273571Y-90655714D01*
X4159285Y-90712857D01*
X4083095Y-90712857D01*
X3968809Y-90655714D01*
X3892619Y-90541428D01*
X3854523Y-90427142D01*
X3816428Y-90198571D01*
X3816428Y-90027142D01*
X3854523Y-89798571D01*
X3892619Y-89684285D01*
X3968809Y-89570000D01*
X4083095Y-89512857D01*
X4159285Y-89512857D01*
X4273571Y-89570000D01*
X4311666Y-89627142D01*
X4616428Y-89627142D02*
X4654523Y-89570000D01*
X4730714Y-89512857D01*
X4921190Y-89512857D01*
X4997380Y-89570000D01*
X5035476Y-89627142D01*
X5073571Y-89741428D01*
X5073571Y-89855714D01*
X5035476Y-90027142D01*
X4578333Y-90712857D01*
X5073571Y-90712857D01*
X7956666Y-89912857D02*
X7956666Y-90712857D01*
X7766190Y-89455714D02*
X7575714Y-90312857D01*
X8070952Y-90312857D01*
X8299523Y-89512857D02*
X8832857Y-89512857D01*
X8490000Y-90712857D01*
X9480476Y-89912857D02*
X9480476Y-90712857D01*
X9137619Y-89912857D02*
X9137619Y-90541428D01*
X9175714Y-90655714D01*
X9251904Y-90712857D01*
X9366190Y-90712857D01*
X9442380Y-90655714D01*
X9480476Y-90598571D01*
X10128095Y-90084285D02*
X9861428Y-90084285D01*
X9861428Y-90712857D02*
X9861428Y-89512857D01*
X10242380Y-89512857D01*
D10*
X38142857Y-128718571D02*
X38333333Y-128718571D01*
X38428571Y-128790000D01*
X38523809Y-128932857D01*
X38571428Y-129218571D01*
X38571428Y-129718571D01*
X38523809Y-130004285D01*
X38428571Y-130147142D01*
X38333333Y-130218571D01*
X38142857Y-130218571D01*
X38047619Y-130147142D01*
X37952380Y-130004285D01*
X37904761Y-129718571D01*
X37904761Y-129218571D01*
X37952380Y-128932857D01*
X38047619Y-128790000D01*
X38142857Y-128718571D01*
X39000000Y-128718571D02*
X39000000Y-129932857D01*
X39047619Y-130075714D01*
X39095238Y-130147142D01*
X39190476Y-130218571D01*
X39380952Y-130218571D01*
X39476190Y-130147142D01*
X39523809Y-130075714D01*
X39571428Y-129932857D01*
X39571428Y-128718571D01*
X39904761Y-128718571D02*
X40476190Y-128718571D01*
X40190476Y-130218571D02*
X40190476Y-128718571D01*
X42095238Y-130218571D02*
X41523809Y-130218571D01*
X41809523Y-130218571D02*
X41809523Y-128718571D01*
X41714285Y-128932857D01*
X41619047Y-129075714D01*
X41523809Y-129147142D01*
X92186190Y-37508571D02*
X92186190Y-36008571D01*
X92662380Y-37508571D02*
X92662380Y-36008571D01*
X93233809Y-37508571D01*
X93233809Y-36008571D01*
X78142857Y-128718571D02*
X78333333Y-128718571D01*
X78428571Y-128790000D01*
X78523809Y-128932857D01*
X78571428Y-129218571D01*
X78571428Y-129718571D01*
X78523809Y-130004285D01*
X78428571Y-130147142D01*
X78333333Y-130218571D01*
X78142857Y-130218571D01*
X78047619Y-130147142D01*
X77952380Y-130004285D01*
X77904761Y-129718571D01*
X77904761Y-129218571D01*
X77952380Y-128932857D01*
X78047619Y-128790000D01*
X78142857Y-128718571D01*
X79000000Y-128718571D02*
X79000000Y-129932857D01*
X79047619Y-130075714D01*
X79095238Y-130147142D01*
X79190476Y-130218571D01*
X79380952Y-130218571D01*
X79476190Y-130147142D01*
X79523809Y-130075714D01*
X79571428Y-129932857D01*
X79571428Y-128718571D01*
X79904761Y-128718571D02*
X80476190Y-128718571D01*
X80190476Y-130218571D02*
X80190476Y-128718571D01*
X81476190Y-128718571D02*
X82095238Y-128718571D01*
X81761904Y-129290000D01*
X81904761Y-129290000D01*
X82000000Y-129361428D01*
X82047619Y-129432857D01*
X82095238Y-129575714D01*
X82095238Y-129932857D01*
X82047619Y-130075714D01*
X82000000Y-130147142D01*
X81904761Y-130218571D01*
X81619047Y-130218571D01*
X81523809Y-130147142D01*
X81476190Y-130075714D01*
X58142857Y-128718571D02*
X58333333Y-128718571D01*
X58428571Y-128790000D01*
X58523809Y-128932857D01*
X58571428Y-129218571D01*
X58571428Y-129718571D01*
X58523809Y-130004285D01*
X58428571Y-130147142D01*
X58333333Y-130218571D01*
X58142857Y-130218571D01*
X58047619Y-130147142D01*
X57952380Y-130004285D01*
X57904761Y-129718571D01*
X57904761Y-129218571D01*
X57952380Y-128932857D01*
X58047619Y-128790000D01*
X58142857Y-128718571D01*
X59000000Y-128718571D02*
X59000000Y-129932857D01*
X59047619Y-130075714D01*
X59095238Y-130147142D01*
X59190476Y-130218571D01*
X59380952Y-130218571D01*
X59476190Y-130147142D01*
X59523809Y-130075714D01*
X59571428Y-129932857D01*
X59571428Y-128718571D01*
X59904761Y-128718571D02*
X60476190Y-128718571D01*
X60190476Y-130218571D02*
X60190476Y-128718571D01*
X61523809Y-128861428D02*
X61571428Y-128790000D01*
X61666666Y-128718571D01*
X61904761Y-128718571D01*
X62000000Y-128790000D01*
X62047619Y-128861428D01*
X62095238Y-129004285D01*
X62095238Y-129147142D01*
X62047619Y-129361428D01*
X61476190Y-130218571D01*
X62095238Y-130218571D01*
D13*
X41092619Y-5087380D02*
X41092619Y-4087380D01*
X42140238Y-4992142D02*
X42092619Y-5039761D01*
X41949761Y-5087380D01*
X41854523Y-5087380D01*
X41711666Y-5039761D01*
X41616428Y-4944523D01*
X41568809Y-4849285D01*
X41521190Y-4658809D01*
X41521190Y-4515952D01*
X41568809Y-4325476D01*
X41616428Y-4230238D01*
X41711666Y-4135000D01*
X41854523Y-4087380D01*
X41949761Y-4087380D01*
X42092619Y-4135000D01*
X42140238Y-4182619D01*
X43092619Y-5087380D02*
X42521190Y-5087380D01*
X42806904Y-5087380D02*
X42806904Y-4087380D01*
X42711666Y-4230238D01*
X42616428Y-4325476D01*
X42521190Y-4373095D01*
X44045000Y-5087380D02*
X43473571Y-5087380D01*
X43759285Y-5087380D02*
X43759285Y-4087380D01*
X43664047Y-4230238D01*
X43568809Y-4325476D01*
X43473571Y-4373095D01*
X17676904Y-20642380D02*
X17676904Y-19642380D01*
X17915000Y-19642380D01*
X18057857Y-19690000D01*
X18153095Y-19785238D01*
X18200714Y-19880476D01*
X18248333Y-20070952D01*
X18248333Y-20213809D01*
X18200714Y-20404285D01*
X18153095Y-20499523D01*
X18057857Y-20594761D01*
X17915000Y-20642380D01*
X17676904Y-20642380D01*
X19105476Y-19642380D02*
X18915000Y-19642380D01*
X18819761Y-19690000D01*
X18772142Y-19737619D01*
X18676904Y-19880476D01*
X18629285Y-20070952D01*
X18629285Y-20451904D01*
X18676904Y-20547142D01*
X18724523Y-20594761D01*
X18819761Y-20642380D01*
X19010238Y-20642380D01*
X19105476Y-20594761D01*
X19153095Y-20547142D01*
X19200714Y-20451904D01*
X19200714Y-20213809D01*
X19153095Y-20118571D01*
X19105476Y-20070952D01*
X19010238Y-20023333D01*
X18819761Y-20023333D01*
X18724523Y-20070952D01*
X18676904Y-20118571D01*
X18629285Y-20213809D01*
X75431666Y-113572857D02*
X75165000Y-113001428D01*
X74974523Y-113572857D02*
X74974523Y-112372857D01*
X75279285Y-112372857D01*
X75355476Y-112430000D01*
X75393571Y-112487142D01*
X75431666Y-112601428D01*
X75431666Y-112772857D01*
X75393571Y-112887142D01*
X75355476Y-112944285D01*
X75279285Y-113001428D01*
X74974523Y-113001428D01*
X75698333Y-112372857D02*
X76231666Y-112372857D01*
X75888809Y-113572857D01*
X74907857Y-107073571D02*
X74907857Y-106578333D01*
X75365000Y-106845000D01*
X75365000Y-106730714D01*
X75422142Y-106654523D01*
X75479285Y-106616428D01*
X75593571Y-106578333D01*
X75879285Y-106578333D01*
X75993571Y-106616428D01*
X76050714Y-106654523D01*
X76107857Y-106730714D01*
X76107857Y-106959285D01*
X76050714Y-107035476D01*
X75993571Y-107073571D01*
X74907857Y-106311666D02*
X74907857Y-105816428D01*
X75365000Y-106083095D01*
X75365000Y-105968809D01*
X75422142Y-105892619D01*
X75479285Y-105854523D01*
X75593571Y-105816428D01*
X75879285Y-105816428D01*
X75993571Y-105854523D01*
X76050714Y-105892619D01*
X76107857Y-105968809D01*
X76107857Y-106197380D01*
X76050714Y-106273571D01*
X75993571Y-106311666D01*
X74907857Y-105321190D02*
X74907857Y-105245000D01*
X74965000Y-105168809D01*
X75022142Y-105130714D01*
X75136428Y-105092619D01*
X75365000Y-105054523D01*
X75650714Y-105054523D01*
X75879285Y-105092619D01*
X75993571Y-105130714D01*
X76050714Y-105168809D01*
X76107857Y-105245000D01*
X76107857Y-105321190D01*
X76050714Y-105397380D01*
X75993571Y-105435476D01*
X75879285Y-105473571D01*
X75650714Y-105511666D01*
X75365000Y-105511666D01*
X75136428Y-105473571D01*
X75022142Y-105435476D01*
X74965000Y-105397380D01*
X74907857Y-105321190D01*
X1937142Y-24201428D02*
X2699047Y-24201428D01*
X2318095Y-24582380D02*
X2318095Y-23820476D01*
X3699047Y-24582380D02*
X3127619Y-24582380D01*
X3413333Y-24582380D02*
X3413333Y-23582380D01*
X3318095Y-23725238D01*
X3222857Y-23820476D01*
X3127619Y-23868095D01*
X4079999Y-23677619D02*
X4127619Y-23630000D01*
X4222857Y-23582380D01*
X4460952Y-23582380D01*
X4556190Y-23630000D01*
X4603809Y-23677619D01*
X4651428Y-23772857D01*
X4651428Y-23868095D01*
X4603809Y-24010952D01*
X4032380Y-24582380D01*
X4651428Y-24582380D01*
X4937142Y-23582380D02*
X5270476Y-24582380D01*
X5603809Y-23582380D01*
X6699047Y-24582380D02*
X6699047Y-23582380D01*
X6937142Y-23582380D01*
X7080000Y-23630000D01*
X7175238Y-23725238D01*
X7222857Y-23820476D01*
X7270476Y-24010952D01*
X7270476Y-24153809D01*
X7222857Y-24344285D01*
X7175238Y-24439523D01*
X7080000Y-24534761D01*
X6937142Y-24582380D01*
X6699047Y-24582380D01*
X8270476Y-24487142D02*
X8222857Y-24534761D01*
X8080000Y-24582380D01*
X7984761Y-24582380D01*
X7841904Y-24534761D01*
X7746666Y-24439523D01*
X7699047Y-24344285D01*
X7651428Y-24153809D01*
X7651428Y-24010952D01*
X7699047Y-23820476D01*
X7746666Y-23725238D01*
X7841904Y-23630000D01*
X7984761Y-23582380D01*
X8080000Y-23582380D01*
X8222857Y-23630000D01*
X8270476Y-23677619D01*
X91484523Y-12607857D02*
X91484523Y-11407857D01*
X91675000Y-11407857D01*
X91789285Y-11465000D01*
X91865476Y-11579285D01*
X91903571Y-11693571D01*
X91941666Y-11922142D01*
X91941666Y-12093571D01*
X91903571Y-12322142D01*
X91865476Y-12436428D01*
X91789285Y-12550714D01*
X91675000Y-12607857D01*
X91484523Y-12607857D01*
X92208333Y-11407857D02*
X92741666Y-11407857D01*
X92398809Y-12607857D01*
X94737857Y-14655476D02*
X93537857Y-14655476D01*
X94395000Y-14388809D01*
X93537857Y-14122142D01*
X94737857Y-14122142D01*
X94737857Y-13741190D02*
X93537857Y-13741190D01*
X94737857Y-13360238D02*
X93537857Y-13360238D01*
X93537857Y-13169761D01*
X93595000Y-13055476D01*
X93709285Y-12979285D01*
X93823571Y-12941190D01*
X94052142Y-12903095D01*
X94223571Y-12903095D01*
X94452142Y-12941190D01*
X94566428Y-12979285D01*
X94680714Y-13055476D01*
X94737857Y-13169761D01*
X94737857Y-13360238D01*
X94737857Y-12560238D02*
X93537857Y-12560238D01*
X93537857Y-11645952D02*
X93537857Y-11150714D01*
X93995000Y-11417380D01*
X93995000Y-11303095D01*
X94052142Y-11226904D01*
X94109285Y-11188809D01*
X94223571Y-11150714D01*
X94509285Y-11150714D01*
X94623571Y-11188809D01*
X94680714Y-11226904D01*
X94737857Y-11303095D01*
X94737857Y-11531666D01*
X94680714Y-11607857D01*
X94623571Y-11645952D01*
X94737857Y-10198333D02*
X93937857Y-10198333D01*
X93537857Y-10198333D02*
X93595000Y-10236428D01*
X93652142Y-10198333D01*
X93595000Y-10160238D01*
X93537857Y-10198333D01*
X93652142Y-10198333D01*
X93937857Y-9817380D02*
X94737857Y-9817380D01*
X94052142Y-9817380D02*
X93995000Y-9779285D01*
X93937857Y-9703095D01*
X93937857Y-9588809D01*
X93995000Y-9512619D01*
X94109285Y-9474523D01*
X94737857Y-9474523D01*
X31870714Y-23923571D02*
X31832619Y-23980714D01*
X31718333Y-24037857D01*
X31642142Y-24037857D01*
X31527857Y-23980714D01*
X31451666Y-23866428D01*
X31413571Y-23752142D01*
X31375476Y-23523571D01*
X31375476Y-23352142D01*
X31413571Y-23123571D01*
X31451666Y-23009285D01*
X31527857Y-22895000D01*
X31642142Y-22837857D01*
X31718333Y-22837857D01*
X31832619Y-22895000D01*
X31870714Y-22952142D01*
X32632619Y-24037857D02*
X32175476Y-24037857D01*
X32404047Y-24037857D02*
X32404047Y-22837857D01*
X32327857Y-23009285D01*
X32251666Y-23123571D01*
X32175476Y-23180714D01*
X33394523Y-24037857D02*
X32937380Y-24037857D01*
X33165952Y-24037857D02*
X33165952Y-22837857D01*
X33089761Y-23009285D01*
X33013571Y-23123571D01*
X32937380Y-23180714D01*
X35896666Y-23237857D02*
X35896666Y-24037857D01*
X35706190Y-22780714D02*
X35515714Y-23637857D01*
X36010952Y-23637857D01*
X36239523Y-22837857D02*
X36772857Y-22837857D01*
X36430000Y-24037857D01*
X37420476Y-23237857D02*
X37420476Y-24037857D01*
X37077619Y-23237857D02*
X37077619Y-23866428D01*
X37115714Y-23980714D01*
X37191904Y-24037857D01*
X37306190Y-24037857D01*
X37382380Y-23980714D01*
X37420476Y-23923571D01*
X38068095Y-23409285D02*
X37801428Y-23409285D01*
X37801428Y-24037857D02*
X37801428Y-22837857D01*
X38182380Y-22837857D01*
D10*
X7770904Y-135552571D02*
X7770904Y-134052571D01*
X8009000Y-134052571D01*
X8151857Y-134124000D01*
X8247095Y-134266857D01*
X8294714Y-134409714D01*
X8342333Y-134695428D01*
X8342333Y-134909714D01*
X8294714Y-135195428D01*
X8247095Y-135338285D01*
X8151857Y-135481142D01*
X8009000Y-135552571D01*
X7770904Y-135552571D01*
X9199476Y-134552571D02*
X9199476Y-135552571D01*
X8961380Y-133981142D02*
X8723285Y-135052571D01*
X9342333Y-135052571D01*
X2583571Y-136207333D02*
X1083571Y-136207333D01*
X1083571Y-135826380D01*
X1155000Y-135731142D01*
X1226428Y-135683523D01*
X1369285Y-135635904D01*
X1583571Y-135635904D01*
X1726428Y-135683523D01*
X1797857Y-135731142D01*
X1869285Y-135826380D01*
X1869285Y-136207333D01*
X1083571Y-135302571D02*
X2583571Y-135064476D01*
X1512142Y-134874000D01*
X2583571Y-134683523D01*
X1083571Y-134445428D01*
X2583571Y-133493047D02*
X1869285Y-133826380D01*
X2583571Y-134064476D02*
X1083571Y-134064476D01*
X1083571Y-133683523D01*
X1155000Y-133588285D01*
X1226428Y-133540666D01*
X1369285Y-133493047D01*
X1583571Y-133493047D01*
X1726428Y-133540666D01*
X1797857Y-133588285D01*
X1869285Y-133683523D01*
X1869285Y-134064476D01*
X14261904Y-142283571D02*
X14261904Y-140783571D01*
X14500000Y-140783571D01*
X14642857Y-140855000D01*
X14738095Y-140997857D01*
X14785714Y-141140714D01*
X14833333Y-141426428D01*
X14833333Y-141640714D01*
X14785714Y-141926428D01*
X14738095Y-142069285D01*
X14642857Y-142212142D01*
X14500000Y-142283571D01*
X14261904Y-142283571D01*
X15785714Y-142283571D02*
X15214285Y-142283571D01*
X15500000Y-142283571D02*
X15500000Y-140783571D01*
X15404761Y-140997857D01*
X15309523Y-141140714D01*
X15214285Y-141212142D01*
X12771333Y-149141571D02*
X12771333Y-147641571D01*
X13104666Y-148713000D01*
X13438000Y-147641571D01*
X13438000Y-149141571D01*
X13914190Y-149141571D02*
X13914190Y-147641571D01*
X14390380Y-149141571D02*
X14390380Y-147641571D01*
X14628476Y-147641571D01*
X14771333Y-147713000D01*
X14866571Y-147855857D01*
X14914190Y-147998714D01*
X14961809Y-148284428D01*
X14961809Y-148498714D01*
X14914190Y-148784428D01*
X14866571Y-148927285D01*
X14771333Y-149070142D01*
X14628476Y-149141571D01*
X14390380Y-149141571D01*
X15390380Y-149141571D02*
X15390380Y-147641571D01*
X17152285Y-149141571D02*
X16580857Y-149141571D01*
X16866571Y-149141571D02*
X16866571Y-147641571D01*
X16771333Y-147855857D01*
X16676095Y-147998714D01*
X16580857Y-148070142D01*
X24232904Y-142283571D02*
X24232904Y-140783571D01*
X24471000Y-140783571D01*
X24613857Y-140855000D01*
X24709095Y-140997857D01*
X24756714Y-141140714D01*
X24804333Y-141426428D01*
X24804333Y-141640714D01*
X24756714Y-141926428D01*
X24709095Y-142069285D01*
X24613857Y-142212142D01*
X24471000Y-142283571D01*
X24232904Y-142283571D01*
X25137666Y-140783571D02*
X25756714Y-140783571D01*
X25423380Y-141355000D01*
X25566238Y-141355000D01*
X25661476Y-141426428D01*
X25709095Y-141497857D01*
X25756714Y-141640714D01*
X25756714Y-141997857D01*
X25709095Y-142140714D01*
X25661476Y-142212142D01*
X25566238Y-142283571D01*
X25280523Y-142283571D01*
X25185285Y-142212142D01*
X25137666Y-142140714D01*
X22735333Y-149141571D02*
X22735333Y-147641571D01*
X23068666Y-148713000D01*
X23402000Y-147641571D01*
X23402000Y-149141571D01*
X23878190Y-149141571D02*
X23878190Y-147641571D01*
X24354380Y-149141571D02*
X24354380Y-147641571D01*
X24592476Y-147641571D01*
X24735333Y-147713000D01*
X24830571Y-147855857D01*
X24878190Y-147998714D01*
X24925809Y-148284428D01*
X24925809Y-148498714D01*
X24878190Y-148784428D01*
X24830571Y-148927285D01*
X24735333Y-149070142D01*
X24592476Y-149141571D01*
X24354380Y-149141571D01*
X25354380Y-149141571D02*
X25354380Y-147641571D01*
X26497238Y-147641571D02*
X27116285Y-147641571D01*
X26782952Y-148213000D01*
X26925809Y-148213000D01*
X27021047Y-148284428D01*
X27068666Y-148355857D01*
X27116285Y-148498714D01*
X27116285Y-148855857D01*
X27068666Y-148998714D01*
X27021047Y-149070142D01*
X26925809Y-149141571D01*
X26640095Y-149141571D01*
X26544857Y-149070142D01*
X26497238Y-148998714D01*
X19261904Y-142283571D02*
X19261904Y-140783571D01*
X19500000Y-140783571D01*
X19642857Y-140855000D01*
X19738095Y-140997857D01*
X19785714Y-141140714D01*
X19833333Y-141426428D01*
X19833333Y-141640714D01*
X19785714Y-141926428D01*
X19738095Y-142069285D01*
X19642857Y-142212142D01*
X19500000Y-142283571D01*
X19261904Y-142283571D01*
X20214285Y-140926428D02*
X20261904Y-140855000D01*
X20357142Y-140783571D01*
X20595238Y-140783571D01*
X20690476Y-140855000D01*
X20738095Y-140926428D01*
X20785714Y-141069285D01*
X20785714Y-141212142D01*
X20738095Y-141426428D01*
X20166666Y-142283571D01*
X20785714Y-142283571D01*
X17833333Y-149141571D02*
X17833333Y-147641571D01*
X18166666Y-148713000D01*
X18500000Y-147641571D01*
X18500000Y-149141571D01*
X18976190Y-149141571D02*
X18976190Y-147641571D01*
X19452380Y-149141571D02*
X19452380Y-147641571D01*
X19690476Y-147641571D01*
X19833333Y-147713000D01*
X19928571Y-147855857D01*
X19976190Y-147998714D01*
X20023809Y-148284428D01*
X20023809Y-148498714D01*
X19976190Y-148784428D01*
X19928571Y-148927285D01*
X19833333Y-149070142D01*
X19690476Y-149141571D01*
X19452380Y-149141571D01*
X20452380Y-149141571D02*
X20452380Y-147641571D01*
X21642857Y-147784428D02*
X21690476Y-147713000D01*
X21785714Y-147641571D01*
X22023809Y-147641571D01*
X22119047Y-147713000D01*
X22166666Y-147784428D01*
X22214285Y-147927285D01*
X22214285Y-148070142D01*
X22166666Y-148284428D01*
X21595238Y-149141571D01*
X22214285Y-149141571D01*
D13*
X52571666Y-87971571D02*
X52533571Y-88028714D01*
X52419285Y-88085857D01*
X52343095Y-88085857D01*
X52228809Y-88028714D01*
X52152619Y-87914428D01*
X52114523Y-87800142D01*
X52076428Y-87571571D01*
X52076428Y-87400142D01*
X52114523Y-87171571D01*
X52152619Y-87057285D01*
X52228809Y-86943000D01*
X52343095Y-86885857D01*
X52419285Y-86885857D01*
X52533571Y-86943000D01*
X52571666Y-87000142D01*
X52952619Y-88085857D02*
X53105000Y-88085857D01*
X53181190Y-88028714D01*
X53219285Y-87971571D01*
X53295476Y-87800142D01*
X53333571Y-87571571D01*
X53333571Y-87114428D01*
X53295476Y-87000142D01*
X53257380Y-86943000D01*
X53181190Y-86885857D01*
X53028809Y-86885857D01*
X52952619Y-86943000D01*
X52914523Y-87000142D01*
X52876428Y-87114428D01*
X52876428Y-87400142D01*
X52914523Y-87514428D01*
X52952619Y-87571571D01*
X53028809Y-87628714D01*
X53181190Y-87628714D01*
X53257380Y-87571571D01*
X53295476Y-87514428D01*
X53333571Y-87400142D01*
X51263714Y-93743857D02*
X51339904Y-93743857D01*
X51416095Y-93801000D01*
X51454190Y-93858142D01*
X51492285Y-93972428D01*
X51530380Y-94201000D01*
X51530380Y-94486714D01*
X51492285Y-94715285D01*
X51454190Y-94829571D01*
X51416095Y-94886714D01*
X51339904Y-94943857D01*
X51263714Y-94943857D01*
X51187523Y-94886714D01*
X51149428Y-94829571D01*
X51111333Y-94715285D01*
X51073238Y-94486714D01*
X51073238Y-94201000D01*
X51111333Y-93972428D01*
X51149428Y-93858142D01*
X51187523Y-93801000D01*
X51263714Y-93743857D01*
X51873238Y-94829571D02*
X51911333Y-94886714D01*
X51873238Y-94943857D01*
X51835142Y-94886714D01*
X51873238Y-94829571D01*
X51873238Y-94943857D01*
X52673238Y-94943857D02*
X52216095Y-94943857D01*
X52444666Y-94943857D02*
X52444666Y-93743857D01*
X52368476Y-93915285D01*
X52292285Y-94029571D01*
X52216095Y-94086714D01*
X53358952Y-94143857D02*
X53358952Y-94943857D01*
X53016095Y-94143857D02*
X53016095Y-94772428D01*
X53054190Y-94886714D01*
X53130380Y-94943857D01*
X53244666Y-94943857D01*
X53320857Y-94886714D01*
X53358952Y-94829571D01*
X54006571Y-94315285D02*
X53739904Y-94315285D01*
X53739904Y-94943857D02*
X53739904Y-93743857D01*
X54120857Y-93743857D01*
X49650714Y-17573571D02*
X49612619Y-17630714D01*
X49498333Y-17687857D01*
X49422142Y-17687857D01*
X49307857Y-17630714D01*
X49231666Y-17516428D01*
X49193571Y-17402142D01*
X49155476Y-17173571D01*
X49155476Y-17002142D01*
X49193571Y-16773571D01*
X49231666Y-16659285D01*
X49307857Y-16545000D01*
X49422142Y-16487857D01*
X49498333Y-16487857D01*
X49612619Y-16545000D01*
X49650714Y-16602142D01*
X50412619Y-17687857D02*
X49955476Y-17687857D01*
X50184047Y-17687857D02*
X50184047Y-16487857D01*
X50107857Y-16659285D01*
X50031666Y-16773571D01*
X49955476Y-16830714D01*
X50907857Y-16487857D02*
X50984047Y-16487857D01*
X51060238Y-16545000D01*
X51098333Y-16602142D01*
X51136428Y-16716428D01*
X51174523Y-16945000D01*
X51174523Y-17230714D01*
X51136428Y-17459285D01*
X51098333Y-17573571D01*
X51060238Y-17630714D01*
X50984047Y-17687857D01*
X50907857Y-17687857D01*
X50831666Y-17630714D01*
X50793571Y-17573571D01*
X50755476Y-17459285D01*
X50717380Y-17230714D01*
X50717380Y-16945000D01*
X50755476Y-16716428D01*
X50793571Y-16602142D01*
X50831666Y-16545000D01*
X50907857Y-16487857D01*
X48723714Y-23091857D02*
X48799904Y-23091857D01*
X48876095Y-23149000D01*
X48914190Y-23206142D01*
X48952285Y-23320428D01*
X48990380Y-23549000D01*
X48990380Y-23834714D01*
X48952285Y-24063285D01*
X48914190Y-24177571D01*
X48876095Y-24234714D01*
X48799904Y-24291857D01*
X48723714Y-24291857D01*
X48647523Y-24234714D01*
X48609428Y-24177571D01*
X48571333Y-24063285D01*
X48533238Y-23834714D01*
X48533238Y-23549000D01*
X48571333Y-23320428D01*
X48609428Y-23206142D01*
X48647523Y-23149000D01*
X48723714Y-23091857D01*
X49333238Y-24177571D02*
X49371333Y-24234714D01*
X49333238Y-24291857D01*
X49295142Y-24234714D01*
X49333238Y-24177571D01*
X49333238Y-24291857D01*
X50133238Y-24291857D02*
X49676095Y-24291857D01*
X49904666Y-24291857D02*
X49904666Y-23091857D01*
X49828476Y-23263285D01*
X49752285Y-23377571D01*
X49676095Y-23434714D01*
X50818952Y-23491857D02*
X50818952Y-24291857D01*
X50476095Y-23491857D02*
X50476095Y-24120428D01*
X50514190Y-24234714D01*
X50590380Y-24291857D01*
X50704666Y-24291857D01*
X50780857Y-24234714D01*
X50818952Y-24177571D01*
X51466571Y-23663285D02*
X51199904Y-23663285D01*
X51199904Y-24291857D02*
X51199904Y-23091857D01*
X51580857Y-23091857D01*
D10*
X75461904Y-15918571D02*
X75461904Y-14418571D01*
X75700000Y-14418571D01*
X75842857Y-14490000D01*
X75938095Y-14632857D01*
X75985714Y-14775714D01*
X76033333Y-15061428D01*
X76033333Y-15275714D01*
X75985714Y-15561428D01*
X75938095Y-15704285D01*
X75842857Y-15847142D01*
X75700000Y-15918571D01*
X75461904Y-15918571D01*
X76938095Y-14418571D02*
X76461904Y-14418571D01*
X76414285Y-15132857D01*
X76461904Y-15061428D01*
X76557142Y-14990000D01*
X76795238Y-14990000D01*
X76890476Y-15061428D01*
X76938095Y-15132857D01*
X76985714Y-15275714D01*
X76985714Y-15632857D01*
X76938095Y-15775714D01*
X76890476Y-15847142D01*
X76795238Y-15918571D01*
X76557142Y-15918571D01*
X76461904Y-15847142D01*
X76414285Y-15775714D01*
D13*
X75985714Y-24020476D02*
X76652380Y-24020476D01*
X75604761Y-24210952D02*
X76319047Y-24401428D01*
X76319047Y-23906190D01*
X76652380Y-23182380D02*
X76652380Y-23639523D01*
X76652380Y-23410952D02*
X75652380Y-23410952D01*
X75795238Y-23487142D01*
X75890476Y-23563333D01*
X75938095Y-23639523D01*
X75985714Y-22496666D02*
X76652380Y-22496666D01*
X75604761Y-22687142D02*
X76319047Y-22877619D01*
X76319047Y-22382380D01*
X76080952Y-21963333D02*
X76033333Y-22039523D01*
X75985714Y-22077619D01*
X75890476Y-22115714D01*
X75842857Y-22115714D01*
X75747619Y-22077619D01*
X75700000Y-22039523D01*
X75652380Y-21963333D01*
X75652380Y-21810952D01*
X75700000Y-21734761D01*
X75747619Y-21696666D01*
X75842857Y-21658571D01*
X75890476Y-21658571D01*
X75985714Y-21696666D01*
X76033333Y-21734761D01*
X76080952Y-21810952D01*
X76080952Y-21963333D01*
X76128571Y-22039523D01*
X76176190Y-22077619D01*
X76271428Y-22115714D01*
X76461904Y-22115714D01*
X76557142Y-22077619D01*
X76604761Y-22039523D01*
X76652380Y-21963333D01*
X76652380Y-21810952D01*
X76604761Y-21734761D01*
X76557142Y-21696666D01*
X76461904Y-21658571D01*
X76271428Y-21658571D01*
X76176190Y-21696666D01*
X76128571Y-21734761D01*
X76080952Y-21810952D01*
D10*
X12533333Y-114648371D02*
X12200000Y-113934085D01*
X11961904Y-114648371D02*
X11961904Y-113148371D01*
X12342857Y-113148371D01*
X12438095Y-113219800D01*
X12485714Y-113291228D01*
X12533333Y-113434085D01*
X12533333Y-113648371D01*
X12485714Y-113791228D01*
X12438095Y-113862657D01*
X12342857Y-113934085D01*
X11961904Y-113934085D01*
X12914285Y-113291228D02*
X12961904Y-113219800D01*
X13057142Y-113148371D01*
X13295238Y-113148371D01*
X13390476Y-113219800D01*
X13438095Y-113291228D01*
X13485714Y-113434085D01*
X13485714Y-113576942D01*
X13438095Y-113791228D01*
X12866666Y-114648371D01*
X13485714Y-114648371D01*
X12042857Y-123205714D02*
X12042857Y-122586666D01*
X12500000Y-122920000D01*
X12500000Y-122777142D01*
X12557142Y-122681904D01*
X12614285Y-122634285D01*
X12728571Y-122586666D01*
X13014285Y-122586666D01*
X13128571Y-122634285D01*
X13185714Y-122681904D01*
X13242857Y-122777142D01*
X13242857Y-123062857D01*
X13185714Y-123158095D01*
X13128571Y-123205714D01*
X12042857Y-122253333D02*
X12042857Y-121634285D01*
X12500000Y-121967619D01*
X12500000Y-121824761D01*
X12557142Y-121729523D01*
X12614285Y-121681904D01*
X12728571Y-121634285D01*
X13014285Y-121634285D01*
X13128571Y-121681904D01*
X13185714Y-121729523D01*
X13242857Y-121824761D01*
X13242857Y-122110476D01*
X13185714Y-122205714D01*
X13128571Y-122253333D01*
X12042857Y-121015238D02*
X12042857Y-120920000D01*
X12100000Y-120824761D01*
X12157142Y-120777142D01*
X12271428Y-120729523D01*
X12500000Y-120681904D01*
X12785714Y-120681904D01*
X13014285Y-120729523D01*
X13128571Y-120777142D01*
X13185714Y-120824761D01*
X13242857Y-120920000D01*
X13242857Y-121015238D01*
X13185714Y-121110476D01*
X13128571Y-121158095D01*
X13014285Y-121205714D01*
X12785714Y-121253333D01*
X12500000Y-121253333D01*
X12271428Y-121205714D01*
X12157142Y-121158095D01*
X12100000Y-121110476D01*
X12042857Y-121015238D01*
X76033333Y-31920571D02*
X75700000Y-31206285D01*
X75461904Y-31920571D02*
X75461904Y-30420571D01*
X75842857Y-30420571D01*
X75938095Y-30492000D01*
X75985714Y-30563428D01*
X76033333Y-30706285D01*
X76033333Y-30920571D01*
X75985714Y-31063428D01*
X75938095Y-31134857D01*
X75842857Y-31206285D01*
X75461904Y-31206285D01*
X76985714Y-31920571D02*
X76414285Y-31920571D01*
X76700000Y-31920571D02*
X76700000Y-30420571D01*
X76604761Y-30634857D01*
X76509523Y-30777714D01*
X76414285Y-30849142D01*
X75657142Y-39973095D02*
X75600000Y-39925476D01*
X75542857Y-39830238D01*
X75542857Y-39592142D01*
X75600000Y-39496904D01*
X75657142Y-39449285D01*
X75771428Y-39401666D01*
X75885714Y-39401666D01*
X76057142Y-39449285D01*
X76742857Y-40020714D01*
X76742857Y-39401666D01*
X75657142Y-39020714D02*
X75600000Y-38973095D01*
X75542857Y-38877857D01*
X75542857Y-38639761D01*
X75600000Y-38544523D01*
X75657142Y-38496904D01*
X75771428Y-38449285D01*
X75885714Y-38449285D01*
X76057142Y-38496904D01*
X76742857Y-39068333D01*
X76742857Y-38449285D01*
X75542857Y-37830238D02*
X75542857Y-37735000D01*
X75600000Y-37639761D01*
X75657142Y-37592142D01*
X75771428Y-37544523D01*
X76000000Y-37496904D01*
X76285714Y-37496904D01*
X76514285Y-37544523D01*
X76628571Y-37592142D01*
X76685714Y-37639761D01*
X76742857Y-37735000D01*
X76742857Y-37830238D01*
X76685714Y-37925476D01*
X76628571Y-37973095D01*
X76514285Y-38020714D01*
X76285714Y-38068333D01*
X76000000Y-38068333D01*
X75771428Y-38020714D01*
X75657142Y-37973095D01*
X75600000Y-37925476D01*
X75542857Y-37830238D01*
X52363809Y-62953571D02*
X52363809Y-61453571D01*
X53411428Y-62810714D02*
X53363809Y-62882142D01*
X53220952Y-62953571D01*
X53125714Y-62953571D01*
X52982857Y-62882142D01*
X52887619Y-62739285D01*
X52840000Y-62596428D01*
X52792380Y-62310714D01*
X52792380Y-62096428D01*
X52840000Y-61810714D01*
X52887619Y-61667857D01*
X52982857Y-61525000D01*
X53125714Y-61453571D01*
X53220952Y-61453571D01*
X53363809Y-61525000D01*
X53411428Y-61596428D01*
X54268571Y-61953571D02*
X54268571Y-62953571D01*
X54030476Y-61382142D02*
X53792380Y-62453571D01*
X54411428Y-62453571D01*
X57317142Y-61408571D02*
X57983809Y-61408571D01*
X57555238Y-62908571D01*
X58793333Y-61908571D02*
X58793333Y-62908571D01*
X58555238Y-61337142D02*
X58317142Y-62408571D01*
X58936190Y-62408571D01*
X59317142Y-62908571D02*
X59317142Y-61408571D01*
X59317142Y-62122857D02*
X59888571Y-62122857D01*
X59888571Y-62908571D02*
X59888571Y-61408571D01*
X60936190Y-62765714D02*
X60888571Y-62837142D01*
X60745714Y-62908571D01*
X60650476Y-62908571D01*
X60507619Y-62837142D01*
X60412380Y-62694285D01*
X60364761Y-62551428D01*
X60317142Y-62265714D01*
X60317142Y-62051428D01*
X60364761Y-61765714D01*
X60412380Y-61622857D01*
X60507619Y-61480000D01*
X60650476Y-61408571D01*
X60745714Y-61408571D01*
X60888571Y-61480000D01*
X60936190Y-61551428D01*
X61221904Y-61408571D02*
X61793333Y-61408571D01*
X61507619Y-62908571D02*
X61507619Y-61408571D01*
X62650476Y-62908571D02*
X62079047Y-62908571D01*
X62364761Y-62908571D02*
X62364761Y-61408571D01*
X62269523Y-61622857D01*
X62174285Y-61765714D01*
X62079047Y-61837142D01*
X62983809Y-61408571D02*
X63602857Y-61408571D01*
X63269523Y-61980000D01*
X63412380Y-61980000D01*
X63507619Y-62051428D01*
X63555238Y-62122857D01*
X63602857Y-62265714D01*
X63602857Y-62622857D01*
X63555238Y-62765714D01*
X63507619Y-62837142D01*
X63412380Y-62908571D01*
X63126666Y-62908571D01*
X63031428Y-62837142D01*
X62983809Y-62765714D01*
X64174285Y-62051428D02*
X64079047Y-61980000D01*
X64031428Y-61908571D01*
X63983809Y-61765714D01*
X63983809Y-61694285D01*
X64031428Y-61551428D01*
X64079047Y-61480000D01*
X64174285Y-61408571D01*
X64364761Y-61408571D01*
X64460000Y-61480000D01*
X64507619Y-61551428D01*
X64555238Y-61694285D01*
X64555238Y-61765714D01*
X64507619Y-61908571D01*
X64460000Y-61980000D01*
X64364761Y-62051428D01*
X64174285Y-62051428D01*
X64079047Y-62122857D01*
X64031428Y-62194285D01*
X63983809Y-62337142D01*
X63983809Y-62622857D01*
X64031428Y-62765714D01*
X64079047Y-62837142D01*
X64174285Y-62908571D01*
X64364761Y-62908571D01*
X64460000Y-62837142D01*
X64507619Y-62765714D01*
X64555238Y-62622857D01*
X64555238Y-62337142D01*
X64507619Y-62194285D01*
X64460000Y-62122857D01*
X64364761Y-62051428D01*
X52363809Y-47713571D02*
X52363809Y-46213571D01*
X53411428Y-47570714D02*
X53363809Y-47642142D01*
X53220952Y-47713571D01*
X53125714Y-47713571D01*
X52982857Y-47642142D01*
X52887619Y-47499285D01*
X52840000Y-47356428D01*
X52792380Y-47070714D01*
X52792380Y-46856428D01*
X52840000Y-46570714D01*
X52887619Y-46427857D01*
X52982857Y-46285000D01*
X53125714Y-46213571D01*
X53220952Y-46213571D01*
X53363809Y-46285000D01*
X53411428Y-46356428D01*
X53792380Y-46356428D02*
X53840000Y-46285000D01*
X53935238Y-46213571D01*
X54173333Y-46213571D01*
X54268571Y-46285000D01*
X54316190Y-46356428D01*
X54363809Y-46499285D01*
X54363809Y-46642142D01*
X54316190Y-46856428D01*
X53744761Y-47713571D01*
X54363809Y-47713571D01*
X57793333Y-46168571D02*
X58460000Y-46168571D01*
X58031428Y-47668571D01*
X59269523Y-46668571D02*
X59269523Y-47668571D01*
X59031428Y-46097142D02*
X58793333Y-47168571D01*
X59412380Y-47168571D01*
X59793333Y-47668571D02*
X59793333Y-46168571D01*
X59793333Y-46882857D02*
X60364761Y-46882857D01*
X60364761Y-47668571D02*
X60364761Y-46168571D01*
X61412380Y-47525714D02*
X61364761Y-47597142D01*
X61221904Y-47668571D01*
X61126666Y-47668571D01*
X60983809Y-47597142D01*
X60888571Y-47454285D01*
X60840952Y-47311428D01*
X60793333Y-47025714D01*
X60793333Y-46811428D01*
X60840952Y-46525714D01*
X60888571Y-46382857D01*
X60983809Y-46240000D01*
X61126666Y-46168571D01*
X61221904Y-46168571D01*
X61364761Y-46240000D01*
X61412380Y-46311428D01*
X61698095Y-46168571D02*
X62269523Y-46168571D01*
X61983809Y-47668571D02*
X61983809Y-46168571D01*
X62507619Y-46168571D02*
X63174285Y-46168571D01*
X62745714Y-47668571D01*
X64031428Y-46168571D02*
X63555238Y-46168571D01*
X63507619Y-46882857D01*
X63555238Y-46811428D01*
X63650476Y-46740000D01*
X63888571Y-46740000D01*
X63983809Y-46811428D01*
X64031428Y-46882857D01*
X64079047Y-47025714D01*
X64079047Y-47382857D01*
X64031428Y-47525714D01*
X63983809Y-47597142D01*
X63888571Y-47668571D01*
X63650476Y-47668571D01*
X63555238Y-47597142D01*
X63507619Y-47525714D01*
X55538809Y-100373571D02*
X55538809Y-98873571D01*
X56586428Y-100230714D02*
X56538809Y-100302142D01*
X56395952Y-100373571D01*
X56300714Y-100373571D01*
X56157857Y-100302142D01*
X56062619Y-100159285D01*
X56015000Y-100016428D01*
X55967380Y-99730714D01*
X55967380Y-99516428D01*
X56015000Y-99230714D01*
X56062619Y-99087857D01*
X56157857Y-98945000D01*
X56300714Y-98873571D01*
X56395952Y-98873571D01*
X56538809Y-98945000D01*
X56586428Y-99016428D01*
X57491190Y-98873571D02*
X57015000Y-98873571D01*
X56967380Y-99587857D01*
X57015000Y-99516428D01*
X57110238Y-99445000D01*
X57348333Y-99445000D01*
X57443571Y-99516428D01*
X57491190Y-99587857D01*
X57538809Y-99730714D01*
X57538809Y-100087857D01*
X57491190Y-100230714D01*
X57443571Y-100302142D01*
X57348333Y-100373571D01*
X57110238Y-100373571D01*
X57015000Y-100302142D01*
X56967380Y-100230714D01*
X59698333Y-98873571D02*
X60365000Y-98873571D01*
X59936428Y-100373571D01*
X61174523Y-99373571D02*
X61174523Y-100373571D01*
X60936428Y-98802142D02*
X60698333Y-99873571D01*
X61317380Y-99873571D01*
X61698333Y-100373571D02*
X61698333Y-98873571D01*
X61698333Y-99587857D02*
X62269761Y-99587857D01*
X62269761Y-100373571D02*
X62269761Y-98873571D01*
X63317380Y-100230714D02*
X63269761Y-100302142D01*
X63126904Y-100373571D01*
X63031666Y-100373571D01*
X62888809Y-100302142D01*
X62793571Y-100159285D01*
X62745952Y-100016428D01*
X62698333Y-99730714D01*
X62698333Y-99516428D01*
X62745952Y-99230714D01*
X62793571Y-99087857D01*
X62888809Y-98945000D01*
X63031666Y-98873571D01*
X63126904Y-98873571D01*
X63269761Y-98945000D01*
X63317380Y-99016428D01*
X63603095Y-98873571D02*
X64174523Y-98873571D01*
X63888809Y-100373571D02*
X63888809Y-98873571D01*
X64698333Y-98873571D02*
X64793571Y-98873571D01*
X64888809Y-98945000D01*
X64936428Y-99016428D01*
X64984047Y-99159285D01*
X65031666Y-99445000D01*
X65031666Y-99802142D01*
X64984047Y-100087857D01*
X64936428Y-100230714D01*
X64888809Y-100302142D01*
X64793571Y-100373571D01*
X64698333Y-100373571D01*
X64603095Y-100302142D01*
X64555476Y-100230714D01*
X64507857Y-100087857D01*
X64460238Y-99802142D01*
X64460238Y-99445000D01*
X64507857Y-99159285D01*
X64555476Y-99016428D01*
X64603095Y-98945000D01*
X64698333Y-98873571D01*
X65603095Y-99516428D02*
X65507857Y-99445000D01*
X65460238Y-99373571D01*
X65412619Y-99230714D01*
X65412619Y-99159285D01*
X65460238Y-99016428D01*
X65507857Y-98945000D01*
X65603095Y-98873571D01*
X65793571Y-98873571D01*
X65888809Y-98945000D01*
X65936428Y-99016428D01*
X65984047Y-99159285D01*
X65984047Y-99230714D01*
X65936428Y-99373571D01*
X65888809Y-99445000D01*
X65793571Y-99516428D01*
X65603095Y-99516428D01*
X65507857Y-99587857D01*
X65460238Y-99659285D01*
X65412619Y-99802142D01*
X65412619Y-100087857D01*
X65460238Y-100230714D01*
X65507857Y-100302142D01*
X65603095Y-100373571D01*
X65793571Y-100373571D01*
X65888809Y-100302142D01*
X65936428Y-100230714D01*
X65984047Y-100087857D01*
X65984047Y-99802142D01*
X65936428Y-99659285D01*
X65888809Y-99587857D01*
X65793571Y-99516428D01*
X55538809Y-87673571D02*
X55538809Y-86173571D01*
X56586428Y-87530714D02*
X56538809Y-87602142D01*
X56395952Y-87673571D01*
X56300714Y-87673571D01*
X56157857Y-87602142D01*
X56062619Y-87459285D01*
X56015000Y-87316428D01*
X55967380Y-87030714D01*
X55967380Y-86816428D01*
X56015000Y-86530714D01*
X56062619Y-86387857D01*
X56157857Y-86245000D01*
X56300714Y-86173571D01*
X56395952Y-86173571D01*
X56538809Y-86245000D01*
X56586428Y-86316428D01*
X56919761Y-86173571D02*
X57538809Y-86173571D01*
X57205476Y-86745000D01*
X57348333Y-86745000D01*
X57443571Y-86816428D01*
X57491190Y-86887857D01*
X57538809Y-87030714D01*
X57538809Y-87387857D01*
X57491190Y-87530714D01*
X57443571Y-87602142D01*
X57348333Y-87673571D01*
X57062619Y-87673571D01*
X56967380Y-87602142D01*
X56919761Y-87530714D01*
X59698333Y-86173571D02*
X60365000Y-86173571D01*
X59936428Y-87673571D01*
X61174523Y-86673571D02*
X61174523Y-87673571D01*
X60936428Y-86102142D02*
X60698333Y-87173571D01*
X61317380Y-87173571D01*
X61698333Y-87673571D02*
X61698333Y-86173571D01*
X61698333Y-86887857D02*
X62269761Y-86887857D01*
X62269761Y-87673571D02*
X62269761Y-86173571D01*
X63317380Y-87530714D02*
X63269761Y-87602142D01*
X63126904Y-87673571D01*
X63031666Y-87673571D01*
X62888809Y-87602142D01*
X62793571Y-87459285D01*
X62745952Y-87316428D01*
X62698333Y-87030714D01*
X62698333Y-86816428D01*
X62745952Y-86530714D01*
X62793571Y-86387857D01*
X62888809Y-86245000D01*
X63031666Y-86173571D01*
X63126904Y-86173571D01*
X63269761Y-86245000D01*
X63317380Y-86316428D01*
X63603095Y-86173571D02*
X64174523Y-86173571D01*
X63888809Y-87673571D02*
X63888809Y-86173571D01*
X64412619Y-86173571D02*
X65031666Y-86173571D01*
X64698333Y-86745000D01*
X64841190Y-86745000D01*
X64936428Y-86816428D01*
X64984047Y-86887857D01*
X65031666Y-87030714D01*
X65031666Y-87387857D01*
X64984047Y-87530714D01*
X64936428Y-87602142D01*
X64841190Y-87673571D01*
X64555476Y-87673571D01*
X64460238Y-87602142D01*
X64412619Y-87530714D01*
X65412619Y-86316428D02*
X65460238Y-86245000D01*
X65555476Y-86173571D01*
X65793571Y-86173571D01*
X65888809Y-86245000D01*
X65936428Y-86316428D01*
X65984047Y-86459285D01*
X65984047Y-86602142D01*
X65936428Y-86816428D01*
X65365000Y-87673571D01*
X65984047Y-87673571D01*
X52998809Y-31793571D02*
X52998809Y-30293571D01*
X54046428Y-31650714D02*
X53998809Y-31722142D01*
X53855952Y-31793571D01*
X53760714Y-31793571D01*
X53617857Y-31722142D01*
X53522619Y-31579285D01*
X53475000Y-31436428D01*
X53427380Y-31150714D01*
X53427380Y-30936428D01*
X53475000Y-30650714D01*
X53522619Y-30507857D01*
X53617857Y-30365000D01*
X53760714Y-30293571D01*
X53855952Y-30293571D01*
X53998809Y-30365000D01*
X54046428Y-30436428D01*
X54998809Y-31793571D02*
X54427380Y-31793571D01*
X54713095Y-31793571D02*
X54713095Y-30293571D01*
X54617857Y-30507857D01*
X54522619Y-30650714D01*
X54427380Y-30722142D01*
X57158333Y-30293571D02*
X57825000Y-30293571D01*
X57396428Y-31793571D01*
X58634523Y-30793571D02*
X58634523Y-31793571D01*
X58396428Y-30222142D02*
X58158333Y-31293571D01*
X58777380Y-31293571D01*
X59158333Y-31793571D02*
X59158333Y-30293571D01*
X59158333Y-31007857D02*
X59729761Y-31007857D01*
X59729761Y-31793571D02*
X59729761Y-30293571D01*
X60777380Y-31650714D02*
X60729761Y-31722142D01*
X60586904Y-31793571D01*
X60491666Y-31793571D01*
X60348809Y-31722142D01*
X60253571Y-31579285D01*
X60205952Y-31436428D01*
X60158333Y-31150714D01*
X60158333Y-30936428D01*
X60205952Y-30650714D01*
X60253571Y-30507857D01*
X60348809Y-30365000D01*
X60491666Y-30293571D01*
X60586904Y-30293571D01*
X60729761Y-30365000D01*
X60777380Y-30436428D01*
X61063095Y-30293571D02*
X61634523Y-30293571D01*
X61348809Y-31793571D02*
X61348809Y-30293571D01*
X61872619Y-30293571D02*
X62539285Y-30293571D01*
X62110714Y-31793571D01*
X63348809Y-30793571D02*
X63348809Y-31793571D01*
X63110714Y-30222142D02*
X62872619Y-31293571D01*
X63491666Y-31293571D01*
X28392619Y-116248571D02*
X28392619Y-114748571D01*
X29440238Y-116105714D02*
X29392619Y-116177142D01*
X29249761Y-116248571D01*
X29154523Y-116248571D01*
X29011666Y-116177142D01*
X28916428Y-116034285D01*
X28868809Y-115891428D01*
X28821190Y-115605714D01*
X28821190Y-115391428D01*
X28868809Y-115105714D01*
X28916428Y-114962857D01*
X29011666Y-114820000D01*
X29154523Y-114748571D01*
X29249761Y-114748571D01*
X29392619Y-114820000D01*
X29440238Y-114891428D01*
X30392619Y-116248571D02*
X29821190Y-116248571D01*
X30106904Y-116248571D02*
X30106904Y-114748571D01*
X30011666Y-114962857D01*
X29916428Y-115105714D01*
X29821190Y-115177142D01*
X31011666Y-114748571D02*
X31106904Y-114748571D01*
X31202142Y-114820000D01*
X31249761Y-114891428D01*
X31297380Y-115034285D01*
X31345000Y-115320000D01*
X31345000Y-115677142D01*
X31297380Y-115962857D01*
X31249761Y-116105714D01*
X31202142Y-116177142D01*
X31106904Y-116248571D01*
X31011666Y-116248571D01*
X30916428Y-116177142D01*
X30868809Y-116105714D01*
X30821190Y-115962857D01*
X30773571Y-115677142D01*
X30773571Y-115320000D01*
X30821190Y-115034285D01*
X30868809Y-114891428D01*
X30916428Y-114820000D01*
X31011666Y-114748571D01*
X33028333Y-114748571D02*
X33695000Y-114748571D01*
X33266428Y-116248571D01*
X34504523Y-115248571D02*
X34504523Y-116248571D01*
X34266428Y-114677142D02*
X34028333Y-115748571D01*
X34647380Y-115748571D01*
X35028333Y-116248571D02*
X35028333Y-114748571D01*
X35028333Y-115462857D02*
X35599761Y-115462857D01*
X35599761Y-116248571D02*
X35599761Y-114748571D01*
X36647380Y-116105714D02*
X36599761Y-116177142D01*
X36456904Y-116248571D01*
X36361666Y-116248571D01*
X36218809Y-116177142D01*
X36123571Y-116034285D01*
X36075952Y-115891428D01*
X36028333Y-115605714D01*
X36028333Y-115391428D01*
X36075952Y-115105714D01*
X36123571Y-114962857D01*
X36218809Y-114820000D01*
X36361666Y-114748571D01*
X36456904Y-114748571D01*
X36599761Y-114820000D01*
X36647380Y-114891428D01*
X36933095Y-114748571D02*
X37504523Y-114748571D01*
X37218809Y-116248571D02*
X37218809Y-114748571D01*
X38028333Y-114748571D02*
X38123571Y-114748571D01*
X38218809Y-114820000D01*
X38266428Y-114891428D01*
X38314047Y-115034285D01*
X38361666Y-115320000D01*
X38361666Y-115677142D01*
X38314047Y-115962857D01*
X38266428Y-116105714D01*
X38218809Y-116177142D01*
X38123571Y-116248571D01*
X38028333Y-116248571D01*
X37933095Y-116177142D01*
X37885476Y-116105714D01*
X37837857Y-115962857D01*
X37790238Y-115677142D01*
X37790238Y-115320000D01*
X37837857Y-115034285D01*
X37885476Y-114891428D01*
X37933095Y-114820000D01*
X38028333Y-114748571D01*
X38933095Y-115391428D02*
X38837857Y-115320000D01*
X38790238Y-115248571D01*
X38742619Y-115105714D01*
X38742619Y-115034285D01*
X38790238Y-114891428D01*
X38837857Y-114820000D01*
X38933095Y-114748571D01*
X39123571Y-114748571D01*
X39218809Y-114820000D01*
X39266428Y-114891428D01*
X39314047Y-115034285D01*
X39314047Y-115105714D01*
X39266428Y-115248571D01*
X39218809Y-115320000D01*
X39123571Y-115391428D01*
X38933095Y-115391428D01*
X38837857Y-115462857D01*
X38790238Y-115534285D01*
X38742619Y-115677142D01*
X38742619Y-115962857D01*
X38790238Y-116105714D01*
X38837857Y-116177142D01*
X38933095Y-116248571D01*
X39123571Y-116248571D01*
X39218809Y-116177142D01*
X39266428Y-116105714D01*
X39314047Y-115962857D01*
X39314047Y-115677142D01*
X39266428Y-115534285D01*
X39218809Y-115462857D01*
X39123571Y-115391428D01*
X12358809Y-23538571D02*
X12358809Y-22038571D01*
X13406428Y-23395714D02*
X13358809Y-23467142D01*
X13215952Y-23538571D01*
X13120714Y-23538571D01*
X12977857Y-23467142D01*
X12882619Y-23324285D01*
X12835000Y-23181428D01*
X12787380Y-22895714D01*
X12787380Y-22681428D01*
X12835000Y-22395714D01*
X12882619Y-22252857D01*
X12977857Y-22110000D01*
X13120714Y-22038571D01*
X13215952Y-22038571D01*
X13358809Y-22110000D01*
X13406428Y-22181428D01*
X13977857Y-22681428D02*
X13882619Y-22610000D01*
X13835000Y-22538571D01*
X13787380Y-22395714D01*
X13787380Y-22324285D01*
X13835000Y-22181428D01*
X13882619Y-22110000D01*
X13977857Y-22038571D01*
X14168333Y-22038571D01*
X14263571Y-22110000D01*
X14311190Y-22181428D01*
X14358809Y-22324285D01*
X14358809Y-22395714D01*
X14311190Y-22538571D01*
X14263571Y-22610000D01*
X14168333Y-22681428D01*
X13977857Y-22681428D01*
X13882619Y-22752857D01*
X13835000Y-22824285D01*
X13787380Y-22967142D01*
X13787380Y-23252857D01*
X13835000Y-23395714D01*
X13882619Y-23467142D01*
X13977857Y-23538571D01*
X14168333Y-23538571D01*
X14263571Y-23467142D01*
X14311190Y-23395714D01*
X14358809Y-23252857D01*
X14358809Y-22967142D01*
X14311190Y-22824285D01*
X14263571Y-22752857D01*
X14168333Y-22681428D01*
X16946904Y-23538571D02*
X16946904Y-22038571D01*
X17280238Y-23110000D01*
X17613571Y-22038571D01*
X17613571Y-23538571D01*
X18661190Y-23395714D02*
X18613571Y-23467142D01*
X18470714Y-23538571D01*
X18375476Y-23538571D01*
X18232619Y-23467142D01*
X18137380Y-23324285D01*
X18089761Y-23181428D01*
X18042142Y-22895714D01*
X18042142Y-22681428D01*
X18089761Y-22395714D01*
X18137380Y-22252857D01*
X18232619Y-22110000D01*
X18375476Y-22038571D01*
X18470714Y-22038571D01*
X18613571Y-22110000D01*
X18661190Y-22181428D01*
X19518333Y-22038571D02*
X19327857Y-22038571D01*
X19232619Y-22110000D01*
X19185000Y-22181428D01*
X19089761Y-22395714D01*
X19042142Y-22681428D01*
X19042142Y-23252857D01*
X19089761Y-23395714D01*
X19137380Y-23467142D01*
X19232619Y-23538571D01*
X19423095Y-23538571D01*
X19518333Y-23467142D01*
X19565952Y-23395714D01*
X19613571Y-23252857D01*
X19613571Y-22895714D01*
X19565952Y-22752857D01*
X19518333Y-22681428D01*
X19423095Y-22610000D01*
X19232619Y-22610000D01*
X19137380Y-22681428D01*
X19089761Y-22752857D01*
X19042142Y-22895714D01*
X20185000Y-22681428D02*
X20089761Y-22610000D01*
X20042142Y-22538571D01*
X19994523Y-22395714D01*
X19994523Y-22324285D01*
X20042142Y-22181428D01*
X20089761Y-22110000D01*
X20185000Y-22038571D01*
X20375476Y-22038571D01*
X20470714Y-22110000D01*
X20518333Y-22181428D01*
X20565952Y-22324285D01*
X20565952Y-22395714D01*
X20518333Y-22538571D01*
X20470714Y-22610000D01*
X20375476Y-22681428D01*
X20185000Y-22681428D01*
X20089761Y-22752857D01*
X20042142Y-22824285D01*
X19994523Y-22967142D01*
X19994523Y-23252857D01*
X20042142Y-23395714D01*
X20089761Y-23467142D01*
X20185000Y-23538571D01*
X20375476Y-23538571D01*
X20470714Y-23467142D01*
X20518333Y-23395714D01*
X20565952Y-23252857D01*
X20565952Y-22967142D01*
X20518333Y-22824285D01*
X20470714Y-22752857D01*
X20375476Y-22681428D01*
X21470714Y-22038571D02*
X20994523Y-22038571D01*
X20946904Y-22752857D01*
X20994523Y-22681428D01*
X21089761Y-22610000D01*
X21327857Y-22610000D01*
X21423095Y-22681428D01*
X21470714Y-22752857D01*
X21518333Y-22895714D01*
X21518333Y-23252857D01*
X21470714Y-23395714D01*
X21423095Y-23467142D01*
X21327857Y-23538571D01*
X21089761Y-23538571D01*
X20994523Y-23467142D01*
X20946904Y-23395714D01*
X22137380Y-22038571D02*
X22232619Y-22038571D01*
X22327857Y-22110000D01*
X22375476Y-22181428D01*
X22423095Y-22324285D01*
X22470714Y-22610000D01*
X22470714Y-22967142D01*
X22423095Y-23252857D01*
X22375476Y-23395714D01*
X22327857Y-23467142D01*
X22232619Y-23538571D01*
X22137380Y-23538571D01*
X22042142Y-23467142D01*
X21994523Y-23395714D01*
X21946904Y-23252857D01*
X21899285Y-22967142D01*
X21899285Y-22610000D01*
X21946904Y-22324285D01*
X21994523Y-22181428D01*
X22042142Y-22110000D01*
X22137380Y-22038571D01*
X12358809Y-55288571D02*
X12358809Y-53788571D01*
X13406428Y-55145714D02*
X13358809Y-55217142D01*
X13215952Y-55288571D01*
X13120714Y-55288571D01*
X12977857Y-55217142D01*
X12882619Y-55074285D01*
X12835000Y-54931428D01*
X12787380Y-54645714D01*
X12787380Y-54431428D01*
X12835000Y-54145714D01*
X12882619Y-54002857D01*
X12977857Y-53860000D01*
X13120714Y-53788571D01*
X13215952Y-53788571D01*
X13358809Y-53860000D01*
X13406428Y-53931428D01*
X13739761Y-53788571D02*
X14406428Y-53788571D01*
X13977857Y-55288571D01*
X16946904Y-55288571D02*
X16946904Y-53788571D01*
X17280238Y-54860000D01*
X17613571Y-53788571D01*
X17613571Y-55288571D01*
X18661190Y-55145714D02*
X18613571Y-55217142D01*
X18470714Y-55288571D01*
X18375476Y-55288571D01*
X18232619Y-55217142D01*
X18137380Y-55074285D01*
X18089761Y-54931428D01*
X18042142Y-54645714D01*
X18042142Y-54431428D01*
X18089761Y-54145714D01*
X18137380Y-54002857D01*
X18232619Y-53860000D01*
X18375476Y-53788571D01*
X18470714Y-53788571D01*
X18613571Y-53860000D01*
X18661190Y-53931428D01*
X19518333Y-53788571D02*
X19327857Y-53788571D01*
X19232619Y-53860000D01*
X19185000Y-53931428D01*
X19089761Y-54145714D01*
X19042142Y-54431428D01*
X19042142Y-55002857D01*
X19089761Y-55145714D01*
X19137380Y-55217142D01*
X19232619Y-55288571D01*
X19423095Y-55288571D01*
X19518333Y-55217142D01*
X19565952Y-55145714D01*
X19613571Y-55002857D01*
X19613571Y-54645714D01*
X19565952Y-54502857D01*
X19518333Y-54431428D01*
X19423095Y-54360000D01*
X19232619Y-54360000D01*
X19137380Y-54431428D01*
X19089761Y-54502857D01*
X19042142Y-54645714D01*
X20185000Y-54431428D02*
X20089761Y-54360000D01*
X20042142Y-54288571D01*
X19994523Y-54145714D01*
X19994523Y-54074285D01*
X20042142Y-53931428D01*
X20089761Y-53860000D01*
X20185000Y-53788571D01*
X20375476Y-53788571D01*
X20470714Y-53860000D01*
X20518333Y-53931428D01*
X20565952Y-54074285D01*
X20565952Y-54145714D01*
X20518333Y-54288571D01*
X20470714Y-54360000D01*
X20375476Y-54431428D01*
X20185000Y-54431428D01*
X20089761Y-54502857D01*
X20042142Y-54574285D01*
X19994523Y-54717142D01*
X19994523Y-55002857D01*
X20042142Y-55145714D01*
X20089761Y-55217142D01*
X20185000Y-55288571D01*
X20375476Y-55288571D01*
X20470714Y-55217142D01*
X20518333Y-55145714D01*
X20565952Y-55002857D01*
X20565952Y-54717142D01*
X20518333Y-54574285D01*
X20470714Y-54502857D01*
X20375476Y-54431428D01*
X21470714Y-53788571D02*
X20994523Y-53788571D01*
X20946904Y-54502857D01*
X20994523Y-54431428D01*
X21089761Y-54360000D01*
X21327857Y-54360000D01*
X21423095Y-54431428D01*
X21470714Y-54502857D01*
X21518333Y-54645714D01*
X21518333Y-55002857D01*
X21470714Y-55145714D01*
X21423095Y-55217142D01*
X21327857Y-55288571D01*
X21089761Y-55288571D01*
X20994523Y-55217142D01*
X20946904Y-55145714D01*
X22137380Y-53788571D02*
X22232619Y-53788571D01*
X22327857Y-53860000D01*
X22375476Y-53931428D01*
X22423095Y-54074285D01*
X22470714Y-54360000D01*
X22470714Y-54717142D01*
X22423095Y-55002857D01*
X22375476Y-55145714D01*
X22327857Y-55217142D01*
X22232619Y-55288571D01*
X22137380Y-55288571D01*
X22042142Y-55217142D01*
X21994523Y-55145714D01*
X21946904Y-55002857D01*
X21899285Y-54717142D01*
X21899285Y-54360000D01*
X21946904Y-54074285D01*
X21994523Y-53931428D01*
X22042142Y-53860000D01*
X22137380Y-53788571D01*
X12358809Y-87038571D02*
X12358809Y-85538571D01*
X13406428Y-86895714D02*
X13358809Y-86967142D01*
X13215952Y-87038571D01*
X13120714Y-87038571D01*
X12977857Y-86967142D01*
X12882619Y-86824285D01*
X12835000Y-86681428D01*
X12787380Y-86395714D01*
X12787380Y-86181428D01*
X12835000Y-85895714D01*
X12882619Y-85752857D01*
X12977857Y-85610000D01*
X13120714Y-85538571D01*
X13215952Y-85538571D01*
X13358809Y-85610000D01*
X13406428Y-85681428D01*
X14263571Y-85538571D02*
X14073095Y-85538571D01*
X13977857Y-85610000D01*
X13930238Y-85681428D01*
X13835000Y-85895714D01*
X13787380Y-86181428D01*
X13787380Y-86752857D01*
X13835000Y-86895714D01*
X13882619Y-86967142D01*
X13977857Y-87038571D01*
X14168333Y-87038571D01*
X14263571Y-86967142D01*
X14311190Y-86895714D01*
X14358809Y-86752857D01*
X14358809Y-86395714D01*
X14311190Y-86252857D01*
X14263571Y-86181428D01*
X14168333Y-86110000D01*
X13977857Y-86110000D01*
X13882619Y-86181428D01*
X13835000Y-86252857D01*
X13787380Y-86395714D01*
X16946904Y-87038571D02*
X16946904Y-85538571D01*
X17280238Y-86610000D01*
X17613571Y-85538571D01*
X17613571Y-87038571D01*
X18661190Y-86895714D02*
X18613571Y-86967142D01*
X18470714Y-87038571D01*
X18375476Y-87038571D01*
X18232619Y-86967142D01*
X18137380Y-86824285D01*
X18089761Y-86681428D01*
X18042142Y-86395714D01*
X18042142Y-86181428D01*
X18089761Y-85895714D01*
X18137380Y-85752857D01*
X18232619Y-85610000D01*
X18375476Y-85538571D01*
X18470714Y-85538571D01*
X18613571Y-85610000D01*
X18661190Y-85681428D01*
X19518333Y-85538571D02*
X19327857Y-85538571D01*
X19232619Y-85610000D01*
X19185000Y-85681428D01*
X19089761Y-85895714D01*
X19042142Y-86181428D01*
X19042142Y-86752857D01*
X19089761Y-86895714D01*
X19137380Y-86967142D01*
X19232619Y-87038571D01*
X19423095Y-87038571D01*
X19518333Y-86967142D01*
X19565952Y-86895714D01*
X19613571Y-86752857D01*
X19613571Y-86395714D01*
X19565952Y-86252857D01*
X19518333Y-86181428D01*
X19423095Y-86110000D01*
X19232619Y-86110000D01*
X19137380Y-86181428D01*
X19089761Y-86252857D01*
X19042142Y-86395714D01*
X20185000Y-86181428D02*
X20089761Y-86110000D01*
X20042142Y-86038571D01*
X19994523Y-85895714D01*
X19994523Y-85824285D01*
X20042142Y-85681428D01*
X20089761Y-85610000D01*
X20185000Y-85538571D01*
X20375476Y-85538571D01*
X20470714Y-85610000D01*
X20518333Y-85681428D01*
X20565952Y-85824285D01*
X20565952Y-85895714D01*
X20518333Y-86038571D01*
X20470714Y-86110000D01*
X20375476Y-86181428D01*
X20185000Y-86181428D01*
X20089761Y-86252857D01*
X20042142Y-86324285D01*
X19994523Y-86467142D01*
X19994523Y-86752857D01*
X20042142Y-86895714D01*
X20089761Y-86967142D01*
X20185000Y-87038571D01*
X20375476Y-87038571D01*
X20470714Y-86967142D01*
X20518333Y-86895714D01*
X20565952Y-86752857D01*
X20565952Y-86467142D01*
X20518333Y-86324285D01*
X20470714Y-86252857D01*
X20375476Y-86181428D01*
X21470714Y-85538571D02*
X20994523Y-85538571D01*
X20946904Y-86252857D01*
X20994523Y-86181428D01*
X21089761Y-86110000D01*
X21327857Y-86110000D01*
X21423095Y-86181428D01*
X21470714Y-86252857D01*
X21518333Y-86395714D01*
X21518333Y-86752857D01*
X21470714Y-86895714D01*
X21423095Y-86967142D01*
X21327857Y-87038571D01*
X21089761Y-87038571D01*
X20994523Y-86967142D01*
X20946904Y-86895714D01*
X22137380Y-85538571D02*
X22232619Y-85538571D01*
X22327857Y-85610000D01*
X22375476Y-85681428D01*
X22423095Y-85824285D01*
X22470714Y-86110000D01*
X22470714Y-86467142D01*
X22423095Y-86752857D01*
X22375476Y-86895714D01*
X22327857Y-86967142D01*
X22232619Y-87038571D01*
X22137380Y-87038571D01*
X22042142Y-86967142D01*
X21994523Y-86895714D01*
X21946904Y-86752857D01*
X21899285Y-86467142D01*
X21899285Y-86110000D01*
X21946904Y-85824285D01*
X21994523Y-85681428D01*
X22042142Y-85610000D01*
X22137380Y-85538571D01*
X70477142Y-114978571D02*
X70143809Y-114264285D01*
X69905714Y-114978571D02*
X69905714Y-113478571D01*
X70286666Y-113478571D01*
X70381904Y-113550000D01*
X70429523Y-113621428D01*
X70477142Y-113764285D01*
X70477142Y-113978571D01*
X70429523Y-114121428D01*
X70381904Y-114192857D01*
X70286666Y-114264285D01*
X69905714Y-114264285D01*
X71429523Y-114978571D02*
X70858095Y-114978571D01*
X71143809Y-114978571D02*
X71143809Y-113478571D01*
X71048571Y-113692857D01*
X70953333Y-113835714D01*
X70858095Y-113907142D01*
X71810476Y-113621428D02*
X71858095Y-113550000D01*
X71953333Y-113478571D01*
X72191428Y-113478571D01*
X72286666Y-113550000D01*
X72334285Y-113621428D01*
X72381904Y-113764285D01*
X72381904Y-113907142D01*
X72334285Y-114121428D01*
X71762857Y-114978571D01*
X72381904Y-114978571D01*
X70577142Y-123158095D02*
X70520000Y-123110476D01*
X70462857Y-123015238D01*
X70462857Y-122777142D01*
X70520000Y-122681904D01*
X70577142Y-122634285D01*
X70691428Y-122586666D01*
X70805714Y-122586666D01*
X70977142Y-122634285D01*
X71662857Y-123205714D01*
X71662857Y-122586666D01*
X70577142Y-122205714D02*
X70520000Y-122158095D01*
X70462857Y-122062857D01*
X70462857Y-121824761D01*
X70520000Y-121729523D01*
X70577142Y-121681904D01*
X70691428Y-121634285D01*
X70805714Y-121634285D01*
X70977142Y-121681904D01*
X71662857Y-122253333D01*
X71662857Y-121634285D01*
X70462857Y-121015238D02*
X70462857Y-120920000D01*
X70520000Y-120824761D01*
X70577142Y-120777142D01*
X70691428Y-120729523D01*
X70920000Y-120681904D01*
X71205714Y-120681904D01*
X71434285Y-120729523D01*
X71548571Y-120777142D01*
X71605714Y-120824761D01*
X71662857Y-120920000D01*
X71662857Y-121015238D01*
X71605714Y-121110476D01*
X71548571Y-121158095D01*
X71434285Y-121205714D01*
X71205714Y-121253333D01*
X70920000Y-121253333D01*
X70691428Y-121205714D01*
X70577142Y-121158095D01*
X70520000Y-121110476D01*
X70462857Y-121015238D01*
X7453333Y-114978571D02*
X7120000Y-114264285D01*
X6881904Y-114978571D02*
X6881904Y-113478571D01*
X7262857Y-113478571D01*
X7358095Y-113550000D01*
X7405714Y-113621428D01*
X7453333Y-113764285D01*
X7453333Y-113978571D01*
X7405714Y-114121428D01*
X7358095Y-114192857D01*
X7262857Y-114264285D01*
X6881904Y-114264285D01*
X8358095Y-113478571D02*
X7881904Y-113478571D01*
X7834285Y-114192857D01*
X7881904Y-114121428D01*
X7977142Y-114050000D01*
X8215238Y-114050000D01*
X8310476Y-114121428D01*
X8358095Y-114192857D01*
X8405714Y-114335714D01*
X8405714Y-114692857D01*
X8358095Y-114835714D01*
X8310476Y-114907142D01*
X8215238Y-114978571D01*
X7977142Y-114978571D01*
X7881904Y-114907142D01*
X7834285Y-114835714D01*
X8162857Y-122134285D02*
X8162857Y-122705714D01*
X8162857Y-122420000D02*
X6962857Y-122420000D01*
X7134285Y-122515238D01*
X7248571Y-122610476D01*
X7305714Y-122705714D01*
X8162857Y-121705714D02*
X6962857Y-121705714D01*
X8162857Y-121134285D02*
X7477142Y-121562857D01*
X6962857Y-121134285D02*
X7648571Y-121705714D01*
X70477142Y-15918571D02*
X70143809Y-15204285D01*
X69905714Y-15918571D02*
X69905714Y-14418571D01*
X70286666Y-14418571D01*
X70381904Y-14490000D01*
X70429523Y-14561428D01*
X70477142Y-14704285D01*
X70477142Y-14918571D01*
X70429523Y-15061428D01*
X70381904Y-15132857D01*
X70286666Y-15204285D01*
X69905714Y-15204285D01*
X71429523Y-15918571D02*
X70858095Y-15918571D01*
X71143809Y-15918571D02*
X71143809Y-14418571D01*
X71048571Y-14632857D01*
X70953333Y-14775714D01*
X70858095Y-14847142D01*
X72286666Y-14918571D02*
X72286666Y-15918571D01*
X72048571Y-14347142D02*
X71810476Y-15418571D01*
X72429523Y-15418571D01*
X70577142Y-24098095D02*
X70520000Y-24050476D01*
X70462857Y-23955238D01*
X70462857Y-23717142D01*
X70520000Y-23621904D01*
X70577142Y-23574285D01*
X70691428Y-23526666D01*
X70805714Y-23526666D01*
X70977142Y-23574285D01*
X71662857Y-24145714D01*
X71662857Y-23526666D01*
X70577142Y-23145714D02*
X70520000Y-23098095D01*
X70462857Y-23002857D01*
X70462857Y-22764761D01*
X70520000Y-22669523D01*
X70577142Y-22621904D01*
X70691428Y-22574285D01*
X70805714Y-22574285D01*
X70977142Y-22621904D01*
X71662857Y-23193333D01*
X71662857Y-22574285D01*
X70462857Y-21955238D02*
X70462857Y-21860000D01*
X70520000Y-21764761D01*
X70577142Y-21717142D01*
X70691428Y-21669523D01*
X70920000Y-21621904D01*
X71205714Y-21621904D01*
X71434285Y-21669523D01*
X71548571Y-21717142D01*
X71605714Y-21764761D01*
X71662857Y-21860000D01*
X71662857Y-21955238D01*
X71605714Y-22050476D01*
X71548571Y-22098095D01*
X71434285Y-22145714D01*
X71205714Y-22193333D01*
X70920000Y-22193333D01*
X70691428Y-22145714D01*
X70577142Y-22098095D01*
X70520000Y-22050476D01*
X70462857Y-21955238D01*
X66032142Y-114978571D02*
X65698809Y-114264285D01*
X65460714Y-114978571D02*
X65460714Y-113478571D01*
X65841666Y-113478571D01*
X65936904Y-113550000D01*
X65984523Y-113621428D01*
X66032142Y-113764285D01*
X66032142Y-113978571D01*
X65984523Y-114121428D01*
X65936904Y-114192857D01*
X65841666Y-114264285D01*
X65460714Y-114264285D01*
X66984523Y-114978571D02*
X66413095Y-114978571D01*
X66698809Y-114978571D02*
X66698809Y-113478571D01*
X66603571Y-113692857D01*
X66508333Y-113835714D01*
X66413095Y-113907142D01*
X67317857Y-113478571D02*
X67936904Y-113478571D01*
X67603571Y-114050000D01*
X67746428Y-114050000D01*
X67841666Y-114121428D01*
X67889285Y-114192857D01*
X67936904Y-114335714D01*
X67936904Y-114692857D01*
X67889285Y-114835714D01*
X67841666Y-114907142D01*
X67746428Y-114978571D01*
X67460714Y-114978571D01*
X67365476Y-114907142D01*
X67317857Y-114835714D01*
X66132142Y-123158095D02*
X66075000Y-123110476D01*
X66017857Y-123015238D01*
X66017857Y-122777142D01*
X66075000Y-122681904D01*
X66132142Y-122634285D01*
X66246428Y-122586666D01*
X66360714Y-122586666D01*
X66532142Y-122634285D01*
X67217857Y-123205714D01*
X67217857Y-122586666D01*
X66132142Y-122205714D02*
X66075000Y-122158095D01*
X66017857Y-122062857D01*
X66017857Y-121824761D01*
X66075000Y-121729523D01*
X66132142Y-121681904D01*
X66246428Y-121634285D01*
X66360714Y-121634285D01*
X66532142Y-121681904D01*
X67217857Y-122253333D01*
X67217857Y-121634285D01*
X66017857Y-121015238D02*
X66017857Y-120920000D01*
X66075000Y-120824761D01*
X66132142Y-120777142D01*
X66246428Y-120729523D01*
X66475000Y-120681904D01*
X66760714Y-120681904D01*
X66989285Y-120729523D01*
X67103571Y-120777142D01*
X67160714Y-120824761D01*
X67217857Y-120920000D01*
X67217857Y-121015238D01*
X67160714Y-121110476D01*
X67103571Y-121158095D01*
X66989285Y-121205714D01*
X66760714Y-121253333D01*
X66475000Y-121253333D01*
X66246428Y-121205714D01*
X66132142Y-121158095D01*
X66075000Y-121110476D01*
X66017857Y-121015238D01*
X57142142Y-114978571D02*
X56808809Y-114264285D01*
X56570714Y-114978571D02*
X56570714Y-113478571D01*
X56951666Y-113478571D01*
X57046904Y-113550000D01*
X57094523Y-113621428D01*
X57142142Y-113764285D01*
X57142142Y-113978571D01*
X57094523Y-114121428D01*
X57046904Y-114192857D01*
X56951666Y-114264285D01*
X56570714Y-114264285D01*
X58094523Y-114978571D02*
X57523095Y-114978571D01*
X57808809Y-114978571D02*
X57808809Y-113478571D01*
X57713571Y-113692857D01*
X57618333Y-113835714D01*
X57523095Y-113907142D01*
X59046904Y-114978571D02*
X58475476Y-114978571D01*
X58761190Y-114978571D02*
X58761190Y-113478571D01*
X58665952Y-113692857D01*
X58570714Y-113835714D01*
X58475476Y-113907142D01*
X57242142Y-123158095D02*
X57185000Y-123110476D01*
X57127857Y-123015238D01*
X57127857Y-122777142D01*
X57185000Y-122681904D01*
X57242142Y-122634285D01*
X57356428Y-122586666D01*
X57470714Y-122586666D01*
X57642142Y-122634285D01*
X58327857Y-123205714D01*
X58327857Y-122586666D01*
X57242142Y-122205714D02*
X57185000Y-122158095D01*
X57127857Y-122062857D01*
X57127857Y-121824761D01*
X57185000Y-121729523D01*
X57242142Y-121681904D01*
X57356428Y-121634285D01*
X57470714Y-121634285D01*
X57642142Y-121681904D01*
X58327857Y-122253333D01*
X58327857Y-121634285D01*
X57127857Y-121015238D02*
X57127857Y-120920000D01*
X57185000Y-120824761D01*
X57242142Y-120777142D01*
X57356428Y-120729523D01*
X57585000Y-120681904D01*
X57870714Y-120681904D01*
X58099285Y-120729523D01*
X58213571Y-120777142D01*
X58270714Y-120824761D01*
X58327857Y-120920000D01*
X58327857Y-121015238D01*
X58270714Y-121110476D01*
X58213571Y-121158095D01*
X58099285Y-121205714D01*
X57870714Y-121253333D01*
X57585000Y-121253333D01*
X57356428Y-121205714D01*
X57242142Y-121158095D01*
X57185000Y-121110476D01*
X57127857Y-121015238D01*
X61587142Y-114978571D02*
X61253809Y-114264285D01*
X61015714Y-114978571D02*
X61015714Y-113478571D01*
X61396666Y-113478571D01*
X61491904Y-113550000D01*
X61539523Y-113621428D01*
X61587142Y-113764285D01*
X61587142Y-113978571D01*
X61539523Y-114121428D01*
X61491904Y-114192857D01*
X61396666Y-114264285D01*
X61015714Y-114264285D01*
X62539523Y-114978571D02*
X61968095Y-114978571D01*
X62253809Y-114978571D02*
X62253809Y-113478571D01*
X62158571Y-113692857D01*
X62063333Y-113835714D01*
X61968095Y-113907142D01*
X63158571Y-113478571D02*
X63253809Y-113478571D01*
X63349047Y-113550000D01*
X63396666Y-113621428D01*
X63444285Y-113764285D01*
X63491904Y-114050000D01*
X63491904Y-114407142D01*
X63444285Y-114692857D01*
X63396666Y-114835714D01*
X63349047Y-114907142D01*
X63253809Y-114978571D01*
X63158571Y-114978571D01*
X63063333Y-114907142D01*
X63015714Y-114835714D01*
X62968095Y-114692857D01*
X62920476Y-114407142D01*
X62920476Y-114050000D01*
X62968095Y-113764285D01*
X63015714Y-113621428D01*
X63063333Y-113550000D01*
X63158571Y-113478571D01*
X61687142Y-123158095D02*
X61630000Y-123110476D01*
X61572857Y-123015238D01*
X61572857Y-122777142D01*
X61630000Y-122681904D01*
X61687142Y-122634285D01*
X61801428Y-122586666D01*
X61915714Y-122586666D01*
X62087142Y-122634285D01*
X62772857Y-123205714D01*
X62772857Y-122586666D01*
X61687142Y-122205714D02*
X61630000Y-122158095D01*
X61572857Y-122062857D01*
X61572857Y-121824761D01*
X61630000Y-121729523D01*
X61687142Y-121681904D01*
X61801428Y-121634285D01*
X61915714Y-121634285D01*
X62087142Y-121681904D01*
X62772857Y-122253333D01*
X62772857Y-121634285D01*
X61572857Y-121015238D02*
X61572857Y-120920000D01*
X61630000Y-120824761D01*
X61687142Y-120777142D01*
X61801428Y-120729523D01*
X62030000Y-120681904D01*
X62315714Y-120681904D01*
X62544285Y-120729523D01*
X62658571Y-120777142D01*
X62715714Y-120824761D01*
X62772857Y-120920000D01*
X62772857Y-121015238D01*
X62715714Y-121110476D01*
X62658571Y-121158095D01*
X62544285Y-121205714D01*
X62315714Y-121253333D01*
X62030000Y-121253333D01*
X61801428Y-121205714D01*
X61687142Y-121158095D01*
X61630000Y-121110476D01*
X61572857Y-121015238D01*
X48728333Y-114978571D02*
X48395000Y-114264285D01*
X48156904Y-114978571D02*
X48156904Y-113478571D01*
X48537857Y-113478571D01*
X48633095Y-113550000D01*
X48680714Y-113621428D01*
X48728333Y-113764285D01*
X48728333Y-113978571D01*
X48680714Y-114121428D01*
X48633095Y-114192857D01*
X48537857Y-114264285D01*
X48156904Y-114264285D01*
X49204523Y-114978571D02*
X49395000Y-114978571D01*
X49490238Y-114907142D01*
X49537857Y-114835714D01*
X49633095Y-114621428D01*
X49680714Y-114335714D01*
X49680714Y-113764285D01*
X49633095Y-113621428D01*
X49585476Y-113550000D01*
X49490238Y-113478571D01*
X49299761Y-113478571D01*
X49204523Y-113550000D01*
X49156904Y-113621428D01*
X49109285Y-113764285D01*
X49109285Y-114121428D01*
X49156904Y-114264285D01*
X49204523Y-114335714D01*
X49299761Y-114407142D01*
X49490238Y-114407142D01*
X49585476Y-114335714D01*
X49633095Y-114264285D01*
X49680714Y-114121428D01*
X48352142Y-123158095D02*
X48295000Y-123110476D01*
X48237857Y-123015238D01*
X48237857Y-122777142D01*
X48295000Y-122681904D01*
X48352142Y-122634285D01*
X48466428Y-122586666D01*
X48580714Y-122586666D01*
X48752142Y-122634285D01*
X49437857Y-123205714D01*
X49437857Y-122586666D01*
X48352142Y-122205714D02*
X48295000Y-122158095D01*
X48237857Y-122062857D01*
X48237857Y-121824761D01*
X48295000Y-121729523D01*
X48352142Y-121681904D01*
X48466428Y-121634285D01*
X48580714Y-121634285D01*
X48752142Y-121681904D01*
X49437857Y-122253333D01*
X49437857Y-121634285D01*
X48237857Y-121015238D02*
X48237857Y-120920000D01*
X48295000Y-120824761D01*
X48352142Y-120777142D01*
X48466428Y-120729523D01*
X48695000Y-120681904D01*
X48980714Y-120681904D01*
X49209285Y-120729523D01*
X49323571Y-120777142D01*
X49380714Y-120824761D01*
X49437857Y-120920000D01*
X49437857Y-121015238D01*
X49380714Y-121110476D01*
X49323571Y-121158095D01*
X49209285Y-121205714D01*
X48980714Y-121253333D01*
X48695000Y-121253333D01*
X48466428Y-121205714D01*
X48352142Y-121158095D01*
X48295000Y-121110476D01*
X48237857Y-121015238D01*
X53173333Y-114978571D02*
X52840000Y-114264285D01*
X52601904Y-114978571D02*
X52601904Y-113478571D01*
X52982857Y-113478571D01*
X53078095Y-113550000D01*
X53125714Y-113621428D01*
X53173333Y-113764285D01*
X53173333Y-113978571D01*
X53125714Y-114121428D01*
X53078095Y-114192857D01*
X52982857Y-114264285D01*
X52601904Y-114264285D01*
X53744761Y-114121428D02*
X53649523Y-114050000D01*
X53601904Y-113978571D01*
X53554285Y-113835714D01*
X53554285Y-113764285D01*
X53601904Y-113621428D01*
X53649523Y-113550000D01*
X53744761Y-113478571D01*
X53935238Y-113478571D01*
X54030476Y-113550000D01*
X54078095Y-113621428D01*
X54125714Y-113764285D01*
X54125714Y-113835714D01*
X54078095Y-113978571D01*
X54030476Y-114050000D01*
X53935238Y-114121428D01*
X53744761Y-114121428D01*
X53649523Y-114192857D01*
X53601904Y-114264285D01*
X53554285Y-114407142D01*
X53554285Y-114692857D01*
X53601904Y-114835714D01*
X53649523Y-114907142D01*
X53744761Y-114978571D01*
X53935238Y-114978571D01*
X54030476Y-114907142D01*
X54078095Y-114835714D01*
X54125714Y-114692857D01*
X54125714Y-114407142D01*
X54078095Y-114264285D01*
X54030476Y-114192857D01*
X53935238Y-114121428D01*
X52797142Y-123158095D02*
X52740000Y-123110476D01*
X52682857Y-123015238D01*
X52682857Y-122777142D01*
X52740000Y-122681904D01*
X52797142Y-122634285D01*
X52911428Y-122586666D01*
X53025714Y-122586666D01*
X53197142Y-122634285D01*
X53882857Y-123205714D01*
X53882857Y-122586666D01*
X52797142Y-122205714D02*
X52740000Y-122158095D01*
X52682857Y-122062857D01*
X52682857Y-121824761D01*
X52740000Y-121729523D01*
X52797142Y-121681904D01*
X52911428Y-121634285D01*
X53025714Y-121634285D01*
X53197142Y-121681904D01*
X53882857Y-122253333D01*
X53882857Y-121634285D01*
X52682857Y-121015238D02*
X52682857Y-120920000D01*
X52740000Y-120824761D01*
X52797142Y-120777142D01*
X52911428Y-120729523D01*
X53140000Y-120681904D01*
X53425714Y-120681904D01*
X53654285Y-120729523D01*
X53768571Y-120777142D01*
X53825714Y-120824761D01*
X53882857Y-120920000D01*
X53882857Y-121015238D01*
X53825714Y-121110476D01*
X53768571Y-121158095D01*
X53654285Y-121205714D01*
X53425714Y-121253333D01*
X53140000Y-121253333D01*
X52911428Y-121205714D01*
X52797142Y-121158095D01*
X52740000Y-121110476D01*
X52682857Y-121015238D01*
X65873333Y-15918571D02*
X65540000Y-15204285D01*
X65301904Y-15918571D02*
X65301904Y-14418571D01*
X65682857Y-14418571D01*
X65778095Y-14490000D01*
X65825714Y-14561428D01*
X65873333Y-14704285D01*
X65873333Y-14918571D01*
X65825714Y-15061428D01*
X65778095Y-15132857D01*
X65682857Y-15204285D01*
X65301904Y-15204285D01*
X66730476Y-14418571D02*
X66540000Y-14418571D01*
X66444761Y-14490000D01*
X66397142Y-14561428D01*
X66301904Y-14775714D01*
X66254285Y-15061428D01*
X66254285Y-15632857D01*
X66301904Y-15775714D01*
X66349523Y-15847142D01*
X66444761Y-15918571D01*
X66635238Y-15918571D01*
X66730476Y-15847142D01*
X66778095Y-15775714D01*
X66825714Y-15632857D01*
X66825714Y-15275714D01*
X66778095Y-15132857D01*
X66730476Y-15061428D01*
X66635238Y-14990000D01*
X66444761Y-14990000D01*
X66349523Y-15061428D01*
X66301904Y-15132857D01*
X66254285Y-15275714D01*
X66582857Y-23550476D02*
X66582857Y-24121904D01*
X66582857Y-23836190D02*
X65382857Y-23836190D01*
X65554285Y-23931428D01*
X65668571Y-24026666D01*
X65725714Y-24121904D01*
X65382857Y-22931428D02*
X65382857Y-22836190D01*
X65440000Y-22740952D01*
X65497142Y-22693333D01*
X65611428Y-22645714D01*
X65840000Y-22598095D01*
X66125714Y-22598095D01*
X66354285Y-22645714D01*
X66468571Y-22693333D01*
X66525714Y-22740952D01*
X66582857Y-22836190D01*
X66582857Y-22931428D01*
X66525714Y-23026666D01*
X66468571Y-23074285D01*
X66354285Y-23121904D01*
X66125714Y-23169523D01*
X65840000Y-23169523D01*
X65611428Y-23121904D01*
X65497142Y-23074285D01*
X65440000Y-23026666D01*
X65382857Y-22931428D01*
X66582857Y-22169523D02*
X65382857Y-22169523D01*
X66582857Y-21598095D02*
X65897142Y-22026666D01*
X65382857Y-21598095D02*
X66068571Y-22169523D01*
X21423333Y-114648371D02*
X21090000Y-113934085D01*
X20851904Y-114648371D02*
X20851904Y-113148371D01*
X21232857Y-113148371D01*
X21328095Y-113219800D01*
X21375714Y-113291228D01*
X21423333Y-113434085D01*
X21423333Y-113648371D01*
X21375714Y-113791228D01*
X21328095Y-113862657D01*
X21232857Y-113934085D01*
X20851904Y-113934085D01*
X22280476Y-113648371D02*
X22280476Y-114648371D01*
X22042380Y-113076942D02*
X21804285Y-114148371D01*
X22423333Y-114148371D01*
X20932857Y-123205714D02*
X20932857Y-122586666D01*
X21390000Y-122920000D01*
X21390000Y-122777142D01*
X21447142Y-122681904D01*
X21504285Y-122634285D01*
X21618571Y-122586666D01*
X21904285Y-122586666D01*
X22018571Y-122634285D01*
X22075714Y-122681904D01*
X22132857Y-122777142D01*
X22132857Y-123062857D01*
X22075714Y-123158095D01*
X22018571Y-123205714D01*
X20932857Y-122253333D02*
X20932857Y-121634285D01*
X21390000Y-121967619D01*
X21390000Y-121824761D01*
X21447142Y-121729523D01*
X21504285Y-121681904D01*
X21618571Y-121634285D01*
X21904285Y-121634285D01*
X22018571Y-121681904D01*
X22075714Y-121729523D01*
X22132857Y-121824761D01*
X22132857Y-122110476D01*
X22075714Y-122205714D01*
X22018571Y-122253333D01*
X20932857Y-121015238D02*
X20932857Y-120920000D01*
X20990000Y-120824761D01*
X21047142Y-120777142D01*
X21161428Y-120729523D01*
X21390000Y-120681904D01*
X21675714Y-120681904D01*
X21904285Y-120729523D01*
X22018571Y-120777142D01*
X22075714Y-120824761D01*
X22132857Y-120920000D01*
X22132857Y-121015238D01*
X22075714Y-121110476D01*
X22018571Y-121158095D01*
X21904285Y-121205714D01*
X21675714Y-121253333D01*
X21390000Y-121253333D01*
X21161428Y-121205714D01*
X21047142Y-121158095D01*
X20990000Y-121110476D01*
X20932857Y-121015238D01*
X16978333Y-114648371D02*
X16645000Y-113934085D01*
X16406904Y-114648371D02*
X16406904Y-113148371D01*
X16787857Y-113148371D01*
X16883095Y-113219800D01*
X16930714Y-113291228D01*
X16978333Y-113434085D01*
X16978333Y-113648371D01*
X16930714Y-113791228D01*
X16883095Y-113862657D01*
X16787857Y-113934085D01*
X16406904Y-113934085D01*
X17311666Y-113148371D02*
X17930714Y-113148371D01*
X17597380Y-113719800D01*
X17740238Y-113719800D01*
X17835476Y-113791228D01*
X17883095Y-113862657D01*
X17930714Y-114005514D01*
X17930714Y-114362657D01*
X17883095Y-114505514D01*
X17835476Y-114576942D01*
X17740238Y-114648371D01*
X17454523Y-114648371D01*
X17359285Y-114576942D01*
X17311666Y-114505514D01*
X16487857Y-123205714D02*
X16487857Y-122586666D01*
X16945000Y-122920000D01*
X16945000Y-122777142D01*
X17002142Y-122681904D01*
X17059285Y-122634285D01*
X17173571Y-122586666D01*
X17459285Y-122586666D01*
X17573571Y-122634285D01*
X17630714Y-122681904D01*
X17687857Y-122777142D01*
X17687857Y-123062857D01*
X17630714Y-123158095D01*
X17573571Y-123205714D01*
X16487857Y-122253333D02*
X16487857Y-121634285D01*
X16945000Y-121967619D01*
X16945000Y-121824761D01*
X17002142Y-121729523D01*
X17059285Y-121681904D01*
X17173571Y-121634285D01*
X17459285Y-121634285D01*
X17573571Y-121681904D01*
X17630714Y-121729523D01*
X17687857Y-121824761D01*
X17687857Y-122110476D01*
X17630714Y-122205714D01*
X17573571Y-122253333D01*
X16487857Y-121015238D02*
X16487857Y-120920000D01*
X16545000Y-120824761D01*
X16602142Y-120777142D01*
X16716428Y-120729523D01*
X16945000Y-120681904D01*
X17230714Y-120681904D01*
X17459285Y-120729523D01*
X17573571Y-120777142D01*
X17630714Y-120824761D01*
X17687857Y-120920000D01*
X17687857Y-121015238D01*
X17630714Y-121110476D01*
X17573571Y-121158095D01*
X17459285Y-121205714D01*
X17230714Y-121253333D01*
X16945000Y-121253333D01*
X16716428Y-121205714D01*
X16602142Y-121158095D01*
X16545000Y-121110476D01*
X16487857Y-121015238D01*
X52363809Y-15918571D02*
X52363809Y-14418571D01*
X53411428Y-15775714D02*
X53363809Y-15847142D01*
X53220952Y-15918571D01*
X53125714Y-15918571D01*
X52982857Y-15847142D01*
X52887619Y-15704285D01*
X52840000Y-15561428D01*
X52792380Y-15275714D01*
X52792380Y-15061428D01*
X52840000Y-14775714D01*
X52887619Y-14632857D01*
X52982857Y-14490000D01*
X53125714Y-14418571D01*
X53220952Y-14418571D01*
X53363809Y-14490000D01*
X53411428Y-14561428D01*
X53887619Y-15918571D02*
X54078095Y-15918571D01*
X54173333Y-15847142D01*
X54220952Y-15775714D01*
X54316190Y-15561428D01*
X54363809Y-15275714D01*
X54363809Y-14704285D01*
X54316190Y-14561428D01*
X54268571Y-14490000D01*
X54173333Y-14418571D01*
X53982857Y-14418571D01*
X53887619Y-14490000D01*
X53840000Y-14561428D01*
X53792380Y-14704285D01*
X53792380Y-15061428D01*
X53840000Y-15204285D01*
X53887619Y-15275714D01*
X53982857Y-15347142D01*
X54173333Y-15347142D01*
X54268571Y-15275714D01*
X54316190Y-15204285D01*
X54363809Y-15061428D01*
X57928095Y-14418571D02*
X57737619Y-14418571D01*
X57642380Y-14490000D01*
X57594761Y-14561428D01*
X57499523Y-14775714D01*
X57451904Y-15061428D01*
X57451904Y-15632857D01*
X57499523Y-15775714D01*
X57547142Y-15847142D01*
X57642380Y-15918571D01*
X57832857Y-15918571D01*
X57928095Y-15847142D01*
X57975714Y-15775714D01*
X58023333Y-15632857D01*
X58023333Y-15275714D01*
X57975714Y-15132857D01*
X57928095Y-15061428D01*
X57832857Y-14990000D01*
X57642380Y-14990000D01*
X57547142Y-15061428D01*
X57499523Y-15132857D01*
X57451904Y-15275714D01*
X58451904Y-15918571D02*
X58451904Y-14418571D01*
X59023333Y-15918571D01*
X59023333Y-14418571D01*
X60023333Y-15918571D02*
X59451904Y-15918571D01*
X59737619Y-15918571D02*
X59737619Y-14418571D01*
X59642380Y-14632857D01*
X59547142Y-14775714D01*
X59451904Y-14847142D01*
X60356666Y-14418571D02*
X60975714Y-14418571D01*
X60642380Y-14990000D01*
X60785238Y-14990000D01*
X60880476Y-15061428D01*
X60928095Y-15132857D01*
X60975714Y-15275714D01*
X60975714Y-15632857D01*
X60928095Y-15775714D01*
X60880476Y-15847142D01*
X60785238Y-15918571D01*
X60499523Y-15918571D01*
X60404285Y-15847142D01*
X60356666Y-15775714D01*
X61309047Y-14418571D02*
X61975714Y-14418571D01*
X61547142Y-15918571D01*
D13*
X72256666Y-31797571D02*
X72218571Y-31854714D01*
X72104285Y-31911857D01*
X72028095Y-31911857D01*
X71913809Y-31854714D01*
X71837619Y-31740428D01*
X71799523Y-31626142D01*
X71761428Y-31397571D01*
X71761428Y-31226142D01*
X71799523Y-30997571D01*
X71837619Y-30883285D01*
X71913809Y-30769000D01*
X72028095Y-30711857D01*
X72104285Y-30711857D01*
X72218571Y-30769000D01*
X72256666Y-30826142D01*
X73018571Y-31911857D02*
X72561428Y-31911857D01*
X72790000Y-31911857D02*
X72790000Y-30711857D01*
X72713809Y-30883285D01*
X72637619Y-30997571D01*
X72561428Y-31054714D01*
X71847142Y-41065238D02*
X71790000Y-41027142D01*
X71732857Y-40950952D01*
X71732857Y-40760476D01*
X71790000Y-40684285D01*
X71847142Y-40646190D01*
X71961428Y-40608095D01*
X72075714Y-40608095D01*
X72247142Y-40646190D01*
X72932857Y-41103333D01*
X72932857Y-40608095D01*
X71847142Y-40303333D02*
X71790000Y-40265238D01*
X71732857Y-40189047D01*
X71732857Y-39998571D01*
X71790000Y-39922380D01*
X71847142Y-39884285D01*
X71961428Y-39846190D01*
X72075714Y-39846190D01*
X72247142Y-39884285D01*
X72932857Y-40341428D01*
X72932857Y-39846190D01*
X71732857Y-39350952D02*
X71732857Y-39274761D01*
X71790000Y-39198571D01*
X71847142Y-39160476D01*
X71961428Y-39122380D01*
X72190000Y-39084285D01*
X72475714Y-39084285D01*
X72704285Y-39122380D01*
X72818571Y-39160476D01*
X72875714Y-39198571D01*
X72932857Y-39274761D01*
X72932857Y-39350952D01*
X72875714Y-39427142D01*
X72818571Y-39465238D01*
X72704285Y-39503333D01*
X72475714Y-39541428D01*
X72190000Y-39541428D01*
X71961428Y-39503333D01*
X71847142Y-39465238D01*
X71790000Y-39427142D01*
X71732857Y-39350952D01*
X72132857Y-38741428D02*
X73332857Y-38741428D01*
X72190000Y-38741428D02*
X72132857Y-38665238D01*
X72132857Y-38512857D01*
X72190000Y-38436666D01*
X72247142Y-38398571D01*
X72361428Y-38360476D01*
X72704285Y-38360476D01*
X72818571Y-38398571D01*
X72875714Y-38436666D01*
X72932857Y-38512857D01*
X72932857Y-38665238D01*
X72875714Y-38741428D01*
X72304285Y-37750952D02*
X72304285Y-38017619D01*
X72932857Y-38017619D02*
X71732857Y-38017619D01*
X71732857Y-37636666D01*
X6831666Y-95498571D02*
X6793571Y-95555714D01*
X6679285Y-95612857D01*
X6603095Y-95612857D01*
X6488809Y-95555714D01*
X6412619Y-95441428D01*
X6374523Y-95327142D01*
X6336428Y-95098571D01*
X6336428Y-94927142D01*
X6374523Y-94698571D01*
X6412619Y-94584285D01*
X6488809Y-94470000D01*
X6603095Y-94412857D01*
X6679285Y-94412857D01*
X6793571Y-94470000D01*
X6831666Y-94527142D01*
X7098333Y-94412857D02*
X7593571Y-94412857D01*
X7326904Y-94870000D01*
X7441190Y-94870000D01*
X7517380Y-94927142D01*
X7555476Y-94984285D01*
X7593571Y-95098571D01*
X7593571Y-95384285D01*
X7555476Y-95498571D01*
X7517380Y-95555714D01*
X7441190Y-95612857D01*
X7212619Y-95612857D01*
X7136428Y-95555714D01*
X7098333Y-95498571D01*
X5670714Y-95862857D02*
X5746904Y-95862857D01*
X5823095Y-95920000D01*
X5861190Y-95977142D01*
X5899285Y-96091428D01*
X5937380Y-96320000D01*
X5937380Y-96605714D01*
X5899285Y-96834285D01*
X5861190Y-96948571D01*
X5823095Y-97005714D01*
X5746904Y-97062857D01*
X5670714Y-97062857D01*
X5594523Y-97005714D01*
X5556428Y-96948571D01*
X5518333Y-96834285D01*
X5480238Y-96605714D01*
X5480238Y-96320000D01*
X5518333Y-96091428D01*
X5556428Y-95977142D01*
X5594523Y-95920000D01*
X5670714Y-95862857D01*
X6280238Y-96948571D02*
X6318333Y-97005714D01*
X6280238Y-97062857D01*
X6242142Y-97005714D01*
X6280238Y-96948571D01*
X6280238Y-97062857D01*
X7080238Y-97062857D02*
X6623095Y-97062857D01*
X6851666Y-97062857D02*
X6851666Y-95862857D01*
X6775476Y-96034285D01*
X6699285Y-96148571D01*
X6623095Y-96205714D01*
X7765952Y-96262857D02*
X7765952Y-97062857D01*
X7423095Y-96262857D02*
X7423095Y-96891428D01*
X7461190Y-97005714D01*
X7537380Y-97062857D01*
X7651666Y-97062857D01*
X7727857Y-97005714D01*
X7765952Y-96948571D01*
X8413571Y-96434285D02*
X8146904Y-96434285D01*
X8146904Y-97062857D02*
X8146904Y-95862857D01*
X8527857Y-95862857D01*
X40760714Y-23923571D02*
X40722619Y-23980714D01*
X40608333Y-24037857D01*
X40532142Y-24037857D01*
X40417857Y-23980714D01*
X40341666Y-23866428D01*
X40303571Y-23752142D01*
X40265476Y-23523571D01*
X40265476Y-23352142D01*
X40303571Y-23123571D01*
X40341666Y-23009285D01*
X40417857Y-22895000D01*
X40532142Y-22837857D01*
X40608333Y-22837857D01*
X40722619Y-22895000D01*
X40760714Y-22952142D01*
X41522619Y-24037857D02*
X41065476Y-24037857D01*
X41294047Y-24037857D02*
X41294047Y-22837857D01*
X41217857Y-23009285D01*
X41141666Y-23123571D01*
X41065476Y-23180714D01*
X41827380Y-22952142D02*
X41865476Y-22895000D01*
X41941666Y-22837857D01*
X42132142Y-22837857D01*
X42208333Y-22895000D01*
X42246428Y-22952142D01*
X42284523Y-23066428D01*
X42284523Y-23180714D01*
X42246428Y-23352142D01*
X41789285Y-24037857D01*
X42284523Y-24037857D01*
X44227857Y-24037857D02*
X43770714Y-24037857D01*
X43999285Y-24037857D02*
X43999285Y-22837857D01*
X43923095Y-23009285D01*
X43846904Y-23123571D01*
X43770714Y-23180714D01*
X44723095Y-22837857D02*
X44799285Y-22837857D01*
X44875476Y-22895000D01*
X44913571Y-22952142D01*
X44951666Y-23066428D01*
X44989761Y-23295000D01*
X44989761Y-23580714D01*
X44951666Y-23809285D01*
X44913571Y-23923571D01*
X44875476Y-23980714D01*
X44799285Y-24037857D01*
X44723095Y-24037857D01*
X44646904Y-23980714D01*
X44608809Y-23923571D01*
X44570714Y-23809285D01*
X44532619Y-23580714D01*
X44532619Y-23295000D01*
X44570714Y-23066428D01*
X44608809Y-22952142D01*
X44646904Y-22895000D01*
X44723095Y-22837857D01*
X45675476Y-23237857D02*
X45675476Y-24037857D01*
X45332619Y-23237857D02*
X45332619Y-23866428D01*
X45370714Y-23980714D01*
X45446904Y-24037857D01*
X45561190Y-24037857D01*
X45637380Y-23980714D01*
X45675476Y-23923571D01*
X46323095Y-23409285D02*
X46056428Y-23409285D01*
X46056428Y-24037857D02*
X46056428Y-22837857D01*
X46437380Y-22837857D01*
X44951666Y-100631571D02*
X44913571Y-100688714D01*
X44799285Y-100745857D01*
X44723095Y-100745857D01*
X44608809Y-100688714D01*
X44532619Y-100574428D01*
X44494523Y-100460142D01*
X44456428Y-100231571D01*
X44456428Y-100060142D01*
X44494523Y-99831571D01*
X44532619Y-99717285D01*
X44608809Y-99603000D01*
X44723095Y-99545857D01*
X44799285Y-99545857D01*
X44913571Y-99603000D01*
X44951666Y-99660142D01*
X45408809Y-100060142D02*
X45332619Y-100003000D01*
X45294523Y-99945857D01*
X45256428Y-99831571D01*
X45256428Y-99774428D01*
X45294523Y-99660142D01*
X45332619Y-99603000D01*
X45408809Y-99545857D01*
X45561190Y-99545857D01*
X45637380Y-99603000D01*
X45675476Y-99660142D01*
X45713571Y-99774428D01*
X45713571Y-99831571D01*
X45675476Y-99945857D01*
X45637380Y-100003000D01*
X45561190Y-100060142D01*
X45408809Y-100060142D01*
X45332619Y-100117285D01*
X45294523Y-100174428D01*
X45256428Y-100288714D01*
X45256428Y-100517285D01*
X45294523Y-100631571D01*
X45332619Y-100688714D01*
X45408809Y-100745857D01*
X45561190Y-100745857D01*
X45637380Y-100688714D01*
X45675476Y-100631571D01*
X45713571Y-100517285D01*
X45713571Y-100288714D01*
X45675476Y-100174428D01*
X45637380Y-100117285D01*
X45561190Y-100060142D01*
X43770714Y-106276857D02*
X43846904Y-106276857D01*
X43923095Y-106334000D01*
X43961190Y-106391142D01*
X43999285Y-106505428D01*
X44037380Y-106734000D01*
X44037380Y-107019714D01*
X43999285Y-107248285D01*
X43961190Y-107362571D01*
X43923095Y-107419714D01*
X43846904Y-107476857D01*
X43770714Y-107476857D01*
X43694523Y-107419714D01*
X43656428Y-107362571D01*
X43618333Y-107248285D01*
X43580238Y-107019714D01*
X43580238Y-106734000D01*
X43618333Y-106505428D01*
X43656428Y-106391142D01*
X43694523Y-106334000D01*
X43770714Y-106276857D01*
X44380238Y-107362571D02*
X44418333Y-107419714D01*
X44380238Y-107476857D01*
X44342142Y-107419714D01*
X44380238Y-107362571D01*
X44380238Y-107476857D01*
X45180238Y-107476857D02*
X44723095Y-107476857D01*
X44951666Y-107476857D02*
X44951666Y-106276857D01*
X44875476Y-106448285D01*
X44799285Y-106562571D01*
X44723095Y-106619714D01*
X45865952Y-106676857D02*
X45865952Y-107476857D01*
X45523095Y-106676857D02*
X45523095Y-107305428D01*
X45561190Y-107419714D01*
X45637380Y-107476857D01*
X45751666Y-107476857D01*
X45827857Y-107419714D01*
X45865952Y-107362571D01*
X46513571Y-106848285D02*
X46246904Y-106848285D01*
X46246904Y-107476857D02*
X46246904Y-106276857D01*
X46627857Y-106276857D01*
X44951666Y-68881571D02*
X44913571Y-68938714D01*
X44799285Y-68995857D01*
X44723095Y-68995857D01*
X44608809Y-68938714D01*
X44532619Y-68824428D01*
X44494523Y-68710142D01*
X44456428Y-68481571D01*
X44456428Y-68310142D01*
X44494523Y-68081571D01*
X44532619Y-67967285D01*
X44608809Y-67853000D01*
X44723095Y-67795857D01*
X44799285Y-67795857D01*
X44913571Y-67853000D01*
X44951666Y-67910142D01*
X45218333Y-67795857D02*
X45751666Y-67795857D01*
X45408809Y-68995857D01*
X43770714Y-74399857D02*
X43846904Y-74399857D01*
X43923095Y-74457000D01*
X43961190Y-74514142D01*
X43999285Y-74628428D01*
X44037380Y-74857000D01*
X44037380Y-75142714D01*
X43999285Y-75371285D01*
X43961190Y-75485571D01*
X43923095Y-75542714D01*
X43846904Y-75599857D01*
X43770714Y-75599857D01*
X43694523Y-75542714D01*
X43656428Y-75485571D01*
X43618333Y-75371285D01*
X43580238Y-75142714D01*
X43580238Y-74857000D01*
X43618333Y-74628428D01*
X43656428Y-74514142D01*
X43694523Y-74457000D01*
X43770714Y-74399857D01*
X44380238Y-75485571D02*
X44418333Y-75542714D01*
X44380238Y-75599857D01*
X44342142Y-75542714D01*
X44380238Y-75485571D01*
X44380238Y-75599857D01*
X45180238Y-75599857D02*
X44723095Y-75599857D01*
X44951666Y-75599857D02*
X44951666Y-74399857D01*
X44875476Y-74571285D01*
X44799285Y-74685571D01*
X44723095Y-74742714D01*
X45865952Y-74799857D02*
X45865952Y-75599857D01*
X45523095Y-74799857D02*
X45523095Y-75428428D01*
X45561190Y-75542714D01*
X45637380Y-75599857D01*
X45751666Y-75599857D01*
X45827857Y-75542714D01*
X45865952Y-75485571D01*
X46513571Y-74971285D02*
X46246904Y-74971285D01*
X46246904Y-75599857D02*
X46246904Y-74399857D01*
X46627857Y-74399857D01*
X25266666Y-116292571D02*
X25228571Y-116349714D01*
X25114285Y-116406857D01*
X25038095Y-116406857D01*
X24923809Y-116349714D01*
X24847619Y-116235428D01*
X24809523Y-116121142D01*
X24771428Y-115892571D01*
X24771428Y-115721142D01*
X24809523Y-115492571D01*
X24847619Y-115378285D01*
X24923809Y-115264000D01*
X25038095Y-115206857D01*
X25114285Y-115206857D01*
X25228571Y-115264000D01*
X25266666Y-115321142D01*
X25952380Y-115206857D02*
X25800000Y-115206857D01*
X25723809Y-115264000D01*
X25685714Y-115321142D01*
X25609523Y-115492571D01*
X25571428Y-115721142D01*
X25571428Y-116178285D01*
X25609523Y-116292571D01*
X25647619Y-116349714D01*
X25723809Y-116406857D01*
X25876190Y-116406857D01*
X25952380Y-116349714D01*
X25990476Y-116292571D01*
X26028571Y-116178285D01*
X26028571Y-115892571D01*
X25990476Y-115778285D01*
X25952380Y-115721142D01*
X25876190Y-115664000D01*
X25723809Y-115664000D01*
X25647619Y-115721142D01*
X25609523Y-115778285D01*
X25571428Y-115892571D01*
X24085714Y-122318857D02*
X24161904Y-122318857D01*
X24238095Y-122376000D01*
X24276190Y-122433142D01*
X24314285Y-122547428D01*
X24352380Y-122776000D01*
X24352380Y-123061714D01*
X24314285Y-123290285D01*
X24276190Y-123404571D01*
X24238095Y-123461714D01*
X24161904Y-123518857D01*
X24085714Y-123518857D01*
X24009523Y-123461714D01*
X23971428Y-123404571D01*
X23933333Y-123290285D01*
X23895238Y-123061714D01*
X23895238Y-122776000D01*
X23933333Y-122547428D01*
X23971428Y-122433142D01*
X24009523Y-122376000D01*
X24085714Y-122318857D01*
X24695238Y-123404571D02*
X24733333Y-123461714D01*
X24695238Y-123518857D01*
X24657142Y-123461714D01*
X24695238Y-123404571D01*
X24695238Y-123518857D01*
X25495238Y-123518857D02*
X25038095Y-123518857D01*
X25266666Y-123518857D02*
X25266666Y-122318857D01*
X25190476Y-122490285D01*
X25114285Y-122604571D01*
X25038095Y-122661714D01*
X26180952Y-122718857D02*
X26180952Y-123518857D01*
X25838095Y-122718857D02*
X25838095Y-123347428D01*
X25876190Y-123461714D01*
X25952380Y-123518857D01*
X26066666Y-123518857D01*
X26142857Y-123461714D01*
X26180952Y-123404571D01*
X26828571Y-122890285D02*
X26561904Y-122890285D01*
X26561904Y-123518857D02*
X26561904Y-122318857D01*
X26942857Y-122318857D01*
X44951666Y-37258571D02*
X44913571Y-37315714D01*
X44799285Y-37372857D01*
X44723095Y-37372857D01*
X44608809Y-37315714D01*
X44532619Y-37201428D01*
X44494523Y-37087142D01*
X44456428Y-36858571D01*
X44456428Y-36687142D01*
X44494523Y-36458571D01*
X44532619Y-36344285D01*
X44608809Y-36230000D01*
X44723095Y-36172857D01*
X44799285Y-36172857D01*
X44913571Y-36230000D01*
X44951666Y-36287142D01*
X45675476Y-36172857D02*
X45294523Y-36172857D01*
X45256428Y-36744285D01*
X45294523Y-36687142D01*
X45370714Y-36630000D01*
X45561190Y-36630000D01*
X45637380Y-36687142D01*
X45675476Y-36744285D01*
X45713571Y-36858571D01*
X45713571Y-37144285D01*
X45675476Y-37258571D01*
X45637380Y-37315714D01*
X45561190Y-37372857D01*
X45370714Y-37372857D01*
X45294523Y-37315714D01*
X45256428Y-37258571D01*
X43770714Y-42776857D02*
X43846904Y-42776857D01*
X43923095Y-42834000D01*
X43961190Y-42891142D01*
X43999285Y-43005428D01*
X44037380Y-43234000D01*
X44037380Y-43519714D01*
X43999285Y-43748285D01*
X43961190Y-43862571D01*
X43923095Y-43919714D01*
X43846904Y-43976857D01*
X43770714Y-43976857D01*
X43694523Y-43919714D01*
X43656428Y-43862571D01*
X43618333Y-43748285D01*
X43580238Y-43519714D01*
X43580238Y-43234000D01*
X43618333Y-43005428D01*
X43656428Y-42891142D01*
X43694523Y-42834000D01*
X43770714Y-42776857D01*
X44380238Y-43862571D02*
X44418333Y-43919714D01*
X44380238Y-43976857D01*
X44342142Y-43919714D01*
X44380238Y-43862571D01*
X44380238Y-43976857D01*
X45180238Y-43976857D02*
X44723095Y-43976857D01*
X44951666Y-43976857D02*
X44951666Y-42776857D01*
X44875476Y-42948285D01*
X44799285Y-43062571D01*
X44723095Y-43119714D01*
X45865952Y-43176857D02*
X45865952Y-43976857D01*
X45523095Y-43176857D02*
X45523095Y-43805428D01*
X45561190Y-43919714D01*
X45637380Y-43976857D01*
X45751666Y-43976857D01*
X45827857Y-43919714D01*
X45865952Y-43862571D01*
X46513571Y-43348285D02*
X46246904Y-43348285D01*
X46246904Y-43976857D02*
X46246904Y-42776857D01*
X46627857Y-42776857D01*
X49904666Y-53681571D02*
X49866571Y-53738714D01*
X49752285Y-53795857D01*
X49676095Y-53795857D01*
X49561809Y-53738714D01*
X49485619Y-53624428D01*
X49447523Y-53510142D01*
X49409428Y-53281571D01*
X49409428Y-53110142D01*
X49447523Y-52881571D01*
X49485619Y-52767285D01*
X49561809Y-52653000D01*
X49676095Y-52595857D01*
X49752285Y-52595857D01*
X49866571Y-52653000D01*
X49904666Y-52710142D01*
X50590380Y-52995857D02*
X50590380Y-53795857D01*
X50399904Y-52538714D02*
X50209428Y-53395857D01*
X50704666Y-53395857D01*
X48596714Y-59326857D02*
X48672904Y-59326857D01*
X48749095Y-59384000D01*
X48787190Y-59441142D01*
X48825285Y-59555428D01*
X48863380Y-59784000D01*
X48863380Y-60069714D01*
X48825285Y-60298285D01*
X48787190Y-60412571D01*
X48749095Y-60469714D01*
X48672904Y-60526857D01*
X48596714Y-60526857D01*
X48520523Y-60469714D01*
X48482428Y-60412571D01*
X48444333Y-60298285D01*
X48406238Y-60069714D01*
X48406238Y-59784000D01*
X48444333Y-59555428D01*
X48482428Y-59441142D01*
X48520523Y-59384000D01*
X48596714Y-59326857D01*
X49206238Y-60412571D02*
X49244333Y-60469714D01*
X49206238Y-60526857D01*
X49168142Y-60469714D01*
X49206238Y-60412571D01*
X49206238Y-60526857D01*
X50006238Y-60526857D02*
X49549095Y-60526857D01*
X49777666Y-60526857D02*
X49777666Y-59326857D01*
X49701476Y-59498285D01*
X49625285Y-59612571D01*
X49549095Y-59669714D01*
X50691952Y-59726857D02*
X50691952Y-60526857D01*
X50349095Y-59726857D02*
X50349095Y-60355428D01*
X50387190Y-60469714D01*
X50463380Y-60526857D01*
X50577666Y-60526857D01*
X50653857Y-60469714D01*
X50691952Y-60412571D01*
X51339571Y-59898285D02*
X51072904Y-59898285D01*
X51072904Y-60526857D02*
X51072904Y-59326857D01*
X51453857Y-59326857D01*
%LPC*%
D14*
X8255000Y-85090000D03*
D15*
X5755000Y-85090000D03*
D16*
X45000000Y-147750000D03*
X42500000Y-147750000D03*
X37500000Y-147750000D03*
X35000000Y-147750000D03*
D17*
X40000000Y-137950000D03*
X47350000Y-137950000D03*
X32650000Y-137950000D03*
X45000000Y-135750000D03*
X35000000Y-135750000D03*
D18*
X97750000Y-20000000D03*
X97750000Y-22500000D03*
X97750000Y-27500000D03*
X97750000Y-30000000D03*
D19*
X87950000Y-25000000D03*
X87950000Y-17650000D03*
X87950000Y-32350000D03*
X85750000Y-20000000D03*
X85750000Y-30000000D03*
D16*
X85000000Y-147750000D03*
X82500000Y-147750000D03*
X77500000Y-147750000D03*
X75000000Y-147750000D03*
D17*
X80000000Y-137950000D03*
X87350000Y-137950000D03*
X72650000Y-137950000D03*
X85000000Y-135750000D03*
X75000000Y-135750000D03*
D16*
X65000000Y-147750000D03*
X62500000Y-147750000D03*
X57500000Y-147750000D03*
X55000000Y-147750000D03*
D17*
X60000000Y-137950000D03*
X67350000Y-137950000D03*
X52650000Y-137950000D03*
X65000000Y-135750000D03*
X55000000Y-135750000D03*
D20*
X45085000Y-8255000D03*
X42545000Y-8255000D03*
D21*
X40005000Y-8255000D03*
D22*
X13335000Y-17780000D03*
D23*
X23495000Y-17780000D03*
D15*
X75565000Y-111125000D03*
X75565000Y-100965000D03*
D19*
X5715000Y-18415000D03*
D24*
X5715000Y-20955000D03*
D21*
X97155000Y-13335000D03*
D25*
X97155000Y-10795000D03*
D14*
X34925000Y-17780000D03*
D15*
X34925000Y-20280000D03*
D21*
X4999800Y-133590000D03*
D25*
X4999800Y-136130000D03*
D21*
X13730000Y-145000000D03*
D25*
X16270000Y-145000000D03*
D21*
X23730000Y-145000000D03*
D25*
X26270000Y-145000000D03*
D21*
X18730000Y-145000000D03*
D25*
X21270000Y-145000000D03*
D15*
X52705000Y-89575000D03*
X52705000Y-92075000D03*
X50165000Y-19050000D03*
X50165000Y-21550000D03*
D26*
X76200000Y-17780000D03*
D27*
X76200000Y-27940000D03*
D15*
X12700000Y-127000000D03*
X12700000Y-116840000D03*
X76200000Y-33655000D03*
X76200000Y-43815000D03*
D24*
X5000000Y-76270000D03*
D19*
X5000000Y-73730000D03*
D24*
X5000000Y-63730000D03*
D19*
X5000000Y-66270000D03*
D28*
X53340000Y-65405000D03*
X71120000Y-73025000D03*
X55880000Y-65405000D03*
X68580000Y-73025000D03*
X58420000Y-65405000D03*
X66040000Y-73025000D03*
X60960000Y-65405000D03*
X63500000Y-73025000D03*
X63500000Y-65405000D03*
X60960000Y-73025000D03*
X66040000Y-65405000D03*
X58420000Y-73025000D03*
X68580000Y-65405000D03*
X55880000Y-73025000D03*
X71120000Y-65405000D03*
D29*
X53340000Y-73025000D03*
D28*
X53340000Y-50165000D03*
X71120000Y-57785000D03*
X55880000Y-50165000D03*
X68580000Y-57785000D03*
X58420000Y-50165000D03*
X66040000Y-57785000D03*
X60960000Y-50165000D03*
X63500000Y-57785000D03*
X63500000Y-50165000D03*
X60960000Y-57785000D03*
X66040000Y-50165000D03*
X58420000Y-57785000D03*
X68580000Y-50165000D03*
X55880000Y-57785000D03*
X71120000Y-50165000D03*
D29*
X53340000Y-57785000D03*
X55880000Y-109855000D03*
D28*
X71120000Y-102235000D03*
X58420000Y-109855000D03*
X68580000Y-102235000D03*
X60960000Y-109855000D03*
X66040000Y-102235000D03*
X63500000Y-109855000D03*
X63500000Y-102235000D03*
X66040000Y-109855000D03*
X60960000Y-102235000D03*
X68580000Y-109855000D03*
X58420000Y-102235000D03*
X71120000Y-109855000D03*
X55880000Y-102235000D03*
D29*
X55880000Y-97155000D03*
D28*
X71120000Y-89535000D03*
X58420000Y-97155000D03*
X68580000Y-89535000D03*
X60960000Y-97155000D03*
X66040000Y-89535000D03*
X63500000Y-97155000D03*
X63500000Y-89535000D03*
X66040000Y-97155000D03*
X60960000Y-89535000D03*
X68580000Y-97155000D03*
X58420000Y-89535000D03*
X71120000Y-97155000D03*
X55880000Y-89535000D03*
D29*
X53340000Y-41275000D03*
D28*
X68580000Y-33655000D03*
X55880000Y-41275000D03*
X66040000Y-33655000D03*
X58420000Y-41275000D03*
X63500000Y-33655000D03*
X60960000Y-41275000D03*
X60960000Y-33655000D03*
X63500000Y-41275000D03*
X58420000Y-33655000D03*
X66040000Y-41275000D03*
X55880000Y-33655000D03*
X68580000Y-41275000D03*
X53340000Y-33655000D03*
D29*
X29210000Y-125730000D03*
D28*
X44450000Y-118110000D03*
X31750000Y-125730000D03*
X41910000Y-118110000D03*
X34290000Y-125730000D03*
X39370000Y-118110000D03*
X36830000Y-125730000D03*
X36830000Y-118110000D03*
X39370000Y-125730000D03*
X34290000Y-118110000D03*
X41910000Y-125730000D03*
X31750000Y-118110000D03*
X44450000Y-125730000D03*
X29210000Y-118110000D03*
D29*
X13335000Y-41275000D03*
D28*
X41275000Y-26035000D03*
X15875000Y-41275000D03*
X38735000Y-26035000D03*
X18415000Y-41275000D03*
X36195000Y-26035000D03*
X20955000Y-41275000D03*
X33655000Y-26035000D03*
X23495000Y-41275000D03*
X31115000Y-26035000D03*
X26035000Y-41275000D03*
X28575000Y-26035000D03*
X28575000Y-41275000D03*
X26035000Y-26035000D03*
X31115000Y-41275000D03*
X23495000Y-26035000D03*
X33655000Y-41275000D03*
X20955000Y-26035000D03*
X36195000Y-41275000D03*
X18415000Y-26035000D03*
X38735000Y-41275000D03*
X15875000Y-26035000D03*
X41275000Y-41275000D03*
X13335000Y-26035000D03*
D29*
X13335000Y-73025000D03*
D28*
X41275000Y-57785000D03*
X15875000Y-73025000D03*
X38735000Y-57785000D03*
X18415000Y-73025000D03*
X36195000Y-57785000D03*
X20955000Y-73025000D03*
X33655000Y-57785000D03*
X23495000Y-73025000D03*
X31115000Y-57785000D03*
X26035000Y-73025000D03*
X28575000Y-57785000D03*
X28575000Y-73025000D03*
X26035000Y-57785000D03*
X31115000Y-73025000D03*
X23495000Y-57785000D03*
X33655000Y-73025000D03*
X20955000Y-57785000D03*
X36195000Y-73025000D03*
X18415000Y-57785000D03*
X38735000Y-73025000D03*
X15875000Y-57785000D03*
X41275000Y-73025000D03*
X13335000Y-57785000D03*
D29*
X13335000Y-104775000D03*
D28*
X41275000Y-89535000D03*
X15875000Y-104775000D03*
X38735000Y-89535000D03*
X18415000Y-104775000D03*
X36195000Y-89535000D03*
X20955000Y-104775000D03*
X33655000Y-89535000D03*
X23495000Y-104775000D03*
X31115000Y-89535000D03*
X26035000Y-104775000D03*
X28575000Y-89535000D03*
X28575000Y-104775000D03*
X26035000Y-89535000D03*
X31115000Y-104775000D03*
X23495000Y-89535000D03*
X33655000Y-104775000D03*
X20955000Y-89535000D03*
X36195000Y-104775000D03*
X18415000Y-89535000D03*
X38735000Y-104775000D03*
X15875000Y-89535000D03*
X41275000Y-104775000D03*
X13335000Y-89535000D03*
D15*
X71120000Y-127000000D03*
X71120000Y-116840000D03*
X7620000Y-127000000D03*
X7620000Y-116840000D03*
X71120000Y-17780000D03*
X71120000Y-27940000D03*
X66675000Y-127000000D03*
X66675000Y-116840000D03*
X57785000Y-127000000D03*
X57785000Y-116840000D03*
X62230000Y-127000000D03*
X62230000Y-116840000D03*
X48895000Y-127000000D03*
X48895000Y-116840000D03*
X53340000Y-127000000D03*
X53340000Y-116840000D03*
X66040000Y-17780000D03*
X66040000Y-27940000D03*
X21590000Y-127000000D03*
X21590000Y-116840000D03*
X17145000Y-127000000D03*
X17145000Y-116840000D03*
D28*
X53340000Y-19050000D03*
X60960000Y-26670000D03*
X55880000Y-19050000D03*
X58420000Y-26670000D03*
X58420000Y-19050000D03*
X55880000Y-26670000D03*
X60960000Y-19050000D03*
D29*
X53340000Y-26670000D03*
D15*
X72390000Y-36195000D03*
X72390000Y-33695000D03*
X8215000Y-92710000D03*
X5715000Y-92710000D03*
D14*
X43815000Y-17780000D03*
D15*
X43815000Y-20280000D03*
D30*
X83730000Y-54680000D03*
D31*
X86270000Y-54680000D03*
X83730000Y-57220000D03*
X86270000Y-57220000D03*
X83730000Y-59760000D03*
X86270000Y-59760000D03*
X83730000Y-62300000D03*
X86270000Y-62300000D03*
X83730000Y-64840000D03*
X86270000Y-64840000D03*
X83730000Y-67380000D03*
X86270000Y-67380000D03*
X83730000Y-69920000D03*
X86270000Y-69920000D03*
X83730000Y-72460000D03*
X86270000Y-72460000D03*
X83730000Y-75000000D03*
X86270000Y-75000000D03*
X83730000Y-77540000D03*
X86270000Y-77540000D03*
X83730000Y-80080000D03*
X86270000Y-80080000D03*
X83730000Y-82620000D03*
X86270000Y-82620000D03*
X83730000Y-85160000D03*
X86270000Y-85160000D03*
X83730000Y-87700000D03*
X86270000Y-87700000D03*
X83730000Y-90240000D03*
X86270000Y-90240000D03*
X83730000Y-92780000D03*
X86270000Y-92780000D03*
X83730000Y-95320000D03*
X86270000Y-95320000D03*
D30*
X93730000Y-54680000D03*
D31*
X96270000Y-54680000D03*
X93730000Y-57220000D03*
X96270000Y-57220000D03*
X93730000Y-59760000D03*
X96270000Y-59760000D03*
X93730000Y-62300000D03*
X96270000Y-62300000D03*
X93730000Y-64840000D03*
X96270000Y-64840000D03*
X93730000Y-67380000D03*
X96270000Y-67380000D03*
X93730000Y-69920000D03*
X96270000Y-69920000D03*
X93730000Y-72460000D03*
X96270000Y-72460000D03*
X93730000Y-75000000D03*
X96270000Y-75000000D03*
X93730000Y-77540000D03*
X96270000Y-77540000D03*
X93730000Y-80080000D03*
X96270000Y-80080000D03*
X93730000Y-82620000D03*
X96270000Y-82620000D03*
X93730000Y-85160000D03*
X96270000Y-85160000D03*
X93730000Y-87700000D03*
X96270000Y-87700000D03*
X93730000Y-90240000D03*
X96270000Y-90240000D03*
X93730000Y-92780000D03*
X96270000Y-92780000D03*
X93730000Y-95320000D03*
X96270000Y-95320000D03*
D15*
X45085000Y-104775000D03*
X45085000Y-102275000D03*
X45085000Y-73025000D03*
X45085000Y-70525000D03*
X25400000Y-118150000D03*
X25400000Y-120650000D03*
X45085000Y-41275000D03*
X45085000Y-38775000D03*
X50165000Y-55285000D03*
X50165000Y-57785000D03*
D32*
X95000000Y-145000000D03*
X5000000Y-145000000D03*
X95000000Y-5000000D03*
X5000000Y-5000000D03*
M02*
