M48
; DRILL file {KiCad 5.1.4-5.1.4} date Wed 04 Sep 2019 11:09:02 BST
; FORMAT={-:-/ absolute / metric / decimal}
; #@! TF.CreationDate,2019-09-04T11:09:02+01:00
; #@! TF.GenerationSoftware,Kicad,Pcbnew,5.1.4-5.1.4
FMAT,2
METRIC
T1C0.500
T2C0.800
T3C0.900
T4C1.000
T5C1.016
T6C1.100
T7C1.200
T8C1.500
T9C3.500
%
G90
G05
T1
X19.685Y-45.085
X25.019Y-61.595
X26.67Y-115.57
X27.94Y-111.125
X28.212Y-67.673
X33.02Y-65.405
X33.02Y-112.395
X33.274Y-67.818
X44.196Y-97.409
X45.085Y-61.595
X47.625Y-67.31
X48.26Y-99.695
X55.868Y-62.23
X67.31Y-54.61
X69.85Y-53.34
X74.295Y-73.025
X75.438Y-71.882
X76.708Y-70.612
X78.105Y-69.215
X80.01Y-74.93
T2
X29.21Y-118.11
X29.21Y-125.73
X31.75Y-118.11
X31.75Y-125.73
X34.29Y-118.11
X34.29Y-125.73
X36.83Y-118.11
X36.83Y-125.73
X39.37Y-118.11
X39.37Y-125.73
X41.91Y-118.11
X41.91Y-125.73
X44.45Y-118.11
X44.45Y-125.73
X52.705Y-89.575
X52.705Y-92.075
X50.165Y-19.05
X50.165Y-21.55
X72.39Y-33.695
X72.39Y-36.195
X34.925Y-17.78
X34.925Y-20.28
X53.34Y-65.405
X53.34Y-73.025
X55.88Y-65.405
X55.88Y-73.025
X58.42Y-65.405
X58.42Y-73.025
X60.96Y-65.405
X60.96Y-73.025
X63.5Y-65.405
X63.5Y-73.025
X66.04Y-65.405
X66.04Y-73.025
X68.58Y-65.405
X68.58Y-73.025
X71.12Y-65.405
X71.12Y-73.025
X53.34Y-33.655
X53.34Y-41.275
X55.88Y-33.655
X55.88Y-41.275
X58.42Y-33.655
X58.42Y-41.275
X60.96Y-33.655
X60.96Y-41.275
X63.5Y-33.655
X63.5Y-41.275
X66.04Y-33.655
X66.04Y-41.275
X68.58Y-33.655
X68.58Y-41.275
X45.085Y-70.525
X45.085Y-73.025
X57.785Y-116.84
X57.785Y-127.0
X53.34Y-19.05
X53.34Y-26.67
X55.88Y-19.05
X55.88Y-26.67
X58.42Y-19.05
X58.42Y-26.67
X60.96Y-19.05
X60.96Y-26.67
X45.085Y-102.275
X45.085Y-104.775
X66.04Y-17.78
X66.04Y-27.94
X75.565Y-100.965
X75.565Y-111.125
X53.34Y-116.84
X53.34Y-127.0
X12.7Y-116.84
X12.7Y-127.0
X55.88Y-89.535
X55.88Y-97.155
X58.42Y-89.535
X58.42Y-97.155
X60.96Y-89.535
X60.96Y-97.155
X63.5Y-89.535
X63.5Y-97.155
X66.04Y-89.535
X66.04Y-97.155
X68.58Y-89.535
X68.58Y-97.155
X71.12Y-89.535
X71.12Y-97.155
X13.335Y-89.535
X13.335Y-104.775
X15.875Y-89.535
X15.875Y-104.775
X18.415Y-89.535
X18.415Y-104.775
X20.955Y-89.535
X20.955Y-104.775
X23.495Y-89.535
X23.495Y-104.775
X26.035Y-89.535
X26.035Y-104.775
X28.575Y-89.535
X28.575Y-104.775
X31.115Y-89.535
X31.115Y-104.775
X33.655Y-89.535
X33.655Y-104.775
X36.195Y-89.535
X36.195Y-104.775
X38.735Y-89.535
X38.735Y-104.775
X41.275Y-89.535
X41.275Y-104.775
X13.335Y-57.785
X13.335Y-73.025
X15.875Y-57.785
X15.875Y-73.025
X18.415Y-57.785
X18.415Y-73.025
X20.955Y-57.785
X20.955Y-73.025
X23.495Y-57.785
X23.495Y-73.025
X26.035Y-57.785
X26.035Y-73.025
X28.575Y-57.785
X28.575Y-73.025
X31.115Y-57.785
X31.115Y-73.025
X33.655Y-57.785
X33.655Y-73.025
X36.195Y-57.785
X36.195Y-73.025
X38.735Y-57.785
X38.735Y-73.025
X41.275Y-57.785
X41.275Y-73.025
X71.12Y-17.78
X71.12Y-27.94
X13.335Y-26.035
X13.335Y-41.275
X15.875Y-26.035
X15.875Y-41.275
X18.415Y-26.035
X18.415Y-41.275
X20.955Y-26.035
X20.955Y-41.275
X23.495Y-26.035
X23.495Y-41.275
X26.035Y-26.035
X26.035Y-41.275
X28.575Y-26.035
X28.575Y-41.275
X31.115Y-26.035
X31.115Y-41.275
X33.655Y-26.035
X33.655Y-41.275
X36.195Y-26.035
X36.195Y-41.275
X38.735Y-26.035
X38.735Y-41.275
X41.275Y-26.035
X41.275Y-41.275
X17.145Y-116.84
X17.145Y-127.0
X21.59Y-116.84
X21.59Y-127.0
X43.815Y-17.78
X43.815Y-20.28
X25.4Y-118.15
X25.4Y-120.65
X5.715Y-92.71
X8.215Y-92.71
X62.23Y-116.84
X62.23Y-127.0
X71.12Y-116.84
X71.12Y-127.0
X48.895Y-116.84
X48.895Y-127.0
X45.085Y-38.775
X45.085Y-41.275
X5.755Y-85.09
X8.255Y-85.09
X53.34Y-50.165
X53.34Y-57.785
X55.88Y-50.165
X55.88Y-57.785
X58.42Y-50.165
X58.42Y-57.785
X60.96Y-50.165
X60.96Y-57.785
X63.5Y-50.165
X63.5Y-57.785
X66.04Y-50.165
X66.04Y-57.785
X68.58Y-50.165
X68.58Y-57.785
X71.12Y-50.165
X71.12Y-57.785
X66.675Y-116.84
X66.675Y-127.0
X50.165Y-55.285
X50.165Y-57.785
X55.88Y-102.235
X55.88Y-109.855
X58.42Y-102.235
X58.42Y-109.855
X60.96Y-102.235
X60.96Y-109.855
X63.5Y-102.235
X63.5Y-109.855
X66.04Y-102.235
X66.04Y-109.855
X68.58Y-102.235
X68.58Y-109.855
X71.12Y-102.235
X71.12Y-109.855
X7.62Y-116.84
X7.62Y-127.0
X76.2Y-17.78
X76.2Y-27.94
X76.2Y-33.655
X76.2Y-43.815
T3
X5.0Y-133.59
X5.0Y-136.13
X18.73Y-145.0
X21.27Y-145.0
X13.73Y-145.0
X16.27Y-145.0
X23.73Y-145.0
X26.27Y-145.0
X97.155Y-10.795
X97.155Y-13.335
T4
X40.005Y-8.255
X42.545Y-8.255
X45.085Y-8.255
T5
X93.73Y-54.68
X93.73Y-57.22
X93.73Y-59.76
X93.73Y-62.3
X93.73Y-64.84
X93.73Y-67.38
X93.73Y-69.92
X93.73Y-72.46
X93.73Y-75.0
X93.73Y-77.54
X93.73Y-80.08
X93.73Y-82.62
X93.73Y-85.16
X93.73Y-87.7
X93.73Y-90.24
X93.73Y-92.78
X93.73Y-95.32
X96.27Y-54.68
X96.27Y-57.22
X96.27Y-59.76
X96.27Y-62.3
X96.27Y-64.84
X96.27Y-67.38
X96.27Y-69.92
X96.27Y-72.46
X96.27Y-75.0
X96.27Y-77.54
X96.27Y-80.08
X96.27Y-82.62
X96.27Y-85.16
X96.27Y-87.7
X96.27Y-90.24
X96.27Y-92.78
X96.27Y-95.32
X83.73Y-54.68
X83.73Y-57.22
X83.73Y-59.76
X83.73Y-62.3
X83.73Y-64.84
X83.73Y-67.38
X83.73Y-69.92
X83.73Y-72.46
X83.73Y-75.0
X83.73Y-77.54
X83.73Y-80.08
X83.73Y-82.62
X83.73Y-85.16
X83.73Y-87.7
X83.73Y-90.24
X83.73Y-92.78
X83.73Y-95.32
X86.27Y-54.68
X86.27Y-57.22
X86.27Y-59.76
X86.27Y-62.3
X86.27Y-64.84
X86.27Y-67.38
X86.27Y-69.92
X86.27Y-72.46
X86.27Y-75.0
X86.27Y-77.54
X86.27Y-80.08
X86.27Y-82.62
X86.27Y-85.16
X86.27Y-87.7
X86.27Y-90.24
X86.27Y-92.78
X86.27Y-95.32
T6
X13.335Y-17.78
X23.495Y-17.78
T7
X32.65Y-137.95
X35.0Y-135.75
X40.0Y-137.95
X45.0Y-135.75
X47.35Y-137.95
X52.65Y-137.95
X55.0Y-135.75
X60.0Y-137.95
X65.0Y-135.75
X67.35Y-137.95
X5.0Y-63.73
X5.0Y-66.27
X72.65Y-137.95
X75.0Y-135.75
X80.0Y-137.95
X85.0Y-135.75
X87.35Y-137.95
X85.75Y-20.0
X85.75Y-30.0
X87.95Y-17.65
X87.95Y-25.0
X87.95Y-32.35
X5.0Y-73.73
X5.0Y-76.27
X5.715Y-18.415
X5.715Y-20.955
T8
X35.0Y-147.75
X37.5Y-147.75
X42.5Y-147.75
X45.0Y-147.75
X55.0Y-147.75
X57.5Y-147.75
X62.5Y-147.75
X65.0Y-147.75
X75.0Y-147.75
X77.5Y-147.75
X82.5Y-147.75
X85.0Y-147.75
X97.75Y-20.0
X97.75Y-22.5
X97.75Y-27.5
X97.75Y-30.0
T9
X95.0Y-5.0
X5.0Y-145.0
X95.0Y-145.0
X5.0Y-5.0
T0
M30
